<svg width="104" height="104" viewBox="0 0 104 104" fill="none" xmlns="http://www.w3.org/2000/svg">
<path d="M73.775 55.575L51.35 26.325L6.98751 57.2C6.66251 57.525 6.50001 58.0125 6.66251 58.3375C6.98751 58.9875 7.47501 59.9625 7.47501 61.2625C7.47501 62.5625 6.50001 63.7 6.01251 64.35C5.52501 65 5.68751 65.1625 6.01251 65.4875L19.9875 85.9625C20.3125 86.45 20.8 86.45 21.2875 86.125C22.1 85.6375 23.5625 84.9875 25.025 85.15C26.4875 85.3125 27.7875 86.2875 28.275 86.9375C28.7625 87.5875 29.0875 87.2625 29.4125 86.9375L73.9375 55.4125L73.775 55.575Z" fill="#F89B20"/>
<path d="M11.05 54.275L61.425 19.175C61.9125 18.85 62.4 18.85 62.8875 19.175C63.375 19.5 64.025 19.9875 64.8375 20.15C65.65 20.3125 66.625 20.15 67.1125 20.15C67.6 20.15 68.0875 20.15 68.4125 20.6375L84.3375 41.275C84.6625 41.7625 84.825 42.4125 84.3375 43.0625C83.85 43.875 83.525 45.5 84.3375 47.45C85.15 49.4 84.3375 48.2625 84.0125 48.425L29.4125 87.1" stroke="#2B2A28" stroke-width="2" stroke-miterlimit="10" stroke-linecap="round"/>
<path d="M57.6875 28.1125L62.725 24.2125C63.5375 23.725 64.5125 23.725 65.1625 24.5375L79.1375 42.0875C79.7875 42.9 79.625 43.875 78.8125 44.525L74.75 47.6125C73.9375 48.2625 72.9625 48.1 72.3125 47.2875L60.125 31.85" stroke="#2B2A28" stroke-width="2" stroke-miterlimit="10" stroke-linecap="round"/>
<path d="M64.35 30.3875L73.2875 41.275" stroke="#2B2A28" stroke-width="2" stroke-miterlimit="10" stroke-linecap="round"/>
<path d="M42.6218 49.375C43.8978 48.7164 44.1313 46.6309 43.1434 44.7169C42.1555 42.8029 40.3203 41.7851 39.0443 42.4437C37.7683 43.1023 37.5347 45.1878 38.5226 47.1018C39.5105 49.0158 41.3458 50.0335 42.6218 49.375Z" fill="white"/>
<path d="M57.2635 50.7918C58.5395 50.1332 58.7731 48.0477 57.7852 46.1337C56.7973 44.2197 54.9621 43.202 53.6861 43.8606C52.4101 44.5192 52.1765 46.6047 53.1644 48.5187C54.1523 50.4327 55.9875 51.4504 57.2635 50.7918Z" fill="white"/>
<path d="M47.5375 37.2L49.325 55.725" stroke="white" stroke-width="2" stroke-miterlimit="10" stroke-linecap="round"/>
<path d="M51.6 62.0625L61.35 55.725" stroke="white" stroke-width="2" stroke-miterlimit="10" stroke-linecap="round"/>
<path d="M73.125 18.525L91.8125 41.925C92.1375 42.4125 92.3 43.0625 91.975 43.7125C91.4875 44.6875 91.1625 46.15 91.975 48.1C92.7875 50.05 91.975 48.9125 91.65 49.075L36.8875 88.4" stroke="#2B2A28" stroke-width="2" stroke-miterlimit="10" stroke-linecap="round"/>
<path d="M80.275 19.6625L98.9625 43.0625C99.2875 43.55 99.45 44.2 99.125 44.85C98.6375 45.825 98.3125 47.2875 99.125 49.2375C99.9375 51.1875 99.125 50.05 98.8 50.2125L44.0375 89.5375" stroke="#2B2A28" stroke-width="2" stroke-miterlimit="10" stroke-linecap="round"/>
<path d="M38.6984 67.3361C35.8336 69.3537 31.9839 68.014 29.1924 64.0504C26.4009 60.0867 26.4364 56.0107 29.3012 53.9931C32.1464 51.9893 35.9961 53.329 38.7876 57.2927C41.5791 61.2563 41.5436 65.3323 38.6984 67.3361ZM37.6758 65.8841C39.5595 64.5574 39.3621 61.5261 37.1786 58.4259C34.9951 55.3256 32.2076 54.1185 30.3239 55.4451C28.4205 56.7856 28.618 59.8169 30.8014 62.9172C32.9849 66.0174 35.7725 67.2245 37.6758 65.8841Z" fill="white"/>
<path d="M28.8952 73.9468C28.7186 74.0712 28.5179 74.0363 28.3936 73.8597L20.5027 62.6556L18.5797 64.0099C18.3835 64.1481 18.1829 64.1132 18.0897 63.8559L17.7171 62.8267C17.632 62.6225 17.6945 62.4611 17.871 62.3367L20.7162 60.3329C20.8928 60.2085 21.0935 60.2434 21.2179 60.42L29.9241 72.7818C30.0485 72.9584 30.0136 73.1591 29.837 73.2835L28.8952 73.9468Z" fill="white"/>
</svg>
