<svg width="104" height="104" viewBox="0 0 104 104" fill="none" xmlns="http://www.w3.org/2000/svg">
<path d="M71.5 93.2912C82.4041 93.2912 91.2437 84.4517 91.2437 73.5475C91.2437 62.6433 82.4041 53.8037 71.5 53.8037C60.5958 53.8037 51.7562 62.6433 51.7562 73.5475C51.7562 84.4517 60.5958 93.2912 71.5 93.2912Z" fill="#F89B20"/>
<path d="M78.8937 66.3163C73.3849 61.5388 64.0737 64.22 64.3337 74.0188C64.5937 83.98 76.2775 84.5 79.0237 79.9988" stroke="white" stroke-width="2" stroke-miterlimit="10" stroke-linecap="round"/>
<path d="M58.825 71.24H72.865" stroke="white" stroke-width="2" stroke-miterlimit="10" stroke-linecap="round"/>
<path d="M58.76 76.2938H72.8" stroke="white" stroke-width="2" stroke-miterlimit="10" stroke-linecap="round"/>
<path d="M83.265 57.7037C83.265 57.7037 93.665 64.9025 90.7725 77.9512C89.6512 82.9725 87.0675 86.1737 84.5 88.4487C78.65 93.6487 71.5162 93.3075 71.5162 93.3075" stroke="#2B2A28" stroke-width="2" stroke-miterlimit="10" stroke-linecap="round"/>
<path d="M19.5813 22.6687V18.785C19.5813 17.5337 20.5888 16.5262 21.84 16.5262H53.0725C54.1613 16.5262 55.0388 17.4037 55.0388 18.4925V27.3812C55.0388 28.47 54.1613 29.3475 53.0725 29.3475H19.4513" stroke="#2B2A28" stroke-width="2" stroke-miterlimit="10" stroke-linecap="round"/>
<path d="M26.8612 16.4125V29.4775" stroke="#2B2A28" stroke-width="2" stroke-miterlimit="10" stroke-linecap="round"/>
<path d="M34.0763 16.7863V29.835" stroke="#2B2A28" stroke-width="2" stroke-miterlimit="10" stroke-linecap="round"/>
<path d="M41.1775 16.8838V29.9488" stroke="#2B2A28" stroke-width="2" stroke-miterlimit="10" stroke-linecap="round"/>
<path d="M48.0837 16.575V29.64" stroke="#2B2A28" stroke-width="2" stroke-miterlimit="10" stroke-linecap="round"/>
<path d="M52.0487 29.6888V33.3613C52.0487 35.2138 53.0725 36.92 54.7137 37.7812L57.0212 38.9837C59.2312 40.1375 60.6125 42.4287 60.6125 44.9312V54.3562" stroke="#2B2A28" stroke-width="2" stroke-miterlimit="10" stroke-linecap="round"/>
<path d="M22.8963 29.9V33.5725C22.8963 35.425 21.8725 37.1312 20.2313 37.9925L17.9238 39.195C15.7138 40.3487 14.3325 42.64 14.3325 45.1425V70.7687" stroke="#2B2A28" stroke-width="2" stroke-miterlimit="10" stroke-linecap="round"/>
<path d="M14.2188 75.985V88.6112C14.2188 90.9837 16.1363 92.9175 18.5088 92.9175H58.3213" stroke="#2B2A28" stroke-width="2" stroke-miterlimit="10" stroke-linecap="round"/>
<path d="M14.3163 82.7775H54.7625" stroke="#2B2A28" stroke-width="2" stroke-miterlimit="10" stroke-linecap="round"/>
<path d="M14.9988 48.295H45.3538" stroke="#2B2A28" stroke-width="2" stroke-miterlimit="10" stroke-linecap="round"/>
<path d="M49.0913 48.3925H61.4576" stroke="#2B2A28" stroke-width="2" stroke-miterlimit="10" stroke-linecap="round"/>
<path d="M38.0737 53.9012H37.5862C35.908 53.9012 34.5475 55.2617 34.5475 56.94V74.0837C34.5475 75.762 35.908 77.1225 37.5862 77.1225H38.0737C39.752 77.1225 41.1125 75.762 41.1125 74.0837V56.94C41.1125 55.2617 39.752 53.9012 38.0737 53.9012Z" fill="#2B2A28"/>
<path d="M49.3676 65.7962V65.3087C49.3676 63.6305 48.0071 62.27 46.3288 62.27H29.1851C27.5068 62.27 26.1463 63.6305 26.1463 65.3087V65.7962C26.1463 67.4745 27.5068 68.835 29.1851 68.835H46.3288C48.0071 68.835 49.3676 67.4745 49.3676 65.7962Z" fill="#2B2A28"/>
</svg>
