<svg width="104" height="104" viewBox="0 0 104 104" fill="none" xmlns="http://www.w3.org/2000/svg">
<path d="M49.8875 84.9125L57.2 90.1125C58.6625 91.0875 59.475 92.55 59.8 94.3375L60.2875 98.4L86.45 97.9125L82.3875 84.9125C81.7375 82.9625 81.7375 81.0125 81.9 79.0625L84.0125 64.1125C84.6625 59.4 83.6875 54.525 81.0875 50.4625L72.15 36.4875C71.0125 34.5375 70.0375 32.5875 69.3875 30.3125L67.7625 24.1375C67.4375 23.325 66.625 22.675 65.65 23C64.1875 23.325 62.4 24.3 61.5875 26.4125C59.8 31.6125 62.075 36.8125 64.35 41.0375C65.4875 42.9875 66.4625 44.9375 67.275 46.5625C68.0875 48.1875 65.1625 47.5375 63.5375 47.375L69.7125 75C70.2 76.7875 69.0625 80.6875 65.4875 81.6625L49.5625 84.9125H49.8875Z" fill="#F89B20"/>
<path d="M65.4875 81.6625L33.475 88.325C30.225 88.975 27.1375 86.8625 26.65 83.775L13.8125 18.45C13.1625 15.3625 15.275 12.275 18.3625 11.625L48.425 5.45C51.5125 4.8 54.6 6.75 55.25 9.8375L69.875 74.675C70.525 77.925 68.575 81.0125 65.325 81.6625H65.4875Z" stroke="#2B2A28" stroke-width="2" stroke-miterlimit="10"/>
<path d="M64.5125 70.9375L30.0625 78.4125" stroke="#2B2A28" stroke-width="2" stroke-miterlimit="10" stroke-linecap="round"/>
<path d="M48.425 81.6625C49.5917 81.6625 50.5375 80.7167 50.5375 79.55C50.5375 78.3833 49.5917 77.4375 48.425 77.4375C47.2583 77.4375 46.3125 78.3833 46.3125 79.55C46.3125 80.7167 47.2583 81.6625 48.425 81.6625Z" fill="#2B2A28"/>
<path d="M53.95 26.25L50.2125 11.1375L20.15 17.6375" stroke="#2B2A28" stroke-width="2" stroke-miterlimit="10" stroke-linecap="round" stroke-linejoin="round"/>
<path d="M80.4375 49.65L71.3375 35.1875" stroke="#2B2A28" stroke-width="2" stroke-miterlimit="10" stroke-linecap="round"/>
<path d="M82.0625 79.225L84.0125 64.925C84.825 60.5375 84.0125 55.3375 81.575 51.4375" stroke="#2B2A28" stroke-width="2" stroke-miterlimit="10" stroke-linecap="round"/>
<path d="M43.7122 50.413C43.7122 50.413 41.9247 45.538 35.9122 43.1005L31.3622 47.9755C29.5747 49.763 29.7372 52.8505 31.6872 54.638L32.4997 55.4505C34.2872 57.238 37.2122 57.0755 38.9997 55.288L43.8747 50.2505L43.7122 50.413Z" fill="#F89B20"/>
<path d="M31.0368 54.313C29.7368 52.8505 29.5743 50.2505 31.0368 48.6255C32.4993 47.0005 42.5743 36.113 42.5743 36.113C46.4743 33.3505 49.7243 36.6005 49.7243 36.6005C51.8368 38.8755 51.8368 41.8005 49.7243 44.238C47.6118 46.513 40.2993 54.1505 40.2993 54.1505" stroke="#2B2A28" stroke-width="2" stroke-miterlimit="10" stroke-linecap="round"/>
</svg>
