<svg width="104" height="104" viewBox="0 0 104 104" fill="none" xmlns="http://www.w3.org/2000/svg">
<path d="M86 15.475C89.4125 14.5 90.3875 13.2 90.875 8C90.875 8 91.0375 8 91.2 8C91.525 12.0625 92.175 14.6625 95.9125 15.475C95.9125 15.475 91.525 15.6375 91.2 22.95C90.875 30.2625 91.0375 22.95 91.0375 22.95C90.875 21.8125 90.3875 19.05 89.4125 17.75C87.95 15.8 86.1625 15.475 86.1625 15.475H86Z" fill="#F89B20"/>
<path d="M24.075 9.875H23.9125C22.7458 9.875 21.8 10.8208 21.8 11.9875V12.15C21.8 13.3167 22.7458 14.2625 23.9125 14.2625H24.075C25.2417 14.2625 26.1875 13.3167 26.1875 12.15V11.9875C26.1875 10.8208 25.2417 9.875 24.075 9.875Z" fill="#F89B20"/>
<path d="M7.99997 64.7861C11.4125 63.8111 12.3875 62.5111 12.875 57.3111C13.3625 52.1111 13.0375 57.3111 13.2 57.3111C13.525 61.3736 14.175 63.9736 17.9125 64.7861C17.9125 64.7861 13.525 64.9486 13.2 72.2611C12.875 79.5736 13.0375 72.2611 13.0375 72.2611C12.875 71.1236 12.3875 68.3611 11.4125 67.0611C9.94997 65.1111 8.16247 64.7861 8.16247 64.7861H7.99997Z" fill="#F89B20"/>
<path d="M82.275 67H82.1125C80.9458 67 80 67.9458 80 69.1125V69.275C80 70.4417 80.9458 71.3875 82.1125 71.3875H82.275C83.4417 71.3875 84.3875 70.4417 84.3875 69.275V69.1125C84.3875 67.9458 83.4417 67 82.275 67Z" fill="#F89B20"/>
<path d="M30.5994 23.1189C30.5994 23.1189 32.9386 22.1833 35.0438 22.1833C37.149 22.1833 38.3186 22.6511 39.7221 23.1189C42.7629 24.5224 44.4003 26.1598 47.2073 27.0955C52.5873 28.4989 56.7978 23.5868 59.8386 22.1833C64.9847 19.8441 76.4465 19.8441 79.7213 32.9433C79.7213 32.9433 82.2943 42.0659 76.9143 52.1242C71.5343 62.1825 73.1717 58.9077 72.7039 60.5451C72.0021 63.8199 72.0021 70.1356 72.236 75.0478C73.4056 89.5504 65.9204 86.9774 63.3473 83.2347C60.7743 79.4921 57.0317 68.7321 57.0317 68.7321" stroke="#2B2A28" stroke-width="2" stroke-miterlimit="10" stroke-linecap="round"/>
<path d="M38.0847 86.5095C38.0847 86.5095 39.7221 85.34 41.8273 82.533C43.9325 79.726 44.1664 77.153 44.8682 75.2817C45.5699 73.4104 46.7395 69.4338 47.4412 67.3286C48.1429 65.2234 48.8447 62.4164 51.1838 61.2469" stroke="#2B2A28" stroke-width="2" stroke-miterlimit="10" stroke-linecap="round"/>
<path d="M50.9499 40.1946C50.9499 40.1946 57.0316 32.0076 65.6865 29.2007" stroke="#2B2A28" stroke-width="2" stroke-miterlimit="10" stroke-linecap="round"/>
<path d="M30.1316 43.0016C30.1316 43.0016 36.2133 53.0599 36.4472 67.7965" stroke="#2B2A28" stroke-width="2" stroke-miterlimit="10" stroke-linecap="round"/>
<path d="M25.2194 25.692C25.2194 25.692 20.775 30.1363 21.009 36.452C21.2429 42.7677 24.0498 47.6799 25.6872 51.6564C27.3246 55.6329 29.4298 60.779 29.6638 65.9251C29.8977 71.0712 29.6638 74.346 29.8977 78.0886C30.1316 81.8313 32.0029 84.6382 32.0029 84.6382" stroke="#2B2A28" stroke-width="2" stroke-miterlimit="10" stroke-linecap="round"/>
</svg>
