<svg width="104" height="104" viewBox="0 0 104 104" fill="none" xmlns="http://www.w3.org/2000/svg">
<path d="M38 94H49" stroke="#2B2A28" stroke-width="2" stroke-linecap="round" stroke-linejoin="round"/>
<path d="M25 97H35" stroke="#2B2A28" stroke-width="2" stroke-linecap="round" stroke-linejoin="round"/>
<path d="M29 69C29 70.1046 29.8954 71 31 71C32.1046 71 33 70.1046 33 69C33 67.8954 32.1046 67 31 67C29.8954 67 29 67.8954 29 69Z" fill="#2B2A28"/>
<path d="M25 90V52C25 50.8954 25.8954 50 27 50H43C44.1046 50 45 50.8954 45 52V90" stroke="#2B2A28" stroke-width="2" stroke-linecap="round" stroke-linejoin="round"/>
<path d="M70.33 21H84.9498C86.4158 21 87.6671 22.0595 87.9088 23.5054L90.4159 38.5054C90.7216 40.3344 89.3113 42 87.457 42H16.7422C14.8222 42 13.3964 40.2215 13.814 38.3474L17.1569 23.3474C17.4626 21.9757 18.6796 21 20.085 21H21.19" stroke="#2B2A28" stroke-width="2" stroke-linecap="round"/>
<path d="M46.7931 18.2244C46.7931 18.2244 53.5977 20.6931 57 28.9967L50.1954 35.2806C47.7004 37.7492 43.3908 37.5248 40.8958 34.8317L39.7617 33.7096C37.2667 31.2409 37.4935 27.2013 39.9885 24.7327L47.0199 18L46.7931 18.2244Z" fill="#F89B20"/>
<path d="M42 35.5889C43.9689 37.3582 47.4691 37.5793 49.6568 35.5889C51.8444 33.5985 66.5016 19.887 66.5016 19.887C70.2206 14.5793 65.8453 10.1562 65.8453 10.1562C62.7826 7.28125 58.8449 7.28125 55.5634 10.1562C52.5007 13.0312 42.2188 22.9832 42.2188 22.9832" stroke="#2B2A28" stroke-width="2" stroke-miterlimit="10" stroke-linecap="round"/>
<path d="M31.5 25C35.6421 25 39 21.6421 39 17.5C39 13.3579 35.6421 10 31.5 10C27.3579 10 24 13.3579 24 17.5C24 21.6421 27.3579 25 31.5 25Z" fill="#F89B20" stroke="#2B2A28" stroke-width="2" stroke-miterlimit="10"/>
<path d="M29 19L38 14" stroke="#2B2A28" stroke-width="2" stroke-miterlimit="10" stroke-linecap="round"/>
<path d="M49 90H88C89.6569 90 91 88.6569 91 87V46M13 46V87C13 88.6569 14.3431 90 16 90H20.5595" stroke="#2B2A28" stroke-width="2" stroke-linecap="round" stroke-linejoin="round"/>
<rect x="58" y="52" width="28" height="18" fill="#F89B20"/>
<path d="M86 51H60C58.8954 51 58 51.8954 58 53V69C58 70.1046 58.8954 71 60 71H86" stroke="#2B2A28" stroke-width="2" stroke-linecap="round" stroke-linejoin="round"/>
<path d="M72.5 67C76.0899 67 79 64.3137 79 61C79 57.6863 76.0899 55 72.5 55C68.9101 55 66 57.6863 66 61C66 64.3137 68.9101 67 72.5 67Z" fill="white"/>
<path d="M73.6324 63.6622L73.7455 58.6821C73.7609 57.9997 73.2203 57.4339 72.5379 57.4185L72.5285 57.4182C71.8461 57.4028 71.2803 57.9434 71.2648 58.6258L71.1518 63.6059C71.1363 64.2883 71.677 64.8541 72.3594 64.8696L72.3688 64.8698C73.0512 64.8853 73.617 64.3446 73.6324 63.6622Z" fill="#F89B20"/>
<path d="M69.8877 62.4483L75.0753 62.566C75.8359 62.5833 76.4664 61.9808 76.4836 61.2202C76.5009 60.4597 75.8984 59.8291 75.1378 59.8119L69.9502 59.6942C69.1897 59.6769 68.5591 60.2795 68.5419 61.04C68.5246 61.8005 69.1272 62.4311 69.8877 62.4483Z" fill="#F89B20"/>
</svg>
