<svg width="104" height="104" viewBox="0 0 104 104" fill="none" xmlns="http://www.w3.org/2000/svg">
<path d="M59.9861 82.7348L66.8527 87.6178C68.2261 88.5333 68.989 89.9067 69.2942 91.5852L69.752 95.4L94.3193 94.9422L90.5045 82.7348C89.8942 80.9037 89.8942 79.0726 90.0468 77.2415L92.0304 63.203C92.6408 58.7779 91.7253 54.2001 89.2838 50.3853L80.8912 37.2624C79.8231 35.4313 78.9075 33.6002 78.2972 31.4639L76.7712 25.6654C76.466 24.9024 75.7031 24.292 74.7875 24.5972C73.4142 24.9024 71.7357 25.818 70.9727 27.8017C69.2942 32.6846 71.4305 37.5676 73.5668 41.535C74.6349 43.3661 75.5505 45.1972 76.3135 46.7231C77.0764 48.249 74.3298 47.6386 72.8038 47.486L78.6023 73.4267C79.0601 75.1052 77.992 78.7674 74.6349 79.683L59.6809 82.7348H59.9861Z" fill="#F89B20"/>
<path d="M36.5 73.1215L38.1654 81.6667C38.6232 84.566 41.5224 86.5496 44.5743 85.9393L74.6349 79.683H74.4823C77.5342 79.0726 79.3653 76.1734 78.7549 73.1215L65.0216 12.2373C64.4112 9.33802 61.512 7.50691 58.6127 8.11728L30.3832 13.9158C27.4839 14.5261 25.5002 17.4254 26.1106 20.3247L26.9311 24.5" stroke="#2B2A28" stroke-width="2" stroke-miterlimit="10" stroke-linecap="round"/>
<path d="M73.7194 69.6119L41.3698 76.6312" stroke="#2B2A28" stroke-width="2" stroke-miterlimit="10" stroke-linecap="round"/>
<path d="M58.6127 79.683C59.7083 79.683 60.5964 78.7948 60.5964 77.6993C60.5964 76.6037 59.7083 75.7156 58.6127 75.7156C57.5172 75.7156 56.629 76.6037 56.629 77.6993C56.629 78.7948 57.5172 79.683 58.6127 79.683Z" fill="#2B2A28"/>
<path d="M63.8009 27.6491L60.2913 13.458L32.0618 19.5617" stroke="#2B2A28" stroke-width="2" stroke-miterlimit="10" stroke-linecap="round" stroke-linejoin="round"/>
<path d="M88.6734 49.6224L80.1282 36.0417" stroke="#2B2A28" stroke-width="2" stroke-miterlimit="10" stroke-linecap="round"/>
<path d="M90.1994 77.3942L92.0305 63.9661C92.7934 59.8461 92.0305 54.9631 89.7416 51.3009" stroke="#2B2A28" stroke-width="2" stroke-miterlimit="10" stroke-linecap="round"/>
<path d="M25.1384 37.5096L23.715 56.44C23.3201 61.692 27.2576 66.2698 32.5096 66.6647L51.6178 68.1014C56.8698 68.4963 61.4475 64.5589 61.8424 59.3068L63.2658 40.3764C63.6607 35.1244 59.7232 30.5467 54.4712 30.1518L35.3631 28.715C30.1111 28.3201 25.5333 32.2576 25.1384 37.5096Z" fill="#F89B20"/>
<path d="M52.0513 51.21C52.3761 46.4464 48.7379 42.3188 43.9252 41.9907C39.1126 41.6626 34.9478 45.2583 34.6231 50.0218C34.2984 54.7854 37.9365 58.913 42.7492 59.2411C47.5619 59.5692 51.7266 55.9735 52.0513 51.21Z" stroke="white" stroke-width="3" stroke-miterlimit="10"/>
<path d="M38.6553 36.9623C38.6553 36.9623 44.0028 34.2885 49.796 37.6753" stroke="white" stroke-width="3" stroke-miterlimit="10" stroke-linecap="round"/>
</svg>
