<svg width="104" height="104" viewBox="0 0 104 104" fill="none" xmlns="http://www.w3.org/2000/svg">
<g clip-path="url(#clip0_23114_3782)">
<path d="M30.998 14.0525L32.1569 10.6439C32.7705 8.80322 34.7475 7.71246 36.6563 8.18966L60.7211 14.0525H30.998Z" fill="#F89B20"/>
<path d="M18.5225 68.5221L15.182 80.1796C14.7048 81.9521 15.5229 83.8609 17.2272 84.6108L18.5225 85.2243V68.5221Z" fill="#F89B20"/>
<path d="M44.7006 91.6325L69.5834 96.95C71.3559 97.2908 73.0602 96.2001 73.4011 94.4276L74.2873 90.1328C74.2873 90.1328 74.151 91.6325 71.0832 91.6325C68.0155 91.6325 44.7687 91.6325 44.7687 91.6325H44.7006Z" fill="#F89B20"/>
<path d="M74.6282 85.5652V17.3248L82.1953 19.4381C83.3542 19.9835 84.445 21.8241 83.9678 23.6648L80.9682 36.3448C79.8774 40.9124 79.7411 43.1621 81.3091 45.8208C82.8089 48.4113 83.286 50.7974 81.8544 56.0466C80.9 59.6597 74.6282 85.5652 74.6282 85.5652Z" fill="#F89B20"/>
<path d="M74.6282 16.5749L87.6491 20.188C90.3078 20.9379 91.9439 23.6648 91.3304 26.3917L87.9899 40.9805C87.7172 42.2076 87.1037 43.2984 86.2856 44.2528L82.5362 48.275L89.6261 27.7551C90.0351 26.5962 89.5579 25.3691 88.4672 24.7555L88.0581 24.4828V24.2783C88.1945 23.3239 87.5809 22.4377 86.6947 22.165L74.6282 18.6882C74.6282 18.6882 74.6282 17.4611 74.6282 17.1202C74.6282 16.643 74.6282 16.5067 74.6282 16.5067V16.5749Z" fill="#F89B20"/>
<path d="M56.4262 91.6325H20.9766C19.6132 91.6325 18.4542 90.5418 18.4542 89.1102V16.9157C18.4542 15.3477 19.7495 14.0525 21.3175 14.0525H71.765C73.3329 14.0525 74.6282 15.3477 74.6282 16.9157V85.6334" stroke="#2B2A28" stroke-width="2" stroke-miterlimit="10"/>
<path d="M87.8536 24.6873L81.3772 45.0709" stroke="#2B2A28" stroke-width="2" stroke-miterlimit="10"/>
<g clip-path="url(#clip1_23114_3782)">
<path d="M30.4157 28.8866L30.4039 28.8756C29.9986 28.4987 29.3721 28.5301 29.0046 28.9458L25.1301 33.3283C24.7626 33.744 24.7933 34.3866 25.1986 34.7635L25.2104 34.7745C25.6157 35.1514 26.2422 35.12 26.6097 34.7043L30.4842 30.3218C30.8517 29.9061 30.821 29.2635 30.4157 28.8866Z" fill="#F89B20"/>
<path d="M26.5129 34.7173L26.5242 34.7057C26.9111 34.3089 26.9111 33.6656 26.5242 33.2688L24.2872 30.9745C23.9003 30.5777 23.2731 30.5777 22.8862 30.9745L22.8749 30.986C22.488 31.3828 22.488 32.0261 22.8749 32.4229L25.1119 34.7173C25.4988 35.1141 26.126 35.1141 26.5129 34.7173Z" fill="#F89B20"/>
</g>
<g clip-path="url(#clip2_23114_3782)">
<path d="M30.4157 69.2446L30.4039 69.2336C29.9986 68.8566 29.3721 68.8881 29.0046 69.3038L25.1301 73.6863C24.7626 74.102 24.7933 74.7445 25.1986 75.1215L25.2104 75.1325C25.6157 75.5094 26.2422 75.478 26.6097 75.0623L30.4842 70.6797C30.8517 70.2641 30.821 69.6215 30.4157 69.2446Z" fill="#F89B20"/>
<path d="M26.5129 75.0753L26.5242 75.0637C26.9111 74.6669 26.9111 74.0236 26.5242 73.6268L24.2872 71.3324C23.9003 70.9356 23.2731 70.9356 22.8862 71.3324L22.8749 71.344C22.488 71.7408 22.488 72.3841 22.8749 72.7809L25.1119 75.0753C25.4988 75.4721 26.126 75.4721 26.5129 75.0753Z" fill="#F89B20"/>
</g>
<path d="M49.073 24.9901H34.1355C33.6177 24.9901 33.198 25.4098 33.198 25.9276V26.3651C33.198 26.8829 33.6177 27.3026 34.1355 27.3026H49.073C49.5908 27.3026 50.0105 26.8829 50.0105 26.3651V25.9276C50.0105 25.4098 49.5908 24.9901 49.073 24.9901Z" fill="#F89B20"/>
<path d="M33.198 30.3026H65.073" stroke="#2B2A28" stroke-width="2" stroke-miterlimit="10"/>
<path d="M33.198 33.3026H63.198" stroke="#2B2A28" stroke-width="2" stroke-miterlimit="10"/>
<path d="M33.198 36.3026H55.073" stroke="#2B2A28" stroke-width="2" stroke-miterlimit="10"/>
<path d="M49.073 45.5152H34.1355C33.6177 45.5152 33.198 45.9349 33.198 46.4527V46.8902C33.198 47.408 33.6177 47.8277 34.1355 47.8277H49.073C49.5908 47.8277 50.0105 47.408 50.0105 46.8902V46.4527C50.0105 45.9349 49.5908 45.5152 49.073 45.5152Z" fill="#F89B20"/>
<path d="M33.198 50.8277H65.073" stroke="#2B2A28" stroke-width="2" stroke-miterlimit="10"/>
<path d="M33.198 53.8277H63.198" stroke="#2B2A28" stroke-width="2" stroke-miterlimit="10"/>
<path d="M33.198 56.8277H55.073" stroke="#2B2A28" stroke-width="2" stroke-miterlimit="10"/>
<path d="M49.073 64.96H34.1355C33.6177 64.96 33.198 65.3798 33.198 65.8975V66.335C33.198 66.8528 33.6177 67.2725 34.1355 67.2725H49.073C49.5908 67.2725 50.0105 66.8528 50.0105 66.335V65.8975C50.0105 65.3798 49.5908 64.96 49.073 64.96Z" fill="#F89B20"/>
<path d="M33.198 70.2725H65.073" stroke="#2B2A28" stroke-width="2" stroke-miterlimit="10"/>
<path d="M33.198 73.2725H63.198" stroke="#2B2A28" stroke-width="2" stroke-miterlimit="10"/>
<path d="M33.198 76.2725H55.073" stroke="#2B2A28" stroke-width="2" stroke-miterlimit="10"/>
<path d="M30.4158 48.8321L30.404 48.8211C29.9987 48.4442 29.3722 48.4756 29.0047 48.8913L25.1302 53.2738C24.7627 53.6895 24.7933 54.3321 25.1986 54.709L25.2105 54.72C25.6158 55.0969 26.2422 55.0655 26.6097 54.6498L30.4842 50.2673C30.8517 49.8516 30.8211 49.209 30.4158 48.8321Z" fill="#F89B20"/>
<path d="M26.5129 54.6628L26.5242 54.6512C26.9111 54.2544 26.9111 53.6111 26.5242 53.2143L24.2872 50.9199C23.9003 50.5231 23.2731 50.5231 22.8862 50.9199L22.8749 50.9315C22.488 51.3283 22.488 51.9716 22.8749 52.3684L25.1119 54.6628C25.4988 55.0596 26.126 55.0596 26.5129 54.6628Z" fill="#F89B20"/>
</g>
<defs>
<clipPath id="clip0_23114_3782">
<rect width="104" height="104" fill="white"/>
</clipPath>
<clipPath id="clip1_23114_3782">
<rect width="8.18067" height="6.81723" fill="white" transform="translate(22.6127 28.505)"/>
</clipPath>
<clipPath id="clip2_23114_3782">
<rect width="8.18067" height="6.81723" fill="white" transform="translate(22.6127 68.863)"/>
</clipPath>
</defs>
</svg>
