<svg width="104" height="104" viewBox="0 0 104 104" fill="none" xmlns="http://www.w3.org/2000/svg">
<path d="M32.6462 17.7613L69.7125 18.1513L69.8262 83.59H32.6462V17.7613Z" fill="#F89B20"/>
<path d="M51.2687 91.0975C52.4983 91.0975 53.495 90.1008 53.495 88.8713C53.495 87.6417 52.4983 86.645 51.2687 86.645C50.0392 86.645 49.0425 87.6417 49.0425 88.8713C49.0425 90.1008 50.0392 91.0975 51.2687 91.0975Z" fill="#2B2A28"/>
<path d="M32.6138 34.6775L32.6463 17.7613L60.5638 18.07" stroke="#2B2A28" stroke-width="2" stroke-miterlimit="10" stroke-linecap="round" stroke-linejoin="round"/>
<path d="M75.6925 21.515L75.465 13.8613C75.4325 12.3175 74.1975 11.0825 72.6538 11.0825L29.8025 11.245C28.2588 11.245 27.0075 12.48 27.0075 14.0238L26.5038 90.8375C26.4713 92.9663 28.1775 94.7213 30.3063 94.7538L71.6625 94.835C74.0187 94.8675 75.9688 92.9662 75.9525 90.61L75.8875 55.9488" stroke="#2B2A28" stroke-width="2" stroke-miterlimit="10" stroke-linecap="round"/>
<path d="M69.8262 83.59H32.6462" stroke="#2B2A28" stroke-width="2" stroke-miterlimit="10" stroke-linecap="round"/>
<path d="M51.2687 70.1187C51.2687 70.1187 51.8862 67.6 51.2687 64.7725C50.6512 61.945 47.9374 57.5087 51.9999 50.6837C51.9999 50.6837 41.4699 50.245 35.8149 47.4337" stroke="#2B2A28" stroke-width="2" stroke-miterlimit="10" stroke-linecap="round"/>
<path d="M39.845 33.3937L60.2387 41.47C62.7737 42.4775 64.285 45.0937 63.8787 47.7912L60.5637 70.1187" stroke="#2B2A28" stroke-width="2" stroke-miterlimit="10" stroke-linecap="round"/>
<path d="M38.3987 37.9112C38.3987 37.9112 51.1549 42.6725 52.7637 43.0787C54.3724 43.485 55.7862 42.2662 57.0049 43.0787C58.2237 43.8912 58.2237 45.8087 57.0049 46.0037C55.7862 46.1987 55.2824 46.3125 54.9899 47.4175C54.6974 48.5225 53.4787 48.8312 52.4712 47.4175C51.4637 46.0037 51.5612 45.9062 49.0424 45.1912C46.5237 44.4762 36.6274 41.4537 36.6274 41.4537L38.3987 37.9112Z" fill="white"/>
<path d="M56.6962 49.2375C57.5575 47.8887 58.6137 45.5975 59.93 46.0037C61.2462 46.41 61.1487 48.3275 60.9375 49.2375C60.7262 50.1475 59.1175 49.9362 58.4187 49.9362C57.72 49.9362 56.0787 50.2125 56.6962 49.2375Z" fill="white"/>
<path d="M54.4862 51.7563C54.9574 51.2525 55.6237 51.4475 56.5662 51.7563C57.5087 52.065 57.5737 51.5938 58.8087 51.545C60.5637 51.4638 61.0349 53.4625 58.9549 54.6813C58.5324 54.925 58.2887 55.38 58.2562 55.8513L57.2974 70.1188H54.3399L55.4937 55.835C55.5099 55.51 55.4124 55.2013 55.1687 54.9738C54.5837 54.4213 53.3324 52.9588 54.4699 51.7563H54.4862Z" fill="white"/>
<path d="M66.6249 36.6425L73.4336 29.2487" stroke="#2B2A28" stroke-width="2" stroke-miterlimit="10" stroke-linecap="round"/>
<path d="M70.1343 47.6918L80.0955 48.9593" stroke="#2B2A28" stroke-width="2" stroke-miterlimit="10" stroke-linecap="round"/>
<path d="M69.6146 41.2907L79.2834 38.5607" stroke="#2B2A28" stroke-width="2" stroke-miterlimit="10" stroke-linecap="round"/>
</svg>
