<svg width="104" height="104" viewBox="0 0 104 104" fill="none" xmlns="http://www.w3.org/2000/svg">
<path d="M18.1996 93.9256H85.7996C90.9996 93.9256 95.2246 89.7006 95.2246 84.5006V74.1006H10.7246V86.4506C10.7246 90.6756 13.9746 93.9256 18.1996 93.9256Z" fill="#F89B20"/>
<path d="M66.6244 19.5H38.9994C34.4494 19.5 30.8744 23.725 32.1744 28.275L36.7244 48.1C37.0494 49.725 39.3244 51.025 41.2744 51.025H64.0244C65.9744 51.025 67.9244 50.05 68.5744 48.1L73.4494 27.625C73.7744 23.4 70.8494 19.5 66.6244 19.5Z" fill="#F89B20"/>
<path d="M44.1992 84.1758H60.7742" stroke="white" stroke-width="2" stroke-miterlimit="10"/>
<path d="M51.6738 41.9256L65.9738 33.4756" stroke="white" stroke-width="2" stroke-miterlimit="10"/>
<path d="M95.2246 81.8994V18.8494C95.2246 14.2994 91.3246 10.3994 86.7746 10.3994H19.4996C14.6246 10.3994 10.7246 14.2994 10.7246 19.4994V82.5494" stroke="#2B2A28" stroke-width="2" stroke-miterlimit="10"/>
<path d="M40.9492 50.6992H63.6992" stroke="#2B2A28" stroke-width="2" stroke-miterlimit="10"/>
<path d="M41.9238 19.5V27.3" stroke="#2B2A28" stroke-width="2" stroke-miterlimit="10"/>
<path d="M63.0488 19.5V27.3" stroke="#2B2A28" stroke-width="2" stroke-miterlimit="10"/>
<path d="M52.6504 19.5V27.625" stroke="#2B2A28" stroke-width="2" stroke-miterlimit="10"/>
<path d="M52.6496 46.1498C55.1625 46.1498 57.1996 44.1127 57.1996 41.5998C57.1996 39.0869 55.1625 37.0498 52.6496 37.0498C50.1367 37.0498 48.0996 39.0869 48.0996 41.5998C48.0996 44.1127 50.1367 46.1498 52.6496 46.1498Z" fill="#2B2A28"/>
</svg>
