<svg width="104" height="104" viewBox="0 0 104 104" fill="none" xmlns="http://www.w3.org/2000/svg">
<path d="M32.0733 12.0208L33.2412 8.58595C33.8594 6.73113 35.8516 5.63198 37.7752 6.11286L62.0252 12.0208H32.0733Z" fill="#F89B20"/>
<path d="M19.5017 66.9098L16.1356 78.657C15.6547 80.4431 16.4791 82.3666 18.1965 83.1223L19.5017 83.7405V66.9098Z" fill="#F89B20"/>
<path d="M45.8814 90.1981L70.9558 95.5565C72.742 95.9 74.4594 94.8008 74.8029 93.0147L75.6959 88.6868C75.6959 88.6868 75.5585 90.1981 72.4672 90.1981C69.3758 90.1981 45.9501 90.1981 45.9501 90.1981H45.8814Z" fill="#F89B20"/>
<path d="M76.0394 84.084V15.3183L83.6648 17.4479C84.8326 17.9974 85.9318 19.8523 85.4509 21.7071L82.4283 34.4847C81.3291 39.0874 81.1917 41.3544 82.7717 44.0336C84.2831 46.6441 84.764 49.0485 83.3213 54.3382C82.3596 57.9791 76.0394 84.084 76.0394 84.084Z" fill="#F89B20"/>
<path d="M76.0394 14.5626L89.1606 18.2036C91.8398 18.9592 93.4885 21.7071 92.8702 24.455L89.504 39.1562C89.2293 40.3927 88.611 41.4919 87.7866 42.4536L84.0083 46.5068L91.1528 25.8289C91.565 24.6611 91.0841 23.4245 89.9849 22.8063L89.5728 22.5315V22.3254C89.7101 21.3636 89.0919 20.4706 88.1988 20.1958L76.0394 16.6922C76.0394 16.6922 76.0394 15.4557 76.0394 15.1122C76.0394 14.6313 76.0394 14.4939 76.0394 14.4939V14.5626Z" fill="#F89B20"/>
<path d="M57.6973 90.1981H21.9748C20.6008 90.1981 19.433 89.0989 19.433 87.6563V14.9061C19.433 13.3261 20.7382 12.0208 22.3183 12.0208H73.1541C74.7341 12.0208 76.0394 13.3261 76.0394 14.9061V84.1527" stroke="#2B2A28" stroke-width="2" stroke-miterlimit="10"/>
<path d="M89.3667 22.7375L82.8405 43.278" stroke="#2B2A28" stroke-width="2" stroke-miterlimit="10"/>
<path d="M47.324 63.4062C54.7224 63.4062 60.72 57.4086 60.72 50.0103C60.72 42.6119 54.7224 36.6143 47.324 36.6143C39.9257 36.6143 33.9281 42.6119 33.9281 50.0103C33.9281 57.4086 39.9257 63.4062 47.324 63.4062Z" fill="#F89B20"/>
<path d="M42 51L45.4286 55L54 45" stroke="white" stroke-width="4" stroke-linecap="round" stroke-linejoin="round"/>
</svg>
