<svg width="104" height="104" viewBox="0 0 104 104" fill="none" xmlns="http://www.w3.org/2000/svg">
<path d="M90.4637 43.8025H13V57.42H90.4637V43.8025Z" fill="#F89B20"/>
<path d="M47.0437 14V20.1587C47.0437 21.9462 45.8412 23.5388 44.005 24.1888L34.6612 27.52C30.1925 29.1125 27.0075 32.7687 26.325 37.075L25.87 39.9187" stroke="#2B2A28" stroke-width="2" stroke-miterlimit="10" stroke-linecap="round" stroke-linejoin="round"/>
<path d="M25.4637 62.035L24.7975 90.1312" stroke="#2B2A28" stroke-width="2" stroke-miterlimit="10" stroke-linecap="round" stroke-linejoin="round"/>
<path d="M81.3638 61.6287L82.03 89.725" stroke="#2B2A28" stroke-width="2" stroke-miterlimit="10" stroke-linecap="round" stroke-linejoin="round"/>
<path d="M70.3173 64.8832C70.3478 64.0178 70.379 63.3116 70.4036 62.8055L72.647 62.6824L73.9731 89.5651L71.5963 89.4467C70.5367 84.413 70.2317 77.7577 70.2047 72.2087C70.1905 69.3093 70.2522 66.7337 70.3173 64.8832Z" fill="#2B2A28" stroke="#2B2A28" stroke-width="2" stroke-linejoin="round"/>
<path d="M58.2562 14.0488V20.2075C58.2562 21.995 59.5075 23.5875 61.4087 24.2375L71.11 27.5688C75.7575 29.1613 79.0562 32.8175 79.7712 37.1238L80.2425 39.9675" stroke="#2B2A28" stroke-width="2" stroke-miterlimit="10" stroke-linecap="round" stroke-linejoin="round"/>
<path d="M53.495 77.7325C53.495 77.7325 50.2125 81.535 54.1937 82.575" stroke="#2B2A28" stroke-width="2" stroke-miterlimit="10" stroke-linecap="round" stroke-linejoin="round"/>
<path d="M33.498 62.7474L35.7414 62.8705C35.766 63.3766 35.7972 64.0828 35.8277 64.9482C35.8929 66.7987 35.9545 69.3743 35.9403 72.2737C35.9133 77.8227 35.6084 84.478 34.5488 89.5117L32.172 89.6301L33.498 62.7474Z" fill="#2B2A28" stroke="#2B2A28" stroke-width="2" stroke-linejoin="round"/>
<path d="M16.25 43.7863H21.255" stroke="#2B2A28" stroke-width="2" stroke-miterlimit="10" stroke-linecap="round" stroke-linejoin="round"/>
<path d="M25.3824 43.7863H30.4037" stroke="#2B2A28" stroke-width="2" stroke-miterlimit="10" stroke-linecap="round" stroke-linejoin="round"/>
<path d="M35.1 43.7863H40.105" stroke="#2B2A28" stroke-width="2" stroke-miterlimit="10" stroke-linecap="round" stroke-linejoin="round"/>
<path d="M44.2325 43.7863H49.2538" stroke="#2B2A28" stroke-width="2" stroke-miterlimit="10" stroke-linecap="round" stroke-linejoin="round"/>
<path d="M53.9988 43.7863H59.0038" stroke="#2B2A28" stroke-width="2" stroke-miterlimit="10" stroke-linecap="round" stroke-linejoin="round"/>
<path d="M63.1475 43.7863H68.1525" stroke="#2B2A28" stroke-width="2" stroke-miterlimit="10" stroke-linecap="round" stroke-linejoin="round"/>
<path d="M72.8488 43.7863H77.8538" stroke="#2B2A28" stroke-width="2" stroke-miterlimit="10" stroke-linecap="round" stroke-linejoin="round"/>
<path d="M81.9812 43.7863H87.0025" stroke="#2B2A28" stroke-width="2" stroke-miterlimit="10" stroke-linecap="round" stroke-linejoin="round"/>
<path d="M16.25 57.42H21.255" stroke="#2B2A28" stroke-width="2" stroke-miterlimit="10" stroke-linecap="round" stroke-linejoin="round"/>
<path d="M25.3824 57.42H30.4037" stroke="#2B2A28" stroke-width="2" stroke-miterlimit="10" stroke-linecap="round" stroke-linejoin="round"/>
<path d="M35.1 57.42H40.105" stroke="#2B2A28" stroke-width="2" stroke-miterlimit="10" stroke-linecap="round" stroke-linejoin="round"/>
<path d="M44.2325 57.42H49.2538" stroke="#2B2A28" stroke-width="2" stroke-miterlimit="10" stroke-linecap="round" stroke-linejoin="round"/>
<path d="M53.9988 57.42H59.0038" stroke="#2B2A28" stroke-width="2" stroke-miterlimit="10" stroke-linecap="round" stroke-linejoin="round"/>
<path d="M63.1475 57.42H68.1525" stroke="#2B2A28" stroke-width="2" stroke-miterlimit="10" stroke-linecap="round" stroke-linejoin="round"/>
<path d="M72.8488 57.42H77.8538" stroke="#2B2A28" stroke-width="2" stroke-miterlimit="10" stroke-linecap="round" stroke-linejoin="round"/>
<path d="M81.9812 57.42H87.0025" stroke="#2B2A28" stroke-width="2" stroke-miterlimit="10" stroke-linecap="round" stroke-linejoin="round"/>
</svg>
