<svg width="104" height="104" viewBox="0 0 104 104" fill="none" xmlns="http://www.w3.org/2000/svg">
<path d="M29.5 42H14C11.2386 42 9 44.2386 9 47V69.8125C9 72.5739 11.2386 74.8125 14 74.8125H21.3959C21.6516 74.8125 21.8976 74.9105 22.0833 75.0863L29.8126 82.4027C30.45 83.0061 31.5 82.5542 31.5 81.6764V75.8125C31.5 75.2602 31.9477 74.8125 32.5 74.8125H49.1875C51.8454 74.8125 54 72.6579 54 70V70" stroke="black" stroke-width="2" stroke-linecap="round"/>
<path d="M90 20H39C36.2386 20 34 22.2386 34 25V60.3125C34 63.0739 36.2386 65.3125 39 65.3125H63.5C64.0523 65.3125 64.5 65.7602 64.5 66.3125V75.6465C64.5 76.5286 65.5591 76.9786 66.1942 76.3663L77.3663 65.5927C77.5527 65.4129 77.8015 65.3125 78.0605 65.3125H90C92.7614 65.3125 95 63.0739 95 60.3125V25C95 22.2386 92.7614 20 90 20Z" fill="#F89B20"/>
<circle cx="54" cy="44" r="3" fill="white"/>
<circle cx="65" cy="44" r="3" fill="white"/>
<circle cx="75" cy="44" r="3" fill="white"/>
<path d="M43 20H90C92.7614 20 95 22.2386 95 25V55" stroke="black" stroke-width="2" stroke-linecap="round"/>
</svg>
