<svg width="104" height="104" viewBox="0 0 104 104" fill="none" xmlns="http://www.w3.org/2000/svg">
<path d="M73.775 55.575L51.35 26.325L6.98751 57.2C6.66251 57.525 6.50001 58.0125 6.66251 58.3375C6.98751 58.9875 7.47501 59.9625 7.47501 61.2625C7.47501 62.5625 6.50001 63.7 6.01251 64.35C5.52501 65 5.68751 65.1625 6.01251 65.4875L19.9875 85.9625C20.3125 86.45 20.8 86.45 21.2875 86.125C22.1 85.6375 23.5625 84.9875 25.025 85.15C26.4875 85.3125 27.7875 86.2875 28.275 86.9375C28.7625 87.5875 29.0875 87.2625 29.4125 86.9375L73.9375 55.4125L73.775 55.575Z" fill="#F89B20"/>
<path d="M11.05 54.275L61.425 19.175C61.9125 18.85 62.4 18.85 62.8875 19.175C63.375 19.5 64.025 19.9875 64.8375 20.15C65.65 20.3125 66.625 20.15 67.1125 20.15C67.6 20.15 68.0875 20.15 68.4125 20.6375L84.3375 41.275C84.6625 41.7625 84.825 42.4125 84.3375 43.0625C83.85 43.875 83.525 45.5 84.3375 47.45C85.15 49.4 84.3375 48.2625 84.0125 48.425L29.4125 87.1" stroke="#2B2A28" stroke-width="2" stroke-miterlimit="10" stroke-linecap="round"/>
<path d="M57.6875 28.1125L62.725 24.2125C63.5375 23.725 64.5125 23.725 65.1625 24.5375L79.1375 42.0875C79.7875 42.9 79.625 43.875 78.8125 44.525L74.75 47.6125C73.9375 48.2625 72.9625 48.1 72.3125 47.2875L60.125 31.85" stroke="#2B2A28" stroke-width="2" stroke-miterlimit="10" stroke-linecap="round"/>
<path d="M64.3501 30.3875L73.2876 41.275" stroke="#2B2A28" stroke-width="2" stroke-miterlimit="10" stroke-linecap="round"/>
<path d="M43.6218 49.375C44.8978 48.7164 45.1313 46.6309 44.1434 44.7169C43.1555 42.8029 41.3203 41.7851 40.0443 42.4437C38.7683 43.1023 38.5347 45.1878 39.5226 47.1018C40.5105 49.0158 42.3458 50.0335 43.6218 49.375Z" fill="white"/>
<path d="M58.2636 50.7918C59.5396 50.1332 59.7732 48.0477 58.7853 46.1337C57.7974 44.2197 55.9621 43.202 54.6861 43.8606C53.4101 44.5192 53.1766 46.6047 54.1645 48.5187C55.1524 50.4327 56.9876 51.4504 58.2636 50.7918Z" fill="white"/>
<path d="M48.5375 37.2L50.325 55.725" stroke="white" stroke-width="2" stroke-miterlimit="10" stroke-linecap="round"/>
<path d="M52.6 62.0625L62.35 55.725" stroke="white" stroke-width="2" stroke-miterlimit="10" stroke-linecap="round"/>
<path d="M73.1251 18.525L91.8126 41.925C92.1376 42.4125 92.3001 43.0625 91.9751 43.7125C91.4876 44.6875 91.1626 46.15 91.9751 48.1C92.7876 50.05 91.9751 48.9125 91.6501 49.075L36.8876 88.4" stroke="#2B2A28" stroke-width="2" stroke-miterlimit="10" stroke-linecap="round"/>
<path d="M80.2751 19.6625L98.9626 43.0625C99.2876 43.55 99.4501 44.2 99.1251 44.85C98.6376 45.825 98.3126 47.2875 99.1251 49.2375C99.9376 51.1875 99.1251 50.05 98.8001 50.2125L44.0376 89.5375" stroke="#2B2A28" stroke-width="2" stroke-miterlimit="10" stroke-linecap="round"/>
<path d="M28.1406 75.0675C25.5701 76.8778 22.5728 76.5817 20.9974 74.3448C19.9609 72.8731 19.9755 71.1016 20.8676 69.5339C19.4581 69.6166 18.145 69.0443 17.2882 67.8277C15.9063 65.8655 16.5065 63.2999 18.7434 61.7245C20.9607 60.1629 23.5981 60.4483 24.9801 62.4105C25.8369 63.6271 25.9334 65.0562 25.361 66.3693C27.1572 66.0437 28.8301 66.6268 29.8665 68.0984C31.442 70.3353 30.6914 73.271 28.1406 75.0675ZM27.1732 73.694C28.8018 72.547 29.2525 70.6444 28.2575 69.2316C27.2211 67.7599 25.2779 67.5433 23.6493 68.6903C22.001 69.8512 21.5503 71.7537 22.5868 73.2254C23.5818 74.6382 25.525 74.8548 27.1732 73.694ZM22.6819 67.3168C23.977 66.4047 24.2969 64.8584 23.4263 63.6222C22.5695 62.4056 21.0058 62.186 19.7107 63.0981C18.3961 64.024 18.0761 65.5703 18.9329 66.7869C19.8035 68.023 21.3672 68.2427 22.6819 67.3168ZM39.1675 67.3014C36.3027 69.3191 32.4531 67.9793 29.6615 64.0157C26.87 60.052 26.9055 55.9761 29.7703 53.9585C32.6155 51.9546 36.4652 53.2944 39.2567 57.258C42.0482 61.2217 42.0127 65.2976 39.1675 67.3014ZM38.1449 65.8494C40.0286 64.5227 39.8312 61.4915 37.6477 58.3912C35.4642 55.2909 32.6767 54.0838 30.793 55.4105C28.8896 56.751 29.0871 59.7822 31.2706 62.8825C33.454 65.9828 36.2416 67.1899 38.1449 65.8494Z" fill="white"/>
</svg>
