<svg width="104" height="104" viewBox="0 0 104 104" fill="none" xmlns="http://www.w3.org/2000/svg">
<path d="M6.33752 11.5375V31.525L16.575 30.0625C16.575 30.0625 19.825 31.6875 23.8875 30.875C23.8875 30.875 32.3375 36.075 39 37.2125C45.6625 38.35 44.2 35.75 44.2 35.75C44.2 35.75 49.2375 36.8875 54.6 36.5625C54.6 36.5625 58.9875 35.5875 57.525 30.7125C57.2 29.4125 56.0625 26 56.0625 26C56.0625 26 67.6 35.2625 70.525 36.2375C73.45 37.2125 75.5625 33.9625 75.5625 33.9625L50.05 11.2125C48.2625 9.5875 45.9875 8.775 43.7125 9.1L19.3375 12.025C18.85 12.025 18.3625 12.025 17.875 12.025L6.33752 11.5375Z" fill="#F89B20"/>
<path d="M16.7375 30.0625C13.1625 27.95 13 23.725 13 23.725C13 23.725 11.375 28.6 6.66254 31.525L16.7375 30.0625Z" fill="#2B2A28"/>
<path d="M30.225 34.125C30.225 34.125 31.2 30.7125 33.9625 31.0375L37.8625 32.175C36.075 30.55 35.425 27.4625 35.425 27.4625C34.45 27.4625 33.3125 26.65 33.3125 26.65C30.875 29.7375 24.375 30.875 24.375 30.875C24.375 30.875 28.925 33.475 30.55 34.125H30.225Z" fill="#2B2A28"/>
<path d="M44.3625 35.75C44.3625 35.75 45.1751 35.1 45.5001 33.15C45.8251 31.2 43.55 21.45 43.55 21.45" stroke="#2B2A28" stroke-width="2" stroke-miterlimit="10" stroke-linecap="round" stroke-linejoin="round"/>
<path d="M49.725 22.2625C49.725 22.2625 51.1875 31.525 51.35 33.3125C51.5125 35.1 49.725 36.5625 49.725 36.5625" stroke="#2B2A28" stroke-width="2" stroke-miterlimit="10" stroke-linecap="round" stroke-linejoin="round"/>
<path d="M54.1125 20.15L56.225 26.1625C56.225 26.1625 66.3001 34.125 68.9001 35.5875C71.5001 37.05 72.8 37.5375 75.725 34.125" stroke="#2B2A28" stroke-width="2" stroke-miterlimit="10" stroke-linecap="round" stroke-linejoin="round"/>
<path d="M38.5125 15.1125C38.5125 15.1125 41.925 15.1125 42.25 18.85" stroke="white" stroke-width="2" stroke-miterlimit="10" stroke-linecap="round" stroke-linejoin="round"/>
<path d="M44.0375 13.1625C44.0375 13.1625 47.775 13.1625 48.2625 17.3875" stroke="white" stroke-width="2" stroke-miterlimit="10" stroke-linecap="round" stroke-linejoin="round"/>
<path d="M66.3 55.25V46.8C66.3 45.6625 67.1126 44.6875 68.2501 44.6875H74.75C75.8876 44.6875 76.8625 45.6625 76.8625 46.9625V55.0875" fill="#F89B20"/>
<path d="M84.5 60.6125H58.9875V80.7625H84.5V60.6125Z" fill="#F89B20"/>
<path d="M65.4875 93.4375C68.0902 93.4375 70.2 91.3276 70.2 88.725C70.2 86.1224 68.0902 84.0125 65.4875 84.0125C62.8849 84.0125 60.775 86.1224 60.775 88.725C60.775 91.3276 62.8849 93.4375 65.4875 93.4375Z" fill="#F89B20"/>
<path d="M77.675 93.275C80.2777 93.275 82.3875 91.1651 82.3875 88.5625C82.3875 85.9599 80.2777 83.85 77.675 83.85C75.0724 83.85 72.9625 85.9599 72.9625 88.5625C72.9625 91.1651 75.0724 93.275 77.675 93.275Z" fill="#F89B20"/>
<path d="M71.825 38.8375C71.825 38.675 71.5 38.675 71.3375 38.8375C70.525 40.1375 68.0875 44.85 68.0875 46.9625C68.0875 49.075 70.0375 50.05 71.6625 50.05C73.2875 50.05 74.75 48.75 74.9125 46.9625C74.9125 45.6625 72.475 40.4625 71.825 38.8375Z" fill="#2B2A28"/>
<path d="M66.4625 70.0375L70.2 74.2625C70.525 74.75 71.3375 74.5875 71.6625 74.2625L77.1875 66.625" stroke="#2B2A28" stroke-width="2" stroke-miterlimit="10" stroke-linecap="round" stroke-linejoin="round"/>
<path d="M84.9875 55.4125H58.175C56.8289 55.4125 55.7375 56.5038 55.7375 57.85V95.0625C55.7375 96.4087 56.8289 97.5 58.175 97.5H84.9875C86.3337 97.5 87.425 96.4087 87.425 95.0625V57.85C87.425 56.5038 86.3337 55.4125 84.9875 55.4125Z" stroke="#2B2A28" stroke-width="2" stroke-miterlimit="10"/>
<path d="M67.1126 90.8375V86.45L62.5626 88.725L67.1126 90.8375Z" fill="white"/>
<path d="M76.05 86.2875V90.675L80.6 88.5625L76.05 86.2875Z" fill="white"/>
</svg>
