<svg width="104" height="104" viewBox="0 0 104 104" fill="none" xmlns="http://www.w3.org/2000/svg">
<path d="M54.4375 91C73.1945 91 88.4 75.7945 88.4 57.0375C88.4 38.2805 73.1945 23.075 54.4375 23.075C35.6806 23.075 20.475 38.2805 20.475 57.0375C20.475 75.7945 35.6806 91 54.4375 91Z" fill="#F89B20"/>
<path d="M78.8125 42.575C88.0564 42.575 95.55 35.0814 95.55 25.8375C95.55 16.5936 88.0564 9.1 78.8125 9.1C69.5686 9.1 62.075 16.5936 62.075 25.8375C62.075 35.0814 69.5686 42.575 78.8125 42.575Z" fill="#2B2A28"/>
<path d="M73.9375 17.7125L76.05 19.175C76.8625 19.825 77.1875 20.9625 76.5375 21.9375L75.4 23.4C74.9125 24.05 75.075 25.1875 75.725 25.675L79.3 28.4375C80.1125 29.0875 81.4125 28.925 82.0625 27.95L83.0375 26.4875C83.525 25.675 84.6625 25.5125 85.475 26L87.5875 27.4625C88.5625 28.1125 88.725 29.4125 88.075 30.3875L86.45 32.6625C85.3125 34.2875 83.2 34.6125 81.575 33.475L70.6875 25.8375C68.9 24.5375 68.575 22.2625 69.7125 20.475L71.175 18.3625C71.6625 17.55 73.2557 17.0625 73.9057 17.7125L73.9375 17.7125Z" fill="white"/>
<path d="M12.35 31.525C14.145 31.525 15.6 30.0699 15.6 28.275C15.6 26.4801 14.145 25.025 12.35 25.025C10.5551 25.025 9.10004 26.4801 9.10004 28.275C9.10004 30.0699 10.5551 31.525 12.35 31.525Z" stroke="#2B2A28" stroke-width="2" stroke-miterlimit="10"/>
<path d="M32.6625 24.8625C34.4575 24.8625 35.9125 23.4074 35.9125 21.6125C35.9125 19.8176 34.4575 18.3625 32.6625 18.3625C30.8676 18.3625 29.4125 19.8176 29.4125 21.6125C29.4125 23.4074 30.8676 24.8625 32.6625 24.8625Z" stroke="#2B2A28" stroke-width="2" stroke-miterlimit="10"/>
<path d="M9.75002 30.55C9.75002 30.55 1.78752 36.5625 5.03752 44.525C8.28752 52.4875 14.1375 57.6875 14.1375 57.6875" stroke="#2B2A28" stroke-width="2" stroke-miterlimit="10" stroke-linecap="round"/>
<path d="M36.075 20.9625C36.075 20.9625 46.15 20.6375 48.5875 28.7625C50.2125 34.2875 49.8875 43.7125 49.8875 43.7125" stroke="#2B2A28" stroke-width="2" stroke-miterlimit="10" stroke-linecap="round"/>
<path d="M61.5875 55.7375C55.25 48.425 47.9375 47.2875 39.8125 49.8875L27.7875 53.95C19.0125 56.7125 13.1625 64.1875 15.7625 72.9625L19.0125 82.3875C20.6375 87.9125 26.4875 91 32.0125 89.375L32.825 89.05C38.1875 87.425 41.275 81.7375 39.8125 76.375L38.025 69.7125" stroke="#2B2A28" stroke-width="2" stroke-miterlimit="10" stroke-linecap="round"/>
<path d="M21.125 64.35C21.125 64.35 30.3875 72.3125 37.7 69.7125C45.0125 67.1125 48.5875 53.1375 48.5875 53.1375" stroke="#2B2A28" stroke-width="2" stroke-miterlimit="10" stroke-linecap="round"/>
<path d="M61.2626 70.525C59.8001 69.7125 53.7876 66.1375 56.5501 61.9125C59.3126 57.6875 62.4001 59.8 63.8626 61.1C64.2984 61.4874 64.5126 61.1 64.5126 60.9375C64.8376 59.15 67.1126 55.7375 70.6876 57.0375C74.2626 58.3375 73.2875 65 72.475 66.4625C71.6625 67.925 69.5501 71.6625 68.7376 72.9625C68.5344 73.2875 68.2501 73.2875 67.9251 73.2875C66.4626 72.8 62.4001 71.175 61.1001 70.525H61.2626Z" fill="white"/>
<path d="M65.975 69.225C67.77 69.225 69.225 67.7699 69.225 65.975C69.225 64.1801 67.77 62.725 65.975 62.725C64.1801 62.725 62.725 64.1801 62.725 65.975C62.725 67.7699 64.1801 69.225 65.975 69.225Z" fill="#2B2A28"/>
</svg>
