<svg width="104" height="104" viewBox="0 0 104 104" fill="none" xmlns="http://www.w3.org/2000/svg">
<path d="M26.3 20.8498V18.4598C26.3 17.6898 26.92 17.0698 27.69 17.0698H46.91C47.58 17.0698 48.12 17.6098 48.12 18.2798V23.7498C48.12 24.4198 47.58 24.9598 46.91 24.9598H26.22" stroke="#2B2A28" stroke-width="2" stroke-miterlimit="10" stroke-linecap="round"/>
<path d="M30.78 17V25.04" stroke="#2B2A28" stroke-width="2" stroke-miterlimit="10"/>
<path d="M35.22 17.23V25.26" stroke="#2B2A28" stroke-width="2" stroke-miterlimit="10"/>
<path d="M39.59 17.2898V25.3298" stroke="#2B2A28" stroke-width="2" stroke-miterlimit="10"/>
<path d="M43.84 17.0999V25.1399" stroke="#2B2A28" stroke-width="2" stroke-miterlimit="10"/>
<path d="M46.28 25.1699V27.4299C46.28 28.5699 46.91 29.6199 47.92 30.1499L49.34 30.8899C50.7 31.5999 51.55 33.0099 51.55 34.5499V43.3499" stroke="#2B2A28" stroke-width="2" stroke-miterlimit="10" stroke-linecap="round"/>
<path d="M28.34 25.2998V27.5598C28.34 28.6998 27.71 29.7498 26.7 30.2798L25.28 31.0198C23.92 31.7298 23.07 33.1398 23.07 34.6798V50.4498" stroke="#2B2A28" stroke-width="2" stroke-miterlimit="10" stroke-linecap="round"/>
<path d="M23 53.6599V61.4299C23 62.8899 24.18 64.0799 25.64 64.0799H50.14" stroke="#2B2A28" stroke-width="2" stroke-miterlimit="10" stroke-linecap="round"/>
<path d="M23.06 57.8398H45.95" stroke="#2B2A28" stroke-width="2" stroke-miterlimit="10" stroke-linecap="round"/>
<path d="M23.48 36.6199H41.16" stroke="#2B2A28" stroke-width="2" stroke-miterlimit="10" stroke-linecap="round"/>
<path d="M44.46 36.6799H51.07" stroke="#2B2A28" stroke-width="2" stroke-miterlimit="10" stroke-linecap="round"/>
<path d="M37.68 40.0698H37.38C36.3472 40.0698 35.51 40.9071 35.51 41.9398V52.4898C35.51 53.5226 36.3472 54.3598 37.38 54.3598H37.68C38.7128 54.3598 39.55 53.5226 39.55 52.4898V41.9398C39.55 40.9071 38.7128 40.0698 37.68 40.0698Z" fill="#2B2A28"/>
<path d="M44.63 47.39V47.09C44.63 46.0572 43.7928 45.22 42.76 45.22H32.21C31.1772 45.22 30.34 46.0572 30.34 47.09V47.39C30.34 48.4227 31.1772 49.26 32.21 49.26H42.76C43.7928 49.26 44.63 48.4227 44.63 47.39Z" fill="#2B2A28"/>
<path d="M84.3965 78.4675C84.3965 78.4675 82.4656 73.7781 76.3969 71.8472L72.2592 77.0883C70.6041 79.1571 70.6041 81.9156 72.673 83.5706L73.5005 84.2603C75.4315 85.9153 78.3279 85.6395 79.845 83.7086L84.3965 78.6054V78.4675Z" fill="#F89B20"/>
<path d="M71.9834 82.8811C70.7421 81.364 70.6041 78.8814 71.9834 77.2263C73.3626 75.5712 79.9829 67.2958 81.7759 64.9511C81.7759 64.9511 82.6035 63.9856 83.1552 63.7098C86.4653 61.7789 89.3617 64.3994 89.3617 64.3994C91.5685 66.4683 91.4306 69.2267 89.6376 71.9852C87.8446 74.7437 82.0518 80.9502 81.2242 82.0536" stroke="#2B2A28" stroke-width="2" stroke-miterlimit="10" stroke-linecap="round"/>
<path d="M85.0861 67.5716L75.8452 78.6054" stroke="#2B2A28" stroke-width="2" stroke-miterlimit="10" stroke-linecap="round"/>
<path d="M81.475 41.95C85.6033 41.95 88.95 38.6033 88.95 34.475C88.95 30.3467 85.6033 27 81.475 27C77.3467 27 74 30.3467 74 34.475C74 38.6033 77.3467 41.95 81.475 41.95Z" fill="#F89B20"/>
<path d="M84.4 41.3L80.5 31.0625" stroke="#2B2A28" stroke-width="2" stroke-miterlimit="10" stroke-linecap="round"/>
<path d="M74.8125 37.725C74.8125 37.725 76.6 41.7875 81.3125 41.7875C86.025 41.7875 89.4375 38.5375 88.7875 33.175" stroke="#2B2A28" stroke-width="2" stroke-miterlimit="10" stroke-linecap="round"/>
<path d="M85.3875 57.775C87.8106 57.775 89.775 55.8107 89.775 53.3875C89.775 50.9644 87.8106 49 85.3875 49C82.9643 49 81 50.9644 81 53.3875C81 55.8107 82.9643 57.775 85.3875 57.775Z" fill="#2B2A28"/>
<path d="M49.525 81.05C52.5764 81.05 55.05 78.5764 55.05 75.525C55.05 72.4736 52.5764 70 49.525 70C46.4736 70 44 72.4736 44 75.525C44 78.5764 46.4736 81.05 49.525 81.05Z" fill="#F89B20"/>
<path d="M48.225 73.25L52.45 80.075" stroke="#2B2A28" stroke-width="2" stroke-miterlimit="10" stroke-linecap="round"/>
<path d="M20.7118 66.2996C20.7118 66.2996 18.9243 71.1746 12.9118 73.6121L8.36184 68.7371C6.57434 66.9496 6.73684 63.8621 8.68684 62.0746L9.49934 61.2621C11.2868 59.4746 14.2118 59.6371 15.9993 61.4246L20.8743 66.4621L20.7118 66.2996Z" fill="#F89B20"/>
<path d="M8.03683 62.3994C6.73683 63.8619 6.57433 66.4619 8.03683 68.0869C9.49933 69.7119 19.5743 80.5994 19.5743 80.5994C23.4743 83.3619 26.7243 80.1119 26.7243 80.1119C28.8368 77.8369 28.8368 74.9119 26.7243 72.4744C24.6118 70.1994 17.2993 62.5619 17.2993 62.5619" stroke="#2B2A28" stroke-width="2" stroke-miterlimit="10" stroke-linecap="round"/>
<path d="M72.9765 48.0554L72.4209 47.5516C71.7151 46.9117 70.6242 46.9651 69.9843 47.6708L61.3191 57.2272C60.6791 57.933 60.7325 59.0239 61.4383 59.6638L61.9939 60.1676C62.6996 60.8075 63.7905 60.7542 64.4305 60.0484L73.0957 50.492C73.7356 49.7863 73.6822 48.6954 72.9765 48.0554Z" fill="#53DD8D"/>
<path d="M64.2299 60.0788L64.7602 59.5485C65.4338 58.8748 65.4338 57.7826 64.7602 57.109L59.5099 51.8587C58.8363 51.185 57.7441 51.185 57.0704 51.8587L56.5401 52.389C55.8664 53.0627 55.8664 54.1549 56.5401 54.8285L61.7903 60.0788C62.464 60.7525 63.5562 60.7525 64.2299 60.0788Z" fill="#53DD8D"/>
<path d="M70.0499 43.7803C70.0499 43.7803 65.6249 41.1553 61.0499 42.2803C56.4749 43.4053 51.9749 46.9303 51.1499 53.3053C50.3249 59.6803 53.1749 62.3803 53.1749 62.3803" stroke="#2B2A28" stroke-width="2" stroke-miterlimit="10" stroke-linecap="round"/>
<path d="M58.5749 66.7303C58.5749 66.7303 63.8249 69.5803 69.7499 66.1303C75.7499 62.7553 77.3249 55.9303 75.5999 50.6803" stroke="#2B2A28" stroke-width="2" stroke-miterlimit="10" stroke-linecap="round"/>
</svg>
