<svg width="104" height="104" viewBox="0 0 104 104" fill="none" xmlns="http://www.w3.org/2000/svg">
<path d="M31.3625 71.175C32.6625 69.3875 32.9875 66.95 32.5 64.8375L31.0375 59.9625C30.55 58.5 30.3875 56.875 30.55 55.25C30.875 51.675 31.3625 45.0125 29.9 41.275C29.9 40.95 29.9 40.4625 30.225 40.3C30.55 40.1375 31.525 39.8125 32.825 40.4625C35.1 41.6 36.4 50.05 36.4 50.05L37.7 37.8625C37.7 36.725 38.025 35.75 38.5125 34.775L40.4625 28.6C40.95 27.4625 42.0875 26.8125 43.225 26.975C44.3625 27.1375 47.2875 27.3 49.4 28.1125C53.3 29.4125 57.0375 35.425 57.85 37.8625C58.6625 40.3 55.9 46.15 55.7375 50.05C55.575 54.1125 56.3875 58.3375 54.925 63.375C53.4625 68.25 48.2625 73.2875 48.2625 73.2875L40.95 97.9875H13.4875L31.3625 71.6625V71.175Z" fill="#F89B20"/>
<path d="M55.9 27.4625C55.9 27.4625 59.6375 27.4625 63.05 30.225C66.4625 32.9875 65.325 32.5 64.8375 33.9625C64.025 37.375 62.5625 43.7125 62.5625 48.75C62.5625 49.725 63.5375 51.35 64.5125 49.8875C65.4875 48.425 68.4125 40.4625 73.2875 42.575C74.5 43.5 73.9375 43.3875 73.6125 43.875C72.3125 45.3375 69.3875 48.75 69.225 52C69.0625 55.25 67.4375 63.2125 64.5125 66.7875" stroke="#2B2A28" stroke-width="2" stroke-miterlimit="10" stroke-linecap="round"/>
<path d="M64.025 71.0125C64.025 71.0125 69.55 85.475 84.5 94.25" stroke="#2B2A28" stroke-width="2" stroke-miterlimit="10" stroke-linecap="round"/>
<path d="M52.1625 76.05L60.2875 97.6625" stroke="#2B2A28" stroke-width="2" stroke-miterlimit="10" stroke-linecap="round"/>
<path d="M40.95 97.5L48.2625 72.8C48.2625 72.8 53.7875 67.7625 55.0875 62.075C56.3875 56.3875 55.25 52.1625 55.575 49.075C55.9 45.9875 58.3375 39.8125 57.6875 37.375" stroke="#2B2A28" stroke-width="2" stroke-miterlimit="10" stroke-linecap="round"/>
<path d="M32.825 40.3C32.825 40.3 34.9375 40.95 36.4 49.8875C36.4 49.8875 35.425 51.5125 35.1 53.3" stroke="#2B2A28" stroke-width="2" stroke-miterlimit="10" stroke-linecap="round"/>
<path d="M41.1125 37.7C41.1125 37.7 47.9375 40.7875 51.025 44.0375" stroke="#2B2A28" stroke-width="2" stroke-miterlimit="10" stroke-linecap="round"/>
<path d="M22.2625 93.6L33.475 74.425" stroke="white" stroke-width="2" stroke-miterlimit="10"/>
<path d="M72.6375 32.6625C72.3125 32.6625 71.9875 32.3375 72.3125 32.175C73.6125 30.55 76.5375 27.3 79.95 27.4625C83.3625 27.625 83.6875 31.525 80.275 31.0375C76.8625 30.55 74.5875 32.0125 72.8 32.6625H72.6375Z" fill="#2B2A28"/>
<path d="M78.325 47.9375C78.325 47.9375 83.6875 45.9875 91.325 48.1" stroke="#2B2A28" stroke-width="2" stroke-miterlimit="10" stroke-linecap="round"/>
<path d="M78.8125 74.5875C78.8125 74.5875 78.65 68.7375 75.8875 65.1625C73.125 61.5875 75.8875 64.8375 76.05 65C77.5125 65.8125 80.925 67.925 82.3875 69.875" stroke="#2B2A28" stroke-width="2" stroke-miterlimit="10" stroke-linecap="round"/>
<path d="M77.025 60.45C76.7 60.45 76.7 59.8 77.025 59.8C79.1375 59.3125 83.3625 58.825 85.8 61.1C88.2375 63.375 85.9625 66.625 83.6875 64.025C81.4125 61.425 78.8125 61.1 76.8625 60.45H77.025Z" fill="#2B2A28"/>
<path d="M59.8 20.3125C59.8 18.3625 59.9625 13.65 63.2125 12.025C66.4625 10.4 66.1375 12.35 65.4875 14.3C64.8375 16.25 63.375 15.1125 60.125 20.3125C60.125 20.475 59.6375 20.3125 59.6375 20.3125H59.8Z" fill="#2B2A28"/>
<path d="M49.5625 21.775C49.5625 21.775 46.3125 8.6125 50.05 6.6625C53.625 4.875 52 14.1375 49.5625 21.775Z" fill="#2B2A28"/>
<path d="M26.65 15.275C25.35 17.7125 30.7125 20.8 33.15 25.1875C35.5875 29.575 33.475 25.1875 33.475 25.1875C33.15 23.2375 32.3375 18.525 30.875 16.7375C29.9 15.4375 27.625 13.4875 26.65 15.275Z" fill="#2B2A28"/>
<path d="M24.375 26.1625C24.375 26.1625 28.1125 27.3 29.25 29.25" stroke="#2B2A28" stroke-width="2" stroke-miterlimit="10" stroke-linecap="round"/>
<path d="M35.2625 11.8625C35.2625 11.8625 37.05 16.7375 37.8625 20.3125" stroke="#2B2A28" stroke-width="2" stroke-miterlimit="10" stroke-linecap="round"/>
<path d="M9.75 66.3C9.75 66.3 13.65 62.5625 15.925 61.425C19.175 59.8 22.425 58.825 22.425 58.825" stroke="#2B2A28" stroke-width="2" stroke-miterlimit="10" stroke-linecap="round"/>
<path d="M13.65 54.6C13.65 54.6 19.0125 52.1625 23.4 52.975C27.7875 53.7875 23.5625 52.975 23.4 52.8125C22.1 51.8375 18.6875 49.725 16.25 49.4" stroke="#2B2A28" stroke-width="2" stroke-miterlimit="10" stroke-linecap="round"/>
<path d="M20.6375 66.95C20.6375 66.95 22.2625 63.5375 24.5375 62.5625" stroke="#2B2A28" stroke-width="2" stroke-miterlimit="10" stroke-linecap="round"/>
</svg>
