<svg width="104" height="104" viewBox="0 0 104 104" fill="none" xmlns="http://www.w3.org/2000/svg">
<path d="M38.5097 49.6297C34.5189 46.8443 18.3838 34.5284 28.2364 22.98C35.6579 14.3314 46.3016 19.3755 49.7697 23.5612C50.2491 24.1625 51.52 23.8924 51.7508 23.1401C53.5241 17.8797 61.2208 9.05548 71.3706 14.1654C84.9287 20.9733 75.342 37.8176 72.73 41.8889C70.5596 45.2803 62.3461 56.6366 59.5108 60.2083C58.9571 60.912 57.9852 61.1186 57.1932 60.7008C53.0518 58.4945 41.8049 51.8987 38.5018 49.5923L38.5097 49.6297Z" fill="#F89B20"/>
<path d="M33.4626 34.5013C33.4626 34.5013 31.1458 26.3668 39.224 25.6304" stroke="white" stroke-width="2" stroke-miterlimit="10" stroke-linecap="round"/>
<path d="M77.4215 29.1995C74.5256 38.6378 68.8158 48.6741 61.0307 58.171L58.4999 61C58.6016 61.3049 58.7089 61.6388 58.8208 62C60.7286 68.1543 63.9999 82.2649 63.9999 97" stroke="#2B2A28" stroke-width="2" stroke-miterlimit="10" stroke-linecap="round"/>
<path d="M52.9999 60C49.8333 59 43.6999 58.4 44.4999 64C45.2999 69.6 52.1666 65.6667 55.4999 63" stroke="#2B2A28" stroke-width="2" stroke-linecap="round"/>
<path d="M64.9999 58.0709C66.9999 56.2375 72.2999 54.0324 73.4999 59.2324C74.6999 64.4324 66.9999 63.3991 62.9999 62.2324" stroke="#2B2A28" stroke-width="2" stroke-linecap="round"/>
<path d="M62.4999 65.0709C64.9999 66.9042 70.1999 71.7709 70.9999 76.5709" stroke="#2B2A28" stroke-width="2" stroke-linecap="round"/>
<path d="M56.9999 66.0709C55.3333 67.4042 51.9999 70.7709 51.9999 73.5709" stroke="#2B2A28" stroke-width="2" stroke-linecap="round"/>
</svg>
