<svg width="104" height="104" viewBox="0 0 104 104" fill="none" xmlns="http://www.w3.org/2000/svg">
<path d="M56.4416 19.4783C56.4416 22.5767 53.9282 25.0683 50.8516 25.0683V13.8667C53.9499 13.8667 56.4416 16.38 56.4416 19.4567V19.4783Z" fill="#F89B20"/>
<path d="M13.2816 20.345C13.2816 23.4433 15.795 25.935 18.8716 25.935V14.7333C15.7733 14.7333 13.2816 17.2467 13.2816 20.3233V20.345Z" fill="#F89B20"/>
<path d="M90.61 81.0333C96.4615 81.0333 101.205 76.2898 101.205 70.4383C101.205 64.5869 96.4615 59.8433 90.61 59.8433C84.7586 59.8433 80.015 64.5869 80.015 70.4383C80.015 76.2898 84.7586 81.0333 90.61 81.0333Z" fill="#F89B20"/>
<path d="M91.7328 75.1365C94.2127 74.548 95.7527 72.0889 95.1725 69.6439C94.5923 67.1989 92.1116 65.6939 89.6316 66.2824C87.1517 66.871 85.6117 69.3301 86.1919 71.7751C86.7722 74.2201 89.2529 75.725 91.7328 75.1365Z" stroke="white" stroke-width="2" stroke-miterlimit="10"/>
<path d="M56.2033 19.4783C59.1933 19.4783 61.5766 22.035 61.3383 25.025L59.9733 46.8433C59.3233 55.2067 57.6333 60.515 48.0133 67.4267L39.8016 72.6267C36.9416 74.7283 33.085 74.88 30.0516 73.0383L21.1683 67.6C12.8266 62.4867 9.40329 53.6033 8.99163 43.8317L8.40663 25.5883C8.27663 22.7283 10.5733 20.345 13.455 20.345" stroke="#2B2A28" stroke-width="2" stroke-miterlimit="10"/>
<path d="M34.8182 75.14V84.7383C34.8182 90.545 39.5416 95.2683 45.3482 95.2683L57.9582 95.3983C65.2816 95.2033 70.1999 90.3933 69.9182 80.795L73.1032 27.2783C73.3849 22.62 77.2199 18.98 81.8999 18.98C86.7532 18.98 90.6966 22.9233 90.6966 27.7767V57.4167" stroke="#2B2A28" stroke-width="2" stroke-miterlimit="10"/>
<path d="M34.8875 51.775C40.9005 51.775 45.775 46.9005 45.775 40.8875C45.775 34.8745 40.9005 30 34.8875 30C28.8745 30 24 34.8745 24 40.8875C24 46.9005 28.8745 51.775 34.8875 51.775Z" fill="#2B2A28"/>
<path d="M34 36C33.4477 36 33 36.4477 33 37V39H31C30.4477 39 30 39.4477 30 40V42C30 42.5523 30.4477 43 31 43H33V45C33 45.5523 33.4477 46 34 46H36C36.5523 46 37 45.5523 37 45V43H39C39.5523 43 40 42.5523 40 42V40C40 39.4477 39.5523 39 39 39H37V37C37 36.4477 36.5523 36 36 36H34Z" fill="white"/>
</svg>
