<svg width="104" height="104" viewBox="0 0 104 104" fill="none" xmlns="http://www.w3.org/2000/svg">
<path d="M53.95 31.85C53.95 34.8833 51.35 37.4833 48.3167 37.4833V26.2167C51.35 26.2167 53.95 28.8167 53.95 31.85Z" fill="#F89B20"/>
<path d="M11.2667 32.7167C11.2667 35.75 13.8667 38.35 16.9 38.35V27.0833C13.8667 27.0833 11.2667 29.6833 11.2667 32.7167Z" fill="#F89B20"/>
<path d="M87.75 84.7167C93.6134 84.7167 98.3667 79.9634 98.3667 74.1C98.3667 68.2366 93.6134 63.4833 87.75 63.4833C81.8866 63.4833 77.1333 68.2366 77.1333 74.1C77.1333 79.9634 81.8866 84.7167 87.75 84.7167Z" fill="#F89B20"/>
<path d="M88.9049 78.7004C91.3494 78.118 92.859 75.6643 92.2766 73.2198C91.6943 70.7753 89.2405 69.2658 86.796 69.8481C84.3515 70.4305 82.842 72.8842 83.4244 75.3287C84.0067 77.7732 86.4605 79.2827 88.9049 78.7004Z" stroke="white" stroke-width="2" stroke-miterlimit="10"/>
<path d="M18.85 62.4H46.8C47.6667 62.4 48.5333 61.75 48.3167 60.8833V9.31667C48.3167 8.45 47.6667 7.8 46.8 7.8H18.85C17.9833 7.8 17.3333 8.23334 17.3333 9.31667V60.8833C17.3333 61.75 17.9833 62.6167 18.85 62.6167V62.4Z" stroke="#2B2A28" stroke-width="2" stroke-miterlimit="10"/>
<path d="M32.7167 58.0667C33.5543 58.0667 34.2333 57.3876 34.2333 56.55C34.2333 55.7124 33.5543 55.0333 32.7167 55.0333C31.879 55.0333 31.2 55.7124 31.2 56.55C31.2 57.3876 31.879 58.0667 32.7167 58.0667Z" fill="#2B2A28"/>
<path d="M23.4 39.4333L40.95 39.2167" stroke="#2B2A28" stroke-width="2" stroke-miterlimit="10" stroke-linecap="round"/>
<path d="M23.6167 45.7167H33.5833" stroke="#2B2A28" stroke-width="2" stroke-miterlimit="10" stroke-linecap="round"/>
<path d="M28.1667 17.55H23.8333V32.7167H28.1667V17.55Z" fill="#F89B20"/>
<path d="M34.6667 21.45H30.3333V32.5H34.6667V21.45Z" fill="#F89B20"/>
<path d="M41.3833 26H37.05V32.5H41.3833V26Z" fill="#F89B20"/>
<path d="M53.95 31.85C56.9833 31.85 59.3667 34.45 59.15 37.4833L57.85 55.0333C57.2 63.4833 55.4667 68.6833 45.9333 75.6167L37.7 80.8167C34.8833 82.9833 30.9833 82.9833 27.95 81.25L19.0667 75.8333C10.6167 70.6333 7.36667 61.75 6.93333 52L6.28333 38.1333C6.28333 35.3167 8.45 32.9333 11.2667 32.9333" stroke="#2B2A28" stroke-width="2" stroke-miterlimit="10"/>
<path d="M32.0667 83.2V88.4C32.0667 94.25 36.8333 99.0167 42.6833 99.0167H55.25C62.6167 99.0167 67.3833 94.25 67.1667 84.5L70.4167 26.65C70.6333 22.1 74.5333 18.4167 79.3 18.4167H80.8167C84.7167 18.4167 87.9667 21.6667 87.9667 25.5667V61.1" stroke="#2B2A28" stroke-width="2" stroke-miterlimit="10" stroke-linecap="round"/>
</svg>
