<svg width="104" height="104" viewBox="0 0 104 104" fill="none" xmlns="http://www.w3.org/2000/svg">
<path d="M59.9861 82.7348L66.8527 87.6178C68.226 88.5333 68.989 89.9067 69.2942 91.5852L69.752 95.4L94.3193 94.9422L90.5045 82.7348C89.8941 80.9037 89.8941 79.0726 90.0467 77.2415L92.0304 63.203C92.6408 58.7779 91.7252 54.2001 89.2838 50.3853L80.8912 37.2624C79.823 35.4313 78.9075 33.6002 78.2971 31.4639L76.7712 25.6654C76.466 24.9024 75.7031 24.292 74.7875 24.5972C73.4142 24.9024 71.7357 25.818 70.9727 27.8017C69.2942 32.6846 71.4305 37.5676 73.5668 41.535C74.6349 43.3661 75.5505 45.1972 76.3134 46.7231C77.0764 48.249 74.3297 47.6386 72.8038 47.486L78.6023 73.4267C79.0601 75.1052 77.9919 78.7674 74.6349 79.683L59.6809 82.7348H59.9861Z" fill="#F89B20"/>
<path d="M35.5 68L26.1106 20.3247C25.5002 17.4254 27.4839 14.5261 30.3832 13.9158L58.6127 8.11728C61.512 7.50691 64.4112 9.33802 65.0216 12.2373L78.7549 73.1215C79.3653 76.1734 78.0518 78.8896 75 79.5L74.6349 79.683L44.5743 85.9393C41.5224 86.5496 38.6232 84.566 38.1654 81.6667L36.5 73.1215" stroke="#2B2A28" stroke-width="2" stroke-miterlimit="10" stroke-linecap="round"/>
<path d="M73.7194 69.6119L41.3698 76.6312" stroke="#2B2A28" stroke-width="2" stroke-miterlimit="10" stroke-linecap="round"/>
<path d="M58.6127 79.683C59.7083 79.683 60.5964 78.7949 60.5964 77.6993C60.5964 76.6037 59.7083 75.7156 58.6127 75.7156C57.5172 75.7156 56.629 76.6037 56.629 77.6993C56.629 78.7949 57.5172 79.683 58.6127 79.683Z" fill="#2B2A28"/>
<path d="M63.8009 27.6491L60.2913 13.458L32.0618 19.5617" stroke="#2B2A28" stroke-width="2" stroke-miterlimit="10" stroke-linecap="round" stroke-linejoin="round"/>
<path d="M88.6734 49.6224L80.1283 36.0417" stroke="#2B2A28" stroke-width="2" stroke-miterlimit="10" stroke-linecap="round"/>
<path d="M90.1994 77.3941L92.0305 63.966C92.7934 59.846 92.0305 54.9631 89.7416 51.3009" stroke="#2B2A28" stroke-width="2" stroke-miterlimit="10" stroke-linecap="round"/>
<path d="M48.3208 48.895C47.6078 49.0481 47.0867 48.7584 46.9884 48.0336C45.9282 41.4916 52.9632 38.7192 51.8918 33.7286C51.4561 31.6994 49.7123 30.5248 47.5735 30.984C45.2153 31.4902 44.0955 33.2222 44.3824 35.6275C44.4806 36.3523 44.234 36.8068 43.521 36.9599L38.3659 38.0666C37.7078 38.2079 37.1318 37.9299 36.9787 37.217C35.762 31.2823 39.5365 25.8824 46.5015 24.3871C53.1922 22.9507 58.3802 25.7381 59.5458 31.1674C61.1941 38.8453 54.5117 41.6568 54.5136 46.4755C54.557 47.212 54.2437 47.6235 53.5856 47.7647L48.3208 48.895ZM54.0336 61.6094C51.1818 62.2217 48.5838 60.542 47.9597 57.6354C47.3593 54.8384 49.039 52.2404 51.8907 51.6282C54.7425 51.0159 57.3406 52.6956 57.9528 55.5474C58.565 58.3992 56.8854 60.9972 54.0336 61.6094Z" fill="#F89B20"/>
</svg>
