<svg width="104" height="104" viewBox="0 0 104 104" fill="none" xmlns="http://www.w3.org/2000/svg">
<g clip-path="url(#clip0_21708_195)">
<path d="M10.4326 48.7337H95.0301V63.2775C95.0301 63.2775 86.5313 70.2162 79.5926 63.2775C79.5926 63.2775 73.1088 70.8825 65.4876 63.2775C65.4876 63.2775 58.7763 70.2162 51.8376 63.2775C51.8376 63.2775 45.2401 70.9962 37.5213 63.2775C37.5213 63.2775 31.5901 70.7687 24.0988 63.2775C24.0988 63.2775 17.3876 70.4437 10.2213 63.2775L10.4488 48.7337H10.4326Z" fill="#FA9F1B"/>
<path d="M66.885 14.7388L75.4813 23.335L75.725 23.0913C77.0738 21.7425 77.0738 19.5488 75.725 18.1838L71.7275 14.1863C70.5575 13.0163 68.6888 13.0163 67.5025 14.1538L66.9013 14.7388H66.885Z" fill="#FA9F1B"/>
<path d="M13.1625 73.71C13.1625 73.71 20.085 83.6875 29.77 73.97C29.77 73.97 35.88 82.1762 44.2487 73.71C44.2487 73.71 51.1712 83.6875 60.8562 73.97C60.8562 73.97 68.445 83.655 75.205 73.2062C75.205 73.2062 82.1275 83.1837 91.8125 73.4662" stroke="#1D1C1B" stroke-width="2" stroke-miterlimit="10" stroke-linecap="round"/>
<path d="M-2.45379 128.278C-2.45379 128.278 1.57621 123.809 -3.34754 118.43C-8.27129 113.051 -8.27129 106.34 -4.01379 101.189" stroke="#1D1C1B" stroke-width="1.95" stroke-miterlimit="10" stroke-linecap="round"/>
<path d="M88.0911 55.0225V16.9812C88.0911 11.5862 81.6236 8.82375 77.7236 12.545L73.8398 16.25" stroke="#1D1C1B" stroke-width="2" stroke-miterlimit="10" stroke-linecap="round"/>
<path d="M68.9162 21.6125L59.6537 31.1512" stroke="#1D1C1B" stroke-width="2" stroke-miterlimit="10" stroke-linecap="round"/>
<path d="M66.4949 18.5087L57.9636 23.3187" stroke="#1D1C1B" stroke-width="2" stroke-miterlimit="10" stroke-linecap="round"/>
<path d="M71.6462 23.7412L67.7625 32.7275" stroke="#1D1C1B" stroke-width="2" stroke-miterlimit="10" stroke-linecap="round"/>
<path d="M40.105 48.7013C40.105 48.7013 22.5712 48.75 16.7212 48.75C12.0575 48.75 13 42.0388 17.16 42.0388H37.6837" stroke="#1D1C1B" stroke-width="2" stroke-miterlimit="10" stroke-linecap="round"/>
<path d="M18.3787 34.515H43.7774C46.5562 34.515 48.6687 31.7363 48.6687 28.5838C48.6687 25.4313 46.5074 22.7663 44.6549 22.7663C42.8024 22.7663 18.5737 22.6038 18.5737 22.6038" stroke="#1D1C1B" stroke-width="2" stroke-miterlimit="10" stroke-linecap="round"/>
<path d="M42.2336 28.535H17.8586C14.7711 28.535 12.5611 31.07 12.7561 34.1575C12.9186 36.6763 14.9986 38.8213 14.9986 38.8213" stroke="#1D1C1B" stroke-width="2" stroke-miterlimit="10" stroke-linecap="round"/>
<path d="M14.3161 26.1625C12.0411 24.1475 11.0661 16.7375 17.3549 16.7375C21.3686 16.7375 41.7786 16.4287 45.4998 16.4287C49.2211 16.4287 48.9448 20.085 48.1811 21.0112" stroke="#1D1C1B" stroke-width="2" stroke-miterlimit="10" stroke-linecap="round"/>
<path d="M54.9412 48.6688C54.9412 48.6688 52.9099 45.63 52.3412 41.665C51.6749 37.0338 58.3212 37.3913 57.7524 41.3725C57.1837 45.3538 54.9412 48.6525 54.9412 48.6525V48.6688Z" fill="#1D1C1B"/>
<path d="M54.8761 48.6525C54.8761 48.6525 56.6961 45.5 60.0111 43.225C63.8623 40.5762 66.4949 46.7025 62.6599 47.9537C58.8249 49.205 54.8761 48.6525 54.8761 48.6525Z" fill="#1D1C1B"/>
<path d="M54.9737 48.685C54.9737 48.685 53.1537 45.5325 49.8387 43.2575C45.9875 40.6087 43.355 46.735 47.19 47.9862C51.025 49.2375 54.9737 48.685 54.9737 48.685Z" fill="#1D1C1B"/>
<path d="M55.0224 48.49C55.0224 48.49 51.5611 49.6438 48.6849 52.4388C45.3211 55.6888 50.8136 59.4913 52.7961 55.9813C54.7786 52.4713 55.0224 48.49 55.0224 48.49Z" fill="#1D1C1B"/>
<path d="M54.8599 48.5062C54.8599 48.5062 58.3211 49.66 61.1974 52.455C64.5611 55.705 59.0686 59.5075 57.0861 55.9975C55.1036 52.4875 54.8599 48.5062 54.8599 48.5062Z" fill="#1D1C1B"/>
<path d="M20.7673 87.2137C20.7673 87.2137 26.3898 95.3225 34.2711 87.425C34.2711 87.425 39.2436 94.1037 46.0361 87.2137C46.0361 87.2137 51.6586 95.3225 59.5398 87.425C59.5398 87.425 65.6986 95.3062 71.1911 86.8075C71.1911 86.8075 76.8136 94.9162 84.6948 87.0187" stroke="#1D1C1B" stroke-width="2" stroke-miterlimit="10" stroke-linecap="round"/>
</g>
<defs>
<clipPath id="clip0_21708_195">
<rect width="104" height="104" fill="white"/>
</clipPath>
</defs>
</svg>
