<svg width="104" height="104" viewBox="0 0 104 104" fill="none" xmlns="http://www.w3.org/2000/svg">
<path d="M51.529 32.6138H39.244V90.22H51.529V32.6138Z" fill="#F89B20"/>
<path d="M24.4077 32.5813H36.4002C36.4002 32.5813 32.1589 30.7938 28.4377 29.12C25.2852 27.7225 23.4814 26.0325 22.8802 24.4725C22.5064 23.5138 22.6852 22.49 23.1239 21.645C23.8877 20.1663 25.5289 19.24 27.7714 19.3538C31.2489 19.5488 40.4302 22.4738 43.8752 32.5975H48.2139C48.2139 32.5975 48.8639 29.6563 50.7327 26.4388C52.6014 23.2213 55.5752 19.9713 60.6939 19.2075C64.9189 18.5738 67.7464 20.6538 68.1039 22.6038C68.4939 24.7325 66.3327 26.4713 64.6914 27.82C61.9127 30.1113 55.5427 32.5975 55.5427 32.5975H65.7152C65.7152 32.5975 70.7527 31.005 72.8814 27.4625C73.3689 26.65 73.8564 25.8375 74.1327 24.7488C74.8152 22.1163 74.5389 18.7688 72.1989 16.0388C68.9489 12.2688 64.3827 12.1875 60.2064 12.7563C54.2589 13.5688 48.2627 19.7113 45.4677 26.4225C45.4677 26.4225 42.2014 20.1013 37.7327 16.4938C36.5789 15.5675 34.4014 13.8288 31.3789 12.9838C28.3564 12.1388 23.9852 12.025 20.5239 14.3C15.4214 17.6475 15.8602 22.8638 16.9489 25.6913C18.7852 30.4525 24.4239 32.565 24.4239 32.565L24.4077 32.5813Z" fill="#F89B20"/>
<path d="M15.6488 47.84V90.35H56.5663" stroke="#2B2A28" stroke-width="2" stroke-miterlimit="10" stroke-linecap="round"/>
<path d="M74.9613 48.3275V52" stroke="#2B2A28" stroke-width="2" stroke-miterlimit="10" stroke-linecap="round"/>
<path d="M39.2113 42.2825V89.7162" stroke="#2B2A28" stroke-width="2" stroke-miterlimit="10" stroke-linecap="round"/>
<path d="M51.545 32.5162V83.2812" stroke="#2B2A28" stroke-width="2" stroke-miterlimit="10" stroke-linecap="round"/>
<path d="M39.2601 37.9112V32.5162" stroke="#2B2A28" stroke-width="2" stroke-miterlimit="10" stroke-linecap="round"/>
<path d="M39.0001 47.4662H13.6013C12.8538 47.4662 12.2526 46.865 12.2526 46.1175V33.9462C12.2526 33.1987 12.8538 32.5975 13.6013 32.5975H77.2851C78.0326 32.5975 78.6338 33.1987 78.6338 33.9462V46.3287C78.6338 47.0762 78.0326 47.6775 77.2851 47.6775H52.0976" stroke="#2B2A28" stroke-width="2" stroke-miterlimit="10" stroke-linecap="round"/>
<path d="M65.8776 32.5325C65.8776 32.5325 74.9288 29.8675 74.3926 21.5637C74.0351 16.055 69.1763 10.92 59.4913 12.935C50.0663 14.9012 45.4351 26.455 45.4351 26.455C45.4351 26.455 39.6988 14.495 30.1113 12.7237C22.0188 11.2287 16.7051 16.0225 16.2663 21.0275C15.8276 26.0325 18.7201 30.0787 24.2451 32.5325" stroke="#2B2A28" stroke-width="2" stroke-miterlimit="10" stroke-linecap="round"/>
<path d="M49.4651 28.9087C49.4651 28.9087 51.8376 23.1887 56.0951 20.8162C63.4401 16.705 70.4601 20.8162 67.3726 25.1875C64.2851 29.5587 55.4451 32.6462 55.4451 32.6462" stroke="#2B2A28" stroke-width="2" stroke-miterlimit="10" stroke-linecap="round"/>
<path d="M43.8426 32.5325C43.8426 32.5325 42.1363 26.9912 37.4563 23.3837C32.7763 19.7762 25.6426 17.5337 23.3026 21.3687C20.9626 25.2037 26.0651 28.1775 28.4376 29.1525" stroke="#2B2A28" stroke-width="2" stroke-miterlimit="10" stroke-linecap="round"/>
<path d="M74.7502 94.9162C85.6543 94.9162 94.4939 86.0766 94.4939 75.1725C94.4939 64.2683 85.6543 55.4287 74.7502 55.4287C63.846 55.4287 55.0064 64.2683 55.0064 75.1725C55.0064 86.0766 63.846 94.9162 74.7502 94.9162Z" fill="#F89B20"/>
<path d="M82.1437 67.9413C76.6349 63.1638 67.3237 65.845 67.5837 75.6438C67.8437 85.605 79.5275 86.125 82.2737 81.6238" stroke="white" stroke-width="2" stroke-miterlimit="10" stroke-linecap="round"/>
<path d="M62.075 72.865H76.115" stroke="white" stroke-width="2" stroke-miterlimit="10" stroke-linecap="round"/>
<path d="M62.0099 77.9188H76.0499" stroke="white" stroke-width="2" stroke-miterlimit="10" stroke-linecap="round"/>
<path d="M86.515 59.3288C86.515 59.3288 96.915 66.5275 94.0225 79.5763C92.9012 84.5975 90.3175 87.7988 87.75 90.0738C81.9 95.2738 74.7662 94.9325 74.7662 94.9325" stroke="#2B2A28" stroke-width="2" stroke-miterlimit="10" stroke-linecap="round"/>
</svg>
