<svg width="104" height="104" viewBox="0 0 104 104" fill="none" xmlns="http://www.w3.org/2000/svg">
<path d="M54.0288 29.6138H41.7438V87.22H54.0288V29.6138Z" fill="#F89B20"/>
<path d="M26.9075 29.5813H38.9C38.9 29.5813 34.6588 27.7938 30.9375 26.12C27.785 24.7225 25.9813 23.0325 25.38 21.4725C25.0063 20.5138 25.185 19.49 25.6238 18.645C26.3875 17.1663 28.0288 16.24 30.2713 16.3538C33.7488 16.5488 42.93 19.4738 46.375 29.5975H50.7138C50.7138 29.5975 51.3638 26.6563 53.2325 23.4388C55.1013 20.2213 58.075 16.9713 63.1938 16.2075C67.4188 15.5738 70.2463 17.6538 70.6038 19.6038C70.9938 21.7325 68.8325 23.4713 67.1913 24.82C64.4125 27.1113 58.0425 29.5975 58.0425 29.5975H68.215C68.215 29.5975 73.2525 28.005 75.3813 24.4625C75.8688 23.65 76.3563 22.8375 76.6325 21.7488C77.315 19.1163 77.0388 15.7688 74.6988 13.0388C71.4488 9.26875 66.8825 9.1875 62.7063 9.75625C56.7588 10.5688 50.7625 16.7113 47.9675 23.4225C47.9675 23.4225 44.7013 17.1013 40.2325 13.4938C39.0788 12.5675 36.9013 10.8288 33.8788 9.98375C30.8563 9.13875 26.485 9.025 23.0238 11.3C17.9213 14.6475 18.36 19.8638 19.4488 22.6913C21.285 27.4525 26.9238 29.565 26.9238 29.565L26.9075 29.5813Z" fill="#F89B20"/>
<path d="M18.1487 44.84V87.35H57.6912" stroke="#2B2A28" stroke-width="2" stroke-miterlimit="10" stroke-linecap="round"/>
<path d="M77.4612 45.3275V61.3825" stroke="#2B2A28" stroke-width="2" stroke-miterlimit="10" stroke-linecap="round"/>
<path d="M41.7112 39.2825V86.7162" stroke="#2B2A28" stroke-width="2" stroke-miterlimit="10" stroke-linecap="round"/>
<path d="M54.0449 29.5163V80.2813" stroke="#2B2A28" stroke-width="2" stroke-miterlimit="10" stroke-linecap="round"/>
<path d="M41.7599 34.9113V29.5163" stroke="#2B2A28" stroke-width="2" stroke-miterlimit="10" stroke-linecap="round"/>
<path d="M41.4999 44.4663H16.1012C15.3537 44.4663 14.7524 43.865 14.7524 43.1175V30.9463C14.7524 30.1988 15.3537 29.5975 16.1012 29.5975H79.7849C80.5324 29.5975 81.1337 30.1988 81.1337 30.9463V43.3288C81.1337 44.0763 80.5324 44.6775 79.7849 44.6775H54.5974" stroke="#2B2A28" stroke-width="2" stroke-miterlimit="10" stroke-linecap="round"/>
<path d="M68.3774 29.5325C68.3774 29.5325 77.4287 26.8675 76.8924 18.5638C76.5349 13.055 71.6762 7.92 61.9912 9.935C52.5662 11.9013 47.9349 23.455 47.9349 23.455C47.9349 23.455 42.1987 11.495 32.6112 9.72375C24.5187 8.22875 19.2049 13.0225 18.7662 18.0275C18.3274 23.0325 21.2199 27.0788 26.7449 29.5325" stroke="#2B2A28" stroke-width="2" stroke-miterlimit="10" stroke-linecap="round"/>
<path d="M51.965 25.9088C51.965 25.9088 54.3375 20.1888 58.595 17.8163C65.94 13.705 72.96 17.8163 69.8725 22.1875C66.785 26.5588 57.945 29.6463 57.945 29.6463" stroke="#2B2A28" stroke-width="2" stroke-miterlimit="10" stroke-linecap="round"/>
<path d="M46.3424 29.5325C46.3424 29.5325 44.6362 23.9913 39.9562 20.3838C35.2762 16.7763 28.1424 14.5338 25.8024 18.3688C23.4624 22.2038 28.5649 25.1775 30.9374 26.1525" stroke="#2B2A28" stroke-width="2" stroke-miterlimit="10" stroke-linecap="round"/>
<path d="M63.7607 86.1876C61.3868 83.6499 51.9455 72.6534 60.5409 66.05C67.0078 61.1111 73.6931 66.2137 75.494 69.6518C75.7396 70.143 76.6674 70.143 76.9402 69.6518C78.9594 66.241 85.6447 61.2202 91.9752 66.2956C100.434 73.0627 91.2385 83.4044 88.81 85.8602C86.7907 87.9067 79.3687 94.6192 76.8584 96.693C76.3672 97.1023 75.6577 97.1023 75.1666 96.693C72.6016 94.5374 65.7254 88.2614 63.7607 86.1603V86.1876Z" fill="#F89B20"/>
<path d="M62.481 74.8724C62.481 74.8724 62.0702 68.8472 67.8216 69.5319" stroke="white" stroke-width="2" stroke-miterlimit="10" stroke-linecap="round"/>
<path d="M78.2223 95.4957C85.0691 90.0182 90.5466 83.856 93.97 77.6939" stroke="#2B2A28" stroke-width="2" stroke-miterlimit="10" stroke-linecap="round"/>
</svg>
