<svg width="104" height="104" viewBox="0 0 104 104" fill="none" xmlns="http://www.w3.org/2000/svg">
<path d="M30.1858 14.6706L69.9259 15.1935L70.1002 85.2617H30.1858V14.6706Z" fill="#F89B20"/>
<path d="M50.2302 93.4536C51.5779 93.4536 52.6704 92.3611 52.6704 91.0134C52.6704 89.6657 51.5779 88.5732 50.2302 88.5732C48.8825 88.5732 47.79 89.6657 47.79 91.0134C47.79 92.3611 48.8825 93.4536 50.2302 93.4536Z" fill="#2B2A28"/>
<path d="M30.1858 32.7977V14.6706L60.1652 15.0192" stroke="#2B2A28" stroke-width="2" stroke-miterlimit="10"/>
<path d="M76.3751 25.6514V10.4874C76.0265 8.91867 74.8064 7.52428 73.0634 7.52428H27.0485C25.4798 7.52428 24.0854 9.09297 24.0854 10.6617L23.5625 93.105C23.5625 95.3709 25.3055 97.2882 27.5714 97.2882H71.8433C74.4578 97.2882 76.3751 95.3709 76.3751 92.9308V38.3752" stroke="#2B2A28" stroke-width="2" stroke-miterlimit="10"/>
<path d="M70.1002 85.2617H30.1858" stroke="#2B2A28" stroke-width="2" stroke-miterlimit="10"/>
<path d="M35.0662 59.1169H64.5227" stroke="#2B2A28" stroke-width="2" stroke-miterlimit="10"/>
<path d="M50.4044 62.4284C52.3297 62.4284 53.8904 60.8676 53.8904 58.9424C53.8904 57.0171 52.3297 55.4564 50.4044 55.4564C48.4792 55.4564 46.9185 57.0171 46.9185 58.9424C46.9185 60.8676 48.4792 62.4284 50.4044 62.4284Z" fill="#2B2A28"/>
<path d="M43.0837 34.5405C44.5277 34.5405 45.6982 33.37 45.6982 31.9261C45.6982 30.4821 44.5277 29.3116 43.0837 29.3116C41.6398 29.3116 40.4692 30.4821 40.4692 31.9261C40.4692 33.37 41.6398 34.5405 43.0837 34.5405Z" fill="#2B2A28"/>
<path d="M57.2021 34.889C58.6461 34.889 59.8166 33.7185 59.8166 32.2746C59.8166 30.8306 58.6461 29.6601 57.2021 29.6601C55.7582 29.6601 54.5876 30.8306 54.5876 32.2746C54.5876 33.7185 55.7582 34.889 57.2021 34.889Z" fill="#2B2A28"/>
<path d="M41.5154 39.944C41.5154 39.944 43.607 45.6958 50.2303 45.6958C56.8537 45.6958 58.4224 40.4669 58.4224 40.4669" stroke="#2B2A28" stroke-width="2" stroke-miterlimit="10"/>
<path d="M62.9542 66.4374H36.8093C35.5579 66.4374 34.5435 67.4519 34.5435 68.7033V70.272C34.5435 71.5234 35.5579 72.5379 36.8093 72.5379H62.9542C64.2056 72.5379 65.2201 71.5234 65.2201 70.272V68.7033C65.2201 67.4519 64.2056 66.4374 62.9542 66.4374Z" fill="white"/>
</svg>
