<svg width="104" height="104" viewBox="0 0 104 104" fill="none" xmlns="http://www.w3.org/2000/svg">
<path d="M37.0175 23.075C31.4925 32.1425 37.18 39.5688 40.5275 42.835C41.8762 44.1513 42.6075 45.9388 42.6075 47.8238L57.2975 47.7425C57.2975 46.02 58.0125 43.94 59.1987 42.6888C62.27 39.455 67.535 32.24 63.5537 24.2775C59.8975 16.965 51.9187 14.7225 46.3937 16.1038C40.3162 17.6313 37.0175 23.0913 37.0175 23.0913V23.075Z" fill="#FA9F1B"/>
<path d="M62.14 73.4175C62.14 73.4175 58.63 81.1363 62.2212 84.2888L88.8062 75.075C88.8062 75.075 86.5312 71.2075 88.8062 64.3663L62.14 73.4013V73.4175Z" fill="#FA9F1B"/>
<path d="M62.14 84.0775C62.14 84.0775 58.63 91.7962 62.2212 94.9487L88.8062 85.735C88.8062 85.735 86.5312 81.8675 88.8062 75.0262L62.14 84.0612V84.0775Z" fill="#FA9F1B"/>
<path d="M43.94 32.3863C48.035 31.2325 49.2375 29.6563 49.725 23.4975C49.725 23.3188 50.0013 23.335 50.0175 23.4975C50.4238 28.2913 51.1225 31.3463 55.6725 32.435C55.6725 32.435 50.4238 32.6788 50.0338 41.3075C50.0338 41.4375 49.8388 41.4538 49.8063 41.3075C49.53 39.9913 48.9775 36.66 47.8238 35.1C46.1013 32.76 43.94 32.3863 43.94 32.3863Z" fill="white"/>
<path d="M23.1562 14.2188L28.6163 18.8175" stroke="#1D1C1B" stroke-width="2" stroke-miterlimit="10" stroke-linecap="round"/>
<path d="M24.1637 44.005L29.185 38.935" stroke="#1D1C1B" stroke-width="2" stroke-miterlimit="10" stroke-linecap="round"/>
<path d="M19.4675 29.3475L26.6013 29.3637" stroke="#1D1C1B" stroke-width="2" stroke-miterlimit="10" stroke-linecap="round"/>
<path d="M76.9275 14.4788L71.4675 19.0938" stroke="#1D1C1B" stroke-width="2" stroke-miterlimit="10" stroke-linecap="round"/>
<path d="M75.92 44.2813L70.8987 39.2113" stroke="#1D1C1B" stroke-width="2" stroke-miterlimit="10" stroke-linecap="round"/>
<path d="M80.6163 29.6237L73.4825 29.64" stroke="#1D1C1B" stroke-width="2" stroke-miterlimit="10" stroke-linecap="round"/>
<path d="M39.52 18.6062C39.52 19.5037 40.2475 20.2312 41.145 20.2312C42.0425 20.2312 42.77 19.5037 42.77 18.6062C42.77 17.7088 42.0425 16.9812 41.145 16.9812C40.2475 16.9812 39.52 17.7088 39.52 18.6062Z" fill="#1D1C1B"/>
<path d="M37.0013 22.9938C31.4763 32.0613 37.1638 39.4875 40.5113 42.7538C41.86 44.07 42.5913 45.8575 42.5913 47.7425V57.4925C42.5913 58.6625 43.5338 59.605 44.7038 59.605H55.315C56.4525 59.605 57.3625 58.695 57.3625 57.5575L57.3138 47.7263" stroke="#1D1C1B" stroke-width="2" stroke-miterlimit="10" stroke-linecap="round"/>
<path d="M42.5912 53.5275H56.9562" stroke="#1D1C1B" stroke-width="2" stroke-miterlimit="10" stroke-linecap="round"/>
<path d="M57.785 63.96L67.3725 60.5963" stroke="#1D1C1B" stroke-width="2" stroke-miterlimit="10" stroke-linecap="round"/>
<path d="M63.8138 66.56L73.4012 63.1963" stroke="#1D1C1B" stroke-width="2" stroke-miterlimit="10" stroke-linecap="round"/>
<path d="M36.5625 48.8638L16.8512 56.1763C16.445 56.3225 16.445 56.9075 16.8512 57.07L45.2075 67.3238" stroke="#1D1C1B" stroke-width="2" stroke-miterlimit="10" stroke-linecap="round"/>
<path d="M52.3087 69.7613L62.1075 73.4338L88.0425 64.5938C88.2862 64.5125 88.2862 64.1712 88.0425 64.09L63.6837 54.6325" stroke="#1D1C1B" stroke-width="2" stroke-miterlimit="10" stroke-linecap="round"/>
<path d="M14.95 60.45C14.95 60.45 13.65 64.9025 16.2175 67.925L61.6362 84.305L88.595 75.2375" stroke="#1D1C1B" stroke-width="2" stroke-miterlimit="10" stroke-linecap="round"/>
<path d="M15.4375 70.8825C15.4375 70.8825 14.1375 75.335 16.705 78.3575L57.655 93.3888" stroke="#1D1C1B" stroke-width="2" stroke-miterlimit="10" stroke-linecap="round"/>
</svg>
