<svg width="104" height="104" viewBox="0 0 104 104" fill="none" xmlns="http://www.w3.org/2000/svg">
<path d="M72.3938 10.465C72.3938 10.1075 71.9875 9.91251 71.7113 10.14C69.5825 11.9925 64.22 18.59 60.7913 27.2025C56.42 38.1875 62.4975 46.4588 69.7613 46.3775C79.2025 46.28 81.1688 36.3838 80.73 32.565C79.755 24.245 72.4425 21.8238 72.3938 10.465Z" fill="#FA9F1B"/>
<path d="M50.5375 8.0275C50.5375 7.8 50.2775 7.68625 50.115 7.8325C48.7988 8.98625 44.7525 12.87 43.3225 18.4438C41.8925 24.0175 44.3788 30.42 48.9125 30.3713C54.795 30.3063 54.5513 23.7413 54.1125 21.5638C53.0725 16.445 50.5863 15.08 50.5538 8.0275H50.5375Z" fill="#FA9F1B"/>
<path d="M38.545 55.6075C38.545 55.6075 35.2788 52.5363 35.1163 47.6775C34.9538 42.8188 38.545 36.595 46.3613 36.9525C54.1775 37.31 59.7025 44.8988 54.4537 53.4463C54.4537 53.4463 64.87 54.6488 68.9 54.4375C72.6213 54.2425 74.3763 52.7475 76.2938 50.44C76.5213 50.1638 76.9437 50.245 77.0575 50.5863C77.3988 51.7075 77.8538 53.9988 77.2688 57.005C76.4238 61.3275 74.75 71.9388 68.0713 75.79C61.3925 79.6413 51.3825 80.2913 43.5013 78.325C34.3038 76.0338 28.015 63.9113 38.545 55.5588V55.6075Z" fill="#FA9F1B"/>
<path d="M21.6074 55.2843L21.5912 55.2834C18.8948 55.1198 16.5764 57.1732 16.4129 59.8696L16.4119 59.8858C16.2484 62.5822 18.3017 64.9006 20.9981 65.0641L21.0143 65.0651C23.7108 65.2286 26.0292 63.1753 26.1927 60.4789L26.1937 60.4627C26.3572 57.7663 24.3038 55.4478 21.6074 55.2843Z" stroke="#1D1C1B" stroke-width="2" stroke-miterlimit="10"/>
<path d="M86.255 68.6237C88.4987 68.6237 90.3175 66.8049 90.3175 64.5612C90.3175 62.3176 88.4987 60.4987 86.255 60.4987C84.0113 60.4987 82.1925 62.3176 82.1925 64.5612C82.1925 66.8049 84.0113 68.6237 86.255 68.6237Z" stroke="#1D1C1B" stroke-width="2" stroke-miterlimit="10"/>
<path d="M29.1256 30.8389C28.3889 29.7122 26.8782 29.3961 25.7515 30.1328C24.6248 30.8696 24.3087 32.3802 25.0454 33.5069C25.7822 34.6336 27.2928 34.9497 28.4195 34.213C29.5462 33.4762 29.8623 31.9656 29.1256 30.8389Z" fill="#1D1C1B"/>
<path d="M65.8125 32.3863C65.8125 32.3863 63.7975 39.1625 70.9637 40.2188" stroke="white" stroke-width="2" stroke-miterlimit="10"/>
<path d="M44.0375 46.2638C44.9709 46.2638 45.7275 45.5071 45.7275 44.5738C45.7275 43.6404 44.9709 42.8838 44.0375 42.8838C43.1041 42.8838 42.3475 43.6404 42.3475 44.5738C42.3475 45.5071 43.1041 46.2638 44.0375 46.2638Z" fill="#1D1C1B"/>
<path d="M40.5438 60.6125C40.5438 60.6125 36.7738 64.5287 38.9513 68.9487" stroke="white" stroke-width="2" stroke-miterlimit="10"/>
<path d="M18.0375 74.9125C18.0375 74.9125 11.8137 83.5413 21.71 90.1225" stroke="#1D1C1B" stroke-width="2" stroke-miterlimit="10" stroke-linecap="round"/>
<path d="M80.5513 93.7788C80.5513 93.7788 91.0813 92.2838 88.9688 80.6" stroke="#1D1C1B" stroke-width="2" stroke-miterlimit="10" stroke-linecap="round"/>
<path d="M88.0425 95.485C88.0425 95.485 95.2413 93.6488 93.34 85.1013" stroke="#1D1C1B" stroke-width="2" stroke-miterlimit="10" stroke-linecap="round"/>
<path d="M10.8063 81.77C10.8063 81.77 8.0925 88.725 15.9738 91.4713" stroke="#1D1C1B" stroke-width="2" stroke-miterlimit="10" stroke-linecap="round"/>
<path d="M35.815 45.1263L30.68 46.5725C29.9325 46.8325 29.9 47.8725 30.6313 48.1813L35.9288 49.6113" stroke="#1D1C1B" stroke-width="2" stroke-miterlimit="10" stroke-linecap="round"/>
<path d="M63.6512 72.7025C63.6512 72.7025 69.1112 71.8738 71.9875 61.8638" stroke="white" stroke-width="2" stroke-miterlimit="10"/>
<path d="M30.7613 67.7787C30.7613 67.7787 28.86 70.8337 30.55 73.385C30.55 73.385 25.3663 74.4087 24.9438 79.3812C24.5538 84.045 29.0713 85.735 29.0713 85.735C29.0713 85.735 26.3413 96.3625 35.2463 96.6063C42.315 96.785 42.5425 89.0012 42.5425 89.0012" stroke="#1D1C1B" stroke-width="2" stroke-miterlimit="10" stroke-linecap="round"/>
<path d="M40.755 84.1263C40.755 84.1263 40.7225 91.975 49.205 93.665C54.5025 94.7212 57.4925 89.895 57.4925 89.895" stroke="#1D1C1B" stroke-width="2" stroke-miterlimit="10" stroke-linecap="round"/>
<path d="M32.8738 87.425C32.8738 87.425 31.4925 91.975 36.3188 92.9987" stroke="#1D1C1B" stroke-width="2" stroke-miterlimit="10" stroke-linecap="round"/>
<path d="M33.735 77.1063C33.735 77.1063 32.1425 83.3463 38.9512 81.6888" stroke="#1D1C1B" stroke-width="2" stroke-miterlimit="10" stroke-linecap="round"/>
<path d="M57.8988 83.0863C57.8988 83.0863 64.8213 89.6025 67.5675 80.6163" stroke="#1D1C1B" stroke-width="2" stroke-miterlimit="10" stroke-linecap="round"/>
<path d="M56.3225 86.8888C56.3225 86.8888 57.005 96.4113 66.9825 96.07C74.685 95.81 74.7988 87.7663 74.7988 87.7663C74.7988 87.7663 79.885 87.3763 80.9575 82.7775C82.1113 77.8538 75.855 76.4888 75.855 76.4888" stroke="#1D1C1B" stroke-width="2" stroke-miterlimit="10" stroke-linecap="round"/>
<path d="M74.9612 79.365C74.9612 79.365 76.9275 75.0912 75.465 71.0938" stroke="#1D1C1B" stroke-width="2" stroke-miterlimit="10" stroke-linecap="round"/>
<path d="M67.1125 91.9425C67.1125 91.9425 70.7038 91.1787 71.045 87.425" stroke="#1D1C1B" stroke-width="2" stroke-miterlimit="10" stroke-linecap="round"/>
<path d="M46.1663 85.995C46.1663 85.995 48.425 90.6587 53.3163 88.4975" stroke="#1D1C1B" stroke-width="2" stroke-miterlimit="10" stroke-linecap="round"/>
<path d="M64.87 18.98C64.87 18.98 60.45 26.0488 59.4425 32.1425C58.5813 37.4238 61.0025 44.4438 67.2425 46.0363C73.4825 47.6288 78.195 43.6638 79.82 38.935" stroke="#1D1C1B" stroke-width="2" stroke-miterlimit="10" stroke-linecap="round"/>
<path d="M45.1587 13.8938C45.1587 13.8938 43.55 16.8675 43.1275 19.2563C42.8837 20.6863 42.38 24.9275 44.8012 28.1288C46.4425 30.3063 48.425 30.8588 50.8625 30.0788C53.3 29.2988 54.3887 26.3575 54.3237 23.725" stroke="#1D1C1B" stroke-width="2" stroke-miterlimit="10" stroke-linecap="round"/>
</svg>
