<svg width="104" height="104" viewBox="0 0 104 104" fill="none" xmlns="http://www.w3.org/2000/svg">
<path d="M55.4092 29.4116C54.4699 28.2094 52.7338 27.9962 51.5316 28.9355C50.3293 29.8748 50.1161 31.6109 51.0554 32.8132L93.5746 87.2352C94.5139 88.4374 96.25 88.6506 97.4522 87.7113C98.6545 86.772 98.8676 85.0359 97.9283 83.8336L55.4092 29.4116Z" fill="#F89B20"/>
<path d="M58.0125 72.475C61.425 71.5 62.4 70.2 62.8875 65C62.8875 65 63.05 65 63.2125 65C63.5375 69.0625 64.1875 71.6625 67.925 72.475C67.925 72.475 63.5375 72.6375 63.2125 79.95C62.8875 87.2625 63.05 79.95 63.05 79.95C62.8875 78.8125 62.4 76.05 61.425 74.75C59.9625 72.8 58.175 72.475 58.175 72.475H58.0125Z" fill="#2B2A28"/>
<path d="M23.075 30.875H22.9125C21.7458 30.875 20.8 31.8208 20.8 32.9875V33.15C20.8 34.3167 21.7458 35.2625 22.9125 35.2625H23.075C24.2417 35.2625 25.1875 34.3167 25.1875 33.15V32.9875C25.1875 31.8208 24.2417 30.875 23.075 30.875Z" fill="#2B2A28"/>
<path d="M40.3 18.0375C43.7125 17.0625 44.6875 15.7625 45.175 10.5625C45.6625 5.3625 45.3375 10.5625 45.5 10.5625C45.825 14.625 46.475 17.225 50.2125 18.0375C50.2125 18.0375 45.825 18.2 45.5 25.5125C45.175 32.825 45.3375 25.5125 45.3375 25.5125C45.175 24.375 44.6875 21.6125 43.7125 20.3125C42.25 18.3625 40.4625 18.0375 40.4625 18.0375H40.3Z" fill="#2B2A28"/>
<path d="M52.325 34.2875L44.0375 41.4375" stroke="#2B2A28" stroke-width="2" stroke-miterlimit="10" stroke-linecap="round"/>
<path d="M62.5625 47.45L54.4375 54.4375" stroke="#2B2A28" stroke-width="2" stroke-miterlimit="10" stroke-linecap="round"/>
<path d="M54.7625 37.5375L47.45 43.7125" stroke="#2B2A28" stroke-width="2" stroke-miterlimit="10" stroke-linecap="round"/>
<path d="M57.3625 40.7875L50.2125 46.9625" stroke="#2B2A28" stroke-width="2" stroke-miterlimit="10" stroke-linecap="round"/>
<path d="M60.125 44.2L52.8125 50.5375" stroke="#2B2A28" stroke-width="2" stroke-miterlimit="10" stroke-linecap="round"/>
<path d="M51.1875 32.825L93.6 87.1" stroke="#2B2A28" stroke-width="2" stroke-miterlimit="10" stroke-linecap="round"/>
<path d="M12.5125 46.6375C12.5125 46.6375 14.1375 45.9875 15.6 45.9875C17.0625 45.9875 17.875 46.3125 18.85 46.6375C20.9625 47.6125 22.1 48.75 24.05 49.4C27.7875 50.375 30.7125 46.9625 32.825 45.9875C36.4 44.3625 44.3625 44.3625 46.6375 53.4625C46.6375 53.4625 48.425 59.8 44.6875 66.7875C40.95 73.775 42.0875 71.5 41.7625 72.6375C41.275 74.9125 41.275 79.3 41.4375 82.7125C42.25 92.7875 37.05 91 35.2625 88.4C33.475 85.8 30.875 78.325 30.875 78.325" stroke="#2B2A28" stroke-width="2" stroke-miterlimit="10" stroke-linecap="round"/>
<path d="M17.7125 90.675C17.7125 90.675 18.85 89.8625 20.3125 87.9125C21.775 85.9625 21.9375 84.175 22.425 82.875C22.9125 81.575 23.725 78.8125 24.2125 77.35C24.7 75.8875 25.1875 73.9375 26.8125 73.125" stroke="#2B2A28" stroke-width="2" stroke-miterlimit="10" stroke-linecap="round"/>
<path d="M26.65 58.5C26.65 58.5 30.875 52.8125 36.8875 50.8625" stroke="#2B2A28" stroke-width="2" stroke-miterlimit="10" stroke-linecap="round"/>
<path d="M12.1875 60.45C12.1875 60.45 16.4125 67.4375 16.575 77.675" stroke="#2B2A28" stroke-width="2" stroke-miterlimit="10" stroke-linecap="round"/>
<path d="M74.2625 29.25H74.1C72.9333 29.25 71.9875 30.1958 71.9875 31.3625V31.525C71.9875 32.6917 72.9333 33.6375 74.1 33.6375H74.2625C75.4292 33.6375 76.375 32.6917 76.375 31.525V31.3625C76.375 30.1958 75.4292 29.25 74.2625 29.25Z" fill="#2B2A28"/>
<path d="M8.77501 48.425C8.77501 48.425 5.68751 51.5125 5.85001 55.9C6.01251 60.2875 7.96251 63.7 9.10001 66.4625C10.2375 69.225 11.7 72.8 11.8625 76.375C12.025 79.95 11.8625 82.225 12.025 84.825C12.1875 87.425 13.4875 89.375 13.4875 89.375" stroke="#2B2A28" stroke-width="2" stroke-miterlimit="10" stroke-linecap="round"/>
</svg>
