<svg width="104" height="104" viewBox="0 0 104 104" fill="none" xmlns="http://www.w3.org/2000/svg">
<path d="M15.8438 23.1562C15.8438 23.1562 16.25 31.8988 25.2688 30.1275C25.2688 30.1275 26.2275 34.905 29.9163 36.6925C29.9163 36.6925 29.2338 38.74 27.3163 39.975C27.3163 39.975 31.4113 43.7937 28.6813 48.035C28.6813 48.035 33.3288 50.2287 31.8175 55.0062C31.8175 55.0062 38.7888 60.06 31.8175 64.5775C31.8175 64.5775 31.9475 68.8187 27.5763 69.7775C23.205 70.7362 18.9638 67.1775 18.5575 62.1237C18.5575 62.1237 10.7738 58.8413 14.8688 51.3337C14.8688 51.3337 9.94501 45.045 14.9988 41.3563C14.9988 41.3563 11.44 35.3437 14.9988 30.1437C14.9988 30.1437 12.9513 26.8613 15.8113 23.1725L15.8438 23.1562Z" fill="#FA9F1B"/>
<path d="M75.6112 34.4988C75.6112 34.4988 81.6562 34.1738 82.3062 29.3313C82.3062 29.3313 88.79 30.5988 88.79 22.1813C88.79 22.1813 93.08 26.195 89.2287 31.6875C89.2287 31.6875 94.2825 35.9775 90.1062 40.8038C90.1062 40.8038 94.6075 44.3138 90.6587 50.3588C90.6587 50.3588 94.2825 57.8338 88.5787 61.0187C88.5787 61.0187 90.3337 70.2488 79.1212 71.24C79.1212 71.24 73.7262 81.3962 64.3825 74.8637C64.3825 74.8637 63.6187 77.7725 59.67 77.61C59.67 77.61 59.995 86.6125 57.6875 90.7887C55.38 94.965 51.4312 95.9563 49.2212 90.025C47.0112 84.0938 46.3612 69.81 49.335 66.1863C52.3087 62.5625 56.81 63.3263 58.89 64.1063C58.89 64.1063 63.7325 58.0612 70.3137 62.0262C70.3137 62.0262 72.1825 57.2975 76.7975 57.7363C76.7975 57.7363 74.815 52.13 78.6662 50.05C78.6662 50.05 76.6837 44.4438 78.9912 41.2588C78.9912 41.2588 75.6925 38.9513 75.5787 34.4988H75.6112Z" fill="#FA9F1B"/>
<path d="M20.93 17.1925C20.93 17.1925 15.2913 18.0375 15.8925 23.2212C16.4938 28.405 19.7763 31.3787 25.1875 30.16C25.1875 30.16 26.1788 35.035 29.7538 36.4812" stroke="#1D1C1B" stroke-width="2" stroke-miterlimit="10" stroke-linecap="round"/>
<path d="M36.335 37.3913C36.335 37.3913 41.4375 46.3125 49.2863 41.21C49.2863 41.21 57.8175 46.475 62.2375 39.2275C62.2375 39.2275 71.8738 43.9563 75.6113 34.515C75.6113 34.515 81.6075 34.3688 82.29 29.3313C82.29 29.3313 88.855 30.485 88.7738 22.3925" stroke="#1D1C1B" stroke-width="2" stroke-miterlimit="10" stroke-linecap="round"/>
<path d="M86.3363 19.0937C86.3363 19.0937 83.4438 17.5662 80.925 18.1837C80.925 18.1837 77.415 14.3 72.6863 16.2825C67.9575 18.265 68.4938 23.0587 68.4938 23.0587C68.4938 23.0587 61.2463 20.93 59.345 27.0237C59.345 27.0237 55.0063 23.9687 50.7325 28.2425C50.7325 28.2425 47.7588 24.05 42.3475 26.715C42.3475 26.715 40.9013 19.8575 34.19 21.3037C34.19 21.3037 33.9625 14.9012 28.015 14.365" stroke="#1D1C1B" stroke-width="2" stroke-miterlimit="10" stroke-linecap="round"/>
<path d="M26.1138 20.1662C26.1138 20.1662 29.2338 22.0675 29.2338 26.4225C29.2338 26.4225 36.9363 25.1225 39.065 32.825C39.065 32.825 45.6138 29.5425 49.5788 35.88" stroke="#1D1C1B" stroke-width="2" stroke-miterlimit="10" stroke-linecap="round"/>
<path d="M54.0963 33.1987C54.0963 33.1987 57.4438 31.8337 61.1163 34.3362C61.1163 34.3362 63.245 27.3975 70.8663 29.6075C70.8663 29.6075 71.0937 24.3425 77.35 24.8787" stroke="#1D1C1B" stroke-width="2" stroke-miterlimit="10" stroke-linecap="round"/>
<path d="M14.9988 30.1275C14.9988 30.1275 11.2938 34.515 15.08 41.2913C15.08 41.2913 9.68501 44.2163 14.9338 51.3013" stroke="#1D1C1B" stroke-width="2" stroke-miterlimit="10" stroke-linecap="round"/>
<path d="M13.6175 56.2413C13.6175 56.2413 14.235 60.255 18.6225 62.0912C18.6225 62.0912 18.7688 68.4775 24.9438 69.7125C31.1188 70.9475 31.8825 65.0975 31.8825 64.545C31.8825 64.545 35.035 62.6925 34.97 59.995C34.905 57.2975 31.8175 54.99 31.8175 54.99C31.8175 54.99 33.5075 50.2125 28.665 47.9863" stroke="#1D1C1B" stroke-width="2" stroke-miterlimit="10" stroke-linecap="round"/>
<path d="M53.625 94.2338C53.625 94.2338 56.9888 93.9737 58.4188 89.0175C59.8488 84.0612 59.6862 77.6263 59.6862 77.6263" stroke="#1D1C1B" stroke-width="2" stroke-miterlimit="10" stroke-linecap="round"/>
<path d="M64.3987 74.88C64.3987 74.88 68.1037 77.74 72.0525 76.895C76.57 75.9362 79.1212 71.2562 79.1212 71.2562C79.1212 71.2562 83.8662 71.11 86.45 68.2338C89.31 65.0325 88.6437 61.0025 88.6437 61.0025C88.6437 61.0025 90.8375 59.995 91.6662 57.135C92.495 54.275 90.74 50.31 90.74 50.31C90.74 50.31 94.6075 45.0937 90.0737 40.8037C90.0737 40.8037 92.43 38.87 91.5037 35.0837" stroke="#1D1C1B" stroke-width="2" stroke-miterlimit="10" stroke-linecap="round"/>
<path d="M54.6487 75.7737C54.6487 75.7737 59.1662 78.7475 62.465 77.09C65.7637 75.4325 64.6425 69.42 64.6425 69.42" stroke="#1D1C1B" stroke-width="2" stroke-miterlimit="10" stroke-linecap="round"/>
<path d="M26.3088 63.4562C23.6438 62.075 24.115 57.9962 24.115 57.9962C17.3225 55.575 22.2625 49.9362 22.2625 49.9362C17.5013 46.345 21.6775 40.5275 21.6775 40.5275" stroke="white" stroke-width="2" stroke-miterlimit="10" stroke-linecap="round"/>
<path d="M74.4738 66.9337C74.4738 66.9337 74.4738 61.0512 82.8263 59.2637C82.8263 59.2637 79.3975 54.47 84.7438 50.635C84.7438 50.635 81.5913 46.67 84.6138 41.1937" stroke="white" stroke-width="2" stroke-miterlimit="10" stroke-linecap="round"/>
</svg>
