<svg width="104" height="104" viewBox="0 0 104 104" fill="none" xmlns="http://www.w3.org/2000/svg">
<path d="M48.4737 92.5275C57.7714 92.5275 65.3087 84.9902 65.3087 75.6925C65.3087 66.3948 57.7714 58.8575 48.4737 58.8575C39.176 58.8575 31.6387 66.3948 31.6387 75.6925C31.6387 84.9902 39.176 92.5275 48.4737 92.5275Z" fill="#FA9F1B"/>
<path d="M35.1325 85.8813C35.1325 85.8813 33.5075 84.1588 32.5 80.9738C31.07 76.4725 30.81 69.225 36.79 63.57C46.6537 54.2588 61.0675 59.7675 64.4312 70.4275C67.08 78.845 63.4562 88.205 53.5925 91.7475" stroke="#1D1C1B" stroke-width="2" stroke-miterlimit="10" stroke-linecap="round"/>
<path d="M34.3525 33.475C34.3525 33.475 38.025 35.4088 37.7487 40.4463C37.4725 45.4838 39.91 49.0913 40.7712 50.0988L54.8275 35.6525C55.9162 34.5475 55.9162 32.7763 54.86 31.6388L48.1162 24.7163C46.9625 23.4975 45.0287 23.4325 43.7937 24.5863L34.3362 33.4588L34.3525 33.475Z" fill="#FA9F1B"/>
<path d="M70.6225 17.8587C70.6225 17.8587 67.7463 22.62 66.5925 25.4962C65.4388 28.3725 66.7225 31.59 69.8913 31.6712C73.06 31.7525 74.425 28.795 74.0675 26.6337C73.6775 24.2937 70.6388 17.8587 70.6388 17.8587H70.6225Z" fill="#FA9F1B"/>
<path d="M54.8925 55.64V51.9675C54.8925 49.5787 56.3225 47.4013 58.5325 46.4913C60.9375 45.5 64.7562 44.5087 70.5575 44.265C78.195 43.9562 83.6225 45.8575 86.6612 47.3525C88.4325 48.2137 89.5212 50.0175 89.5375 51.9837L89.6837 85.8163C89.6837 87.2138 89.0175 88.53 87.8475 89.2938C84.9225 91.2113 78.715 94.0387 62.8062 91.6012" stroke="#1D1C1B" stroke-width="2" stroke-miterlimit="10" stroke-linecap="round"/>
<path d="M89.505 50.8625C88.79 56.9238 75.4487 58.2563 67.665 56.9238C64.3825 56.355 60.9537 55.3475 60.9537 55.3475" stroke="#1D1C1B" stroke-width="2" stroke-miterlimit="10" stroke-linecap="round"/>
<path d="M89.5862 60.6288C88.8712 66.69 75.53 68.0225 67.7462 66.69C64.4637 66.1213 62.0587 65.4875 62.0587 65.4875" stroke="#1D1C1B" stroke-width="2" stroke-miterlimit="10" stroke-linecap="round"/>
<path d="M89.5375 69.1438C88.6437 76.9438 69.3387 75.5463 69.3387 75.5463" stroke="#1D1C1B" stroke-width="2" stroke-miterlimit="10" stroke-linecap="round"/>
<path d="M89.7487 77.7075C88.855 85.5075 69.55 84.11 69.55 84.11" stroke="#1D1C1B" stroke-width="2" stroke-miterlimit="10" stroke-linecap="round"/>
<path d="M53.755 69.68C49.335 65.845 41.86 68.0063 42.0712 75.855C42.2825 83.85 51.6425 84.2725 53.8525 80.6488" stroke="white" stroke-width="2" stroke-miterlimit="10" stroke-linecap="round"/>
<path d="M37.6512 73.6288H48.9125" stroke="white" stroke-width="2" stroke-miterlimit="10" stroke-linecap="round"/>
<path d="M37.6025 77.675H48.8637" stroke="white" stroke-width="2" stroke-miterlimit="10" stroke-linecap="round"/>
<path d="M12.6912 45.7275L33.7187 66.82" stroke="#1D1C1B" stroke-width="2" stroke-miterlimit="10" stroke-linecap="round"/>
<path d="M10.3675 58.2888L21.5475 69.3713" stroke="#1D1C1B" stroke-width="2" stroke-miterlimit="10" stroke-linecap="round"/>
<path d="M16.445 59.1663L21.255 54.4538" stroke="#1D1C1B" stroke-width="2" stroke-miterlimit="10" stroke-linecap="round"/>
<path d="M18.1187 65.845L25.7725 58.5813" stroke="#1D1C1B" stroke-width="2" stroke-miterlimit="10" stroke-linecap="round"/>
<path d="M32.175 58.9063L54.8112 35.7175C55.9325 34.5638 55.9325 32.7275 54.8112 31.5738L48.165 24.7325C46.9787 23.4975 45.0125 23.465 43.7612 24.635L16.8837 49.9038" stroke="#1D1C1B" stroke-width="2" stroke-miterlimit="10" stroke-linecap="round"/>
<path d="M44.8987 34.385L50.1962 40.365" stroke="#1D1C1B" stroke-width="2" stroke-miterlimit="10" stroke-linecap="round"/>
<path d="M40.2025 39.13L45.5 45.1263" stroke="#1D1C1B" stroke-width="2" stroke-miterlimit="10" stroke-linecap="round"/>
<path d="M35.0187 44.7688L40.3 50.7488" stroke="#1D1C1B" stroke-width="2" stroke-miterlimit="10" stroke-linecap="round"/>
<path d="M30.355 49.595L35.6525 55.575" stroke="#1D1C1B" stroke-width="2" stroke-miterlimit="10" stroke-linecap="round"/>
<path d="M49.1075 25.8538L56.2575 21.2875L59.1175 24.3263L56.1762 28.4375" stroke="#1D1C1B" stroke-width="2" stroke-miterlimit="10" stroke-linecap="round"/>
<path d="M70.8662 10.2375L60.2875 20.1338" stroke="#1D1C1B" stroke-width="2" stroke-miterlimit="10" stroke-linecap="round"/>
</svg>
