<svg width="104" height="104" viewBox="0 0 104 104" fill="none" xmlns="http://www.w3.org/2000/svg">
<path d="M73.775 55.575L51.35 26.325L6.98751 57.2C6.66251 57.525 6.50001 58.0125 6.66251 58.3375C6.98751 58.9875 7.47501 59.9625 7.47501 61.2625C7.47501 62.5625 6.50001 63.7 6.01251 64.35C5.52501 65 5.68751 65.1625 6.01251 65.4875L19.9875 85.9625C20.3125 86.45 20.8 86.45 21.2875 86.125C22.1 85.6375 23.5625 84.9875 25.025 85.15C26.4875 85.3125 27.7875 86.2875 28.275 86.9375C28.7625 87.5875 29.0875 87.2625 29.4125 86.9375L73.9375 55.4125L73.775 55.575Z" fill="#F89B20"/>
<path d="M11.05 54.275L61.425 19.175C61.9125 18.85 62.4 18.85 62.8875 19.175C63.375 19.5 64.025 19.9875 64.8375 20.15C65.65 20.3125 66.625 20.15 67.1125 20.15C67.6 20.15 68.0875 20.15 68.4125 20.6375L84.3375 41.275C84.6625 41.7625 84.825 42.4125 84.3375 43.0625C83.85 43.875 83.525 45.5 84.3375 47.45C85.15 49.4 84.3375 48.2625 84.0125 48.425L29.4125 87.1" stroke="#2B2A28" stroke-width="2" stroke-miterlimit="10" stroke-linecap="round"/>
<path d="M57.6875 28.1125L62.725 24.2125C63.5375 23.725 64.5125 23.725 65.1625 24.5375L79.1375 42.0875C79.7875 42.9 79.625 43.875 78.8125 44.525L74.75 47.6125C73.9375 48.2625 72.9625 48.1 72.3125 47.2875L60.125 31.85" stroke="#2B2A28" stroke-width="2" stroke-miterlimit="10" stroke-linecap="round"/>
<path d="M64.35 30.3875L73.2875 41.275" stroke="#2B2A28" stroke-width="2" stroke-miterlimit="10" stroke-linecap="round"/>
<path d="M43.6218 49.375C44.8978 48.7164 45.1313 46.6309 44.1434 44.7169C43.1555 42.8029 41.3203 41.7851 40.0443 42.4437C38.7683 43.1023 38.5347 45.1878 39.5226 47.1018C40.5105 49.0158 42.3458 50.0335 43.6218 49.375Z" fill="white"/>
<path d="M58.2636 50.7918C59.5396 50.1332 59.7732 48.0477 58.7853 46.1337C57.7974 44.2197 55.9621 43.202 54.6861 43.8606C53.4101 44.5192 53.1766 46.6047 54.1645 48.5187C55.1524 50.4327 56.9876 51.4504 58.2636 50.7918Z" fill="white"/>
<path d="M48.5375 37.2L50.325 55.725" stroke="white" stroke-width="2" stroke-miterlimit="10" stroke-linecap="round"/>
<path d="M52.6 62.0625L62.35 55.725" stroke="white" stroke-width="2" stroke-miterlimit="10" stroke-linecap="round"/>
<path d="M73.1249 18.525L91.8124 41.925C92.1374 42.4125 92.2999 43.0625 91.9749 43.7125C91.4874 44.6875 91.1624 46.15 91.9749 48.1C92.7874 50.05 91.975 48.9125 91.65 49.075L36.8875 88.4" stroke="#2B2A28" stroke-width="2" stroke-miterlimit="10" stroke-linecap="round"/>
<path d="M80.275 19.6625L98.9625 43.0625C99.2875 43.55 99.45 44.2 99.125 44.85C98.6375 45.825 98.3125 47.2875 99.125 49.2375C99.9375 51.1875 99.125 50.05 98.8 50.2125L44.0375 89.5375" stroke="#2B2A28" stroke-width="2" stroke-miterlimit="10" stroke-linecap="round"/>
<path d="M23.8909 77.7669C23.7143 77.8913 23.5136 77.8565 23.3892 77.6799L22.7259 76.738C22.6292 76.6007 22.5913 76.4219 22.6203 76.2547L23.9969 68.1226C24.3277 66.2164 24.3671 64.897 23.5933 63.7982C22.7088 62.5424 21.1291 62.2166 19.6378 63.2669C18.5193 64.0546 18.0081 65.4127 18.4899 66.8053C18.5888 67.0292 18.5263 67.1906 18.3221 67.2757L17.2755 67.7486C17.0713 67.8338 16.8902 67.7851 16.7913 67.5613C15.9712 65.4382 16.6529 63.1968 18.6544 61.7872C21.0287 60.115 23.6902 60.5596 25.155 62.6396C26.1776 64.0916 26.3156 65.5796 25.8005 68.3494L24.5754 75.1126L30.7955 70.7319C30.9721 70.6075 31.1728 70.6423 31.2972 70.8189L31.9052 71.6823C32.0296 71.8589 31.9948 72.0595 31.8182 72.1839L23.8909 77.7669ZM39.1388 67.3217C36.274 69.3393 32.4243 67.9996 29.6328 64.0359C26.8413 60.0723 26.8768 55.9963 29.7416 53.9787C32.5868 51.9749 36.4365 53.3146 39.228 57.2783C42.0195 61.2419 41.984 65.3179 39.1388 67.3217ZM38.1162 65.8696C39.9999 64.543 39.8024 61.5117 37.619 58.4114C35.4355 55.3112 32.648 54.1041 30.7642 55.4307C28.8609 56.7712 29.0583 59.8025 31.2418 62.9027C33.4253 66.003 36.2128 67.2101 38.1162 65.8696Z" fill="white"/>
</svg>
