<svg width="104" height="104" viewBox="0 0 104 104" fill="none" xmlns="http://www.w3.org/2000/svg">
<path d="M12.9513 81.055L8.69375 81.0225C6.90625 81.0225 5.54125 79.3487 5.54125 77.5612V30.6475C5.54125 29.0062 6.87375 27.6737 8.515 27.6737H12.9188L12.9513 81.0387V81.055Z" fill="#FA9F1B"/>
<path d="M92.8363 81.315L84.8412 81.2662V27.235L92.4625 27.1862C95.0625 27.1862 97.1588 29.2825 97.1588 31.8825L97.045 77.0412C97.045 79.3975 95.2087 81.315 92.8525 81.315H92.8363Z" fill="#FA9F1B"/>
<path d="M97.0288 77.1225C97.0288 79.43 95.1438 81.315 92.8363 81.2988L8.97 81.0388C7.085 81.0388 5.5575 79.5113 5.5575 77.6263V74.6038H97.045V77.1225H97.0288Z" fill="#FA9F1B"/>
<path d="M97.11 31.4761C97.1425 29.7048 95.2413 27.2023 92.69 27.2023L8.515 27.6898C6.63 27.6898 5.54125 29.0873 5.54125 30.9723V33.9948H97.1263V31.4761H97.11Z" fill="#FA9F1B"/>
<path d="M35.5875 11.5863L40.2025 17.03" stroke="#1D1C1B" stroke-width="2" stroke-miterlimit="10" stroke-linecap="round"/>
<path d="M65.39 12.5938L60.32 17.5988" stroke="#1D1C1B" stroke-width="2" stroke-miterlimit="10" stroke-linecap="round"/>
<path d="M50.7325 7.89751L50.7487 15.0313" stroke="#1D1C1B" stroke-width="2" stroke-miterlimit="10" stroke-linecap="round"/>
<path d="M64.805 95.03L60.19 89.5862" stroke="#1D1C1B" stroke-width="2" stroke-miterlimit="10" stroke-linecap="round"/>
<path d="M35.0025 94.0225L40.0725 89.0175" stroke="#1D1C1B" stroke-width="2" stroke-miterlimit="10" stroke-linecap="round"/>
<path d="M49.66 98.7188L49.6438 91.585" stroke="#1D1C1B" stroke-width="2" stroke-miterlimit="10" stroke-linecap="round"/>
<path d="M90.5938 56.68C91.9399 56.68 93.0312 55.5887 93.0312 54.2425C93.0312 52.8963 91.9399 51.805 90.5938 51.805C89.2476 51.805 88.1562 52.8963 88.1562 54.2425C88.1562 55.5887 89.2476 56.68 90.5938 56.68Z" fill="#1D1C1B"/>
<path d="M31.2813 74.6362L12.9513 74.6037L12.9188 44.1187" stroke="#1D1C1B" stroke-width="2" stroke-miterlimit="10" stroke-linecap="round"/>
<path d="M24.0338 27.5925L8.49875 27.69C6.825 27.7225 5.54125 28.9738 5.525 30.6638V77.5775C5.525 79.2675 6.9875 81.0387 8.6775 81.0387L92.7225 81.3313C95.0463 81.3638 96.9638 79.5113 97.0125 77.1713L97.11 31.915C97.1587 29.3312 95.0625 27.2025 92.4787 27.2188L37.8138 27.5275" stroke="#1D1C1B" stroke-width="2" stroke-miterlimit="10" stroke-linecap="round"/>
<path d="M84.8087 33.93V74.62" stroke="#1D1C1B" stroke-width="2" stroke-miterlimit="10" stroke-linecap="round"/>
<path d="M79.3 53.2675L64.9675 38.5937C63.2937 36.8875 60.4012 37.5537 59.67 39.845C59.0525 41.7462 58.435 43.6962 58.0937 44.7525C56.745 48.9287 55.0712 56.29 52.5525 60.8562C51.4637 62.8225 52.0162 66.7712 50.635 67.7787C48.6362 69.225 48.6525 70.3625 51.1225 70.0375C53.3162 69.745 54.3887 67.8437 54.925 66.235C55.4612 64.6262 57.1187 65.3737 57.8825 63.83C58.6462 62.2862 56.5825 61.3762 56.5825 60.4337C56.5825 59.5562 61.7825 53.3812 63.0012 50.2125C63.2937 49.4487 63.44 48.6362 63.505 47.84C63.6513 45.8087 63.2287 44.005 63.2287 44.005" stroke="#1D1C1B" stroke-width="2" stroke-miterlimit="10" stroke-linecap="round"/>
<path d="M63.4563 45.3375C64.1063 47.3037 69.0138 62.2862 77.9188 66.0725" stroke="#1D1C1B" stroke-width="2" stroke-miterlimit="10" stroke-linecap="round"/>
<path d="M60.32 60.97L72.085 61.555" stroke="#1D1C1B" stroke-width="2" stroke-miterlimit="10" stroke-linecap="round"/>
<path d="M50.895 54.3887C49.5137 54.4537 47.6125 56.1437 45.7763 56.29C43.94 56.4362 28.8275 57.8987 26.9263 57.9637C25.025 58.0287 21.7425 59.4262 21.1575 59.345C20.5725 59.2637 19.5488 57.9637 18.8988 57.9637C18.2488 57.9637 17.5825 58.8412 18.0213 60.0112C18.46 61.1812 19.1913 62.855 20.7188 62.855C22.2463 62.855 24.375 62.205 25.61 62.92C26.845 63.635 28.6 64.74 29.9975 63.8625C30.6962 63.4237 30.8588 62.8225 30.8425 62.335C30.8263 61.8475 31.1837 61.425 31.6712 61.4087C32.9225 61.3925 35.1488 61.49 37.2938 62.1887C41.3075 63.505 46.1988 62.985 48.4738 61.4575" stroke="#1D1C1B" stroke-width="2" stroke-miterlimit="10" stroke-linecap="round"/>
<path d="M49.9363 63.0825C49.9363 63.0825 37.0988 58.4512 47.6288 41.925" stroke="#1D1C1B" stroke-width="2" stroke-miterlimit="10" stroke-linecap="round"/>
<path d="M42.64 43.1925L47.6125 41.925L48.7663 47.2387" stroke="#1D1C1B" stroke-width="2" stroke-miterlimit="10" stroke-linecap="round"/>
</svg>
