<svg width="104" height="104" viewBox="0 0 104 104" fill="none" xmlns="http://www.w3.org/2000/svg">
<path d="M57.954 14.1014L53.0465 32.7564C51.519 38.5576 52.5427 44.7326 55.8577 49.7214L60.4402 56.6276C62.5852 59.8614 67.4765 59.4551 69.0527 55.9126L81.8252 27.3614C83.044 24.6314 81.7602 21.4464 78.9977 20.3089C74.594 18.4889 69.3452 16.0026 57.954 14.1014Z" fill="#FA9F1B"/>
<path d="M40.3715 31.8626C41.4484 31.8626 42.3215 30.9896 42.3215 29.9126C42.3215 28.8357 41.4484 27.9626 40.3715 27.9626C39.2945 27.9626 38.4215 28.8357 38.4215 29.9126C38.4215 30.9896 39.2945 31.8626 40.3715 31.8626Z" fill="#1D1C1B"/>
<path d="M65.4777 15.6451C65.4777 15.6451 59.0265 14.0039 54.5415 13.5976C50.6415 13.2401 44.044 11.4364 38.3565 16.5714C35.6915 18.9764 33.6115 23.9489 31.8402 27.4101C30.8327 29.3601 28.899 30.6439 26.7052 30.8064L11.0727 31.8789C9.44772 31.9926 8.48897 33.7639 9.28522 35.1939L16.5165 48.0801C20.774 55.6689 29.094 60.0401 37.7552 59.2276L48.4477 58.2201C50.154 58.0576 51.779 58.9189 52.5915 60.4301L58.1815 70.6189" stroke="#1D1C1B" stroke-width="2" stroke-miterlimit="10" stroke-linecap="round" stroke-linejoin="round"/>
<path d="M70.109 53.5564L80.7365 29.8151C80.7365 29.8151 90.0802 33.8614 94.2402 38.2001" stroke="#1D1C1B" stroke-width="2" stroke-miterlimit="10" stroke-linecap="round" stroke-linejoin="round"/>
<path d="M12.3402 40.5564C12.3402 40.5564 15.7202 37.4201 16.7602 31.5214L11.3165 31.8301C9.39899 31.8464 8.37524 33.7639 9.41524 35.3726L12.324 40.5564H12.3402Z" fill="#1D1C1B"/>
<path d="M41.1677 22.1451C41.1677 22.1451 45.1815 20.4876 47.5377 24.5014" stroke="#1D1C1B" stroke-width="2" stroke-miterlimit="10" stroke-linecap="round" stroke-linejoin="round"/>
<path d="M16.5165 48.0801C16.5165 48.0801 22.0577 49.2664 26.299 42.5551" stroke="#1D1C1B" stroke-width="2" stroke-miterlimit="10" stroke-linecap="round" stroke-linejoin="round"/>
<path d="M90.1777 44.8301C90.1777 44.8301 76.2027 64.3626 63.5602 71.3826" stroke="#1D1C1B" stroke-width="2" stroke-miterlimit="10" stroke-linecap="round" stroke-linejoin="round"/>
<path d="M94.2402 50.6476C94.2402 50.6476 80.2652 70.1801 67.6227 77.2001" stroke="#1D1C1B" stroke-width="2" stroke-miterlimit="10" stroke-linecap="round" stroke-linejoin="round"/>
<path d="M49.2927 86.9176C47.944 85.9426 42.484 81.4089 45.9615 77.5251C48.5777 74.6164 52.1852 76.4201 53.3552 77.8826C53.5177 78.0939 53.9402 78.0126 54.0377 77.7526C54.6877 75.9651 57.4015 72.9914 60.8465 74.8114C65.4615 77.2489 62.0815 83.2289 61.1552 84.6101C60.3915 85.7639 57.434 89.3226 56.4265 90.5251C56.2315 90.7526 55.9065 90.8176 55.6302 90.6714C54.2165 89.8914 50.4302 87.7139 49.309 86.9014L49.2927 86.9176Z" fill="#1D1C1B"/>
<path d="M61.7402 24.4201L58.9452 35.1614C57.4177 41.3851 61.269 45.6589 61.269 45.6589" stroke="white" stroke-width="2" stroke-miterlimit="10" stroke-linecap="round" stroke-linejoin="round"/>
</svg>
