<svg width="104" height="104" viewBox="0 0 104 104" fill="none" xmlns="http://www.w3.org/2000/svg">
<path d="M73.775 55.575L51.35 26.325L6.98751 57.2C6.66251 57.525 6.50001 58.0125 6.66251 58.3375C6.98751 58.9875 7.47501 59.9625 7.47501 61.2625C7.47501 62.5625 6.50001 63.7 6.01251 64.35C5.52501 65 5.68751 65.1625 6.01251 65.4875L19.9875 85.9625C20.3125 86.45 20.8 86.45 21.2875 86.125C22.1 85.6375 23.5625 84.9875 25.025 85.15C26.4875 85.3125 27.7875 86.2875 28.275 86.9375C28.7625 87.5875 29.0875 87.2625 29.4125 86.9375L73.9375 55.4125L73.775 55.575Z" fill="#F89B20"/>
<path d="M11.05 54.275L61.425 19.175C61.9125 18.85 62.4 18.85 62.8875 19.175C63.375 19.5 64.025 19.9875 64.8375 20.15C65.65 20.3125 66.625 20.15 67.1125 20.15C67.6 20.15 68.0875 20.15 68.4125 20.6375L84.3375 41.275C84.6625 41.7625 84.825 42.4125 84.3375 43.0625C83.85 43.875 83.525 45.5 84.3375 47.45C85.15 49.4 84.3375 48.2625 84.0125 48.425L29.4125 87.1" stroke="#2B2A28" stroke-width="2" stroke-miterlimit="10" stroke-linecap="round"/>
<path d="M57.6875 28.1125L62.725 24.2125C63.5375 23.725 64.5125 23.725 65.1625 24.5375L79.1375 42.0875C79.7875 42.9 79.625 43.875 78.8125 44.525L74.75 47.6125C73.9375 48.2625 72.9625 48.1 72.3125 47.2875L60.125 31.85" stroke="#2B2A28" stroke-width="2" stroke-miterlimit="10" stroke-linecap="round"/>
<path d="M64.35 30.3875L73.2875 41.275" stroke="#2B2A28" stroke-width="2" stroke-miterlimit="10" stroke-linecap="round"/>
<path d="M32.6218 56.375C33.8978 55.7164 34.1313 53.6309 33.1434 51.7169C32.1555 49.8029 30.3203 48.7851 29.0443 49.4437C27.7683 50.1023 27.5347 52.1878 28.5226 54.1018C29.5105 56.0158 31.3458 57.0335 32.6218 56.375Z" fill="white"/>
<path d="M47.2635 57.7918C48.5395 57.1332 48.7731 55.0477 47.7852 53.1337C46.7973 51.2197 44.9621 50.202 43.6861 50.8606C42.4101 51.5192 42.1765 53.6047 43.1644 55.5187C44.1523 57.4327 45.9875 58.4504 47.2635 57.7918Z" fill="white"/>
<path d="M37.5375 44.2L39.325 62.725" stroke="white" stroke-width="2" stroke-miterlimit="10" stroke-linecap="round"/>
<path d="M41.6 69.0625L51.35 62.725" stroke="white" stroke-width="2" stroke-miterlimit="10" stroke-linecap="round"/>
<path d="M73.125 18.525L91.8125 41.925C92.1375 42.4125 92.3 43.0625 91.975 43.7125C91.4875 44.6875 91.1625 46.15 91.975 48.1C92.7875 50.05 91.975 48.9125 91.65 49.075L36.8875 88.4" stroke="#2B2A28" stroke-width="2" stroke-miterlimit="10" stroke-linecap="round"/>
<path d="M80.275 19.6625L98.9625 43.0625C99.2875 43.55 99.45 44.2 99.125 44.85C98.6375 45.825 98.3125 47.2875 99.125 49.2375C99.9375 51.1875 99.125 50.05 98.8 50.2125L44.0375 89.5375" stroke="#2B2A28" stroke-width="2" stroke-miterlimit="10" stroke-linecap="round"/>
</svg>
