<svg width="104" height="104" viewBox="0 0 104 104" fill="none" xmlns="http://www.w3.org/2000/svg">
<path d="M26 61.1C24.7 62.1833 25.1333 64.5667 22.75 64.7833C20.3667 65 20.3667 62.4 18.85 62.1833C14.95 61.5333 13.8667 58.9333 14.7333 56.7667C15.6 54.6 17.55 53.3 20.8 56.1167C24.05 58.9333 24.2667 55.9 25.5667 56.9833C26.8667 58.0667 27.5167 59.8 26 60.8833V61.1Z" fill="#F89B20"/>
<path d="M53.3 90.5667L86.8833 96.2C87.9667 96.2 89.05 95.55 89.05 94.4667L99.45 32.7167C99.45 31.6333 98.8 30.55 97.9333 30.55L64.5667 24.7C63.4833 24.7 62.6167 25.1333 62.4 26.2167L52 88.1833C52 89.2667 52.4333 90.35 53.5167 90.5667H53.3Z" stroke="#2B2A28" stroke-width="2" stroke-miterlimit="10"/>
<path d="M71.2833 87.9667C72.2406 87.9667 73.0167 87.1906 73.0167 86.2333C73.0167 85.276 72.2406 84.5 71.2833 84.5C70.326 84.5 69.55 85.276 69.55 86.2333C69.55 87.1906 70.326 87.9667 71.2833 87.9667Z" fill="#2B2A28"/>
<path d="M66.7154 35.4683L65.8308 40.8122L84.0001 43.8201L84.8848 38.4762L66.7154 35.4683Z" fill="#F89B20"/>
<path d="M65.0077 45.9154L64.123 51.2594L77.3759 53.4534L78.2606 48.1095L65.0077 45.9154Z" fill="#F89B20"/>
<path d="M63.4629 56.5865L62.5782 61.9304L85.2365 65.6815L86.1212 60.3376L63.4629 56.5865Z" fill="#F89B20"/>
<path d="M59.5833 77.1333L84.9333 81.6833" stroke="#2B2A28" stroke-width="2" stroke-miterlimit="10" stroke-linecap="round"/>
<path d="M35.3167 98.3667L36.8333 77.5667C37.05 75.4 39.2167 73.0167 40.95 71.7167C42.6833 70.4167 46.3667 66.3 47.45 63.4833C50.2667 56.7667 53.5167 53.3 53.5167 53.3" stroke="#2B2A28" stroke-width="2" stroke-miterlimit="10" stroke-linecap="round"/>
<path d="M13 96.85L14.3 74.9667C14.3 73.2333 14.3 71.7167 13.4333 70.2C12.35 68.0333 11.05 65 10.6167 62.6167C9.75 58.7167 8.01667 42.9 7.58333 39.4333C7.15 35.9667 5.85 28.8167 5.85 26.4333C5.85 24.05 8.45 23.4 9.75 26.4333C11.05 29.4667 15.1667 38.35 16.25 40.7333C15.8167 37.2667 13.8667 21.0167 13.2167 16.6833C12.5667 12.35 18.4167 12.1333 19.2833 16.0333C20.15 19.9333 22.75 31.4167 23.6167 35.75C24.4833 40.0833 24.05 35.75 24.05 35.75C24.05 30.1167 24.7 12.1333 24.9167 9.31667C25.1333 6.5 30.1167 6.06667 30.7667 11.7C31.4167 17.3333 31.85 29.6833 32.0667 34.8833C32.2833 40.0833 32.5 35.3167 32.7167 34.8833C34.2333 29.6833 38.1333 16.0333 38.7833 13.4333C39.4333 10.8333 44.85 11.7 44.4167 16.6833C43.9833 21.6667 40.95 38.1333 41.1667 43.9833C41.3833 49.8333 42.0333 51.35 43.7667 51.7833C45.5 52.2167 47.45 48.3167 48.9667 45.0667C51.35 40.0833 55.6833 39.4333 55.6833 39.4333" stroke="#2B2A28" stroke-width="2" stroke-miterlimit="10" stroke-linecap="round" stroke-linejoin="round"/>
</svg>
