<svg width="104" height="104" viewBox="0 0 104 104" fill="none" xmlns="http://www.w3.org/2000/svg">
<path d="M37.0338 58.8087H41.5025C42.6563 58.8087 43.5988 59.7512 43.5988 60.905V85.15C43.5988 86.2225 42.7212 87.1 41.6487 87.1H37.3913C35.815 87.1 34.5312 85.8162 34.5312 84.24V61.3275C34.5312 59.93 35.6525 58.8087 37.05 58.8087H37.0338Z" fill="#F89B20"/>
<path d="M66.3813 58.8737H70.7038C72.1175 58.8737 73.255 60.0112 73.255 61.425V84.5162C73.255 85.9787 72.0688 87.165 70.6063 87.165H66.5113C65.2275 87.165 64.1713 86.125 64.1713 84.825V61.0837C64.1713 59.865 65.1625 58.8737 66.3813 58.8737Z" fill="#F89B20"/>
<path d="M29.8025 64.2525H35.5712V81.3475H30.355C28.73 81.3475 27.3975 80.0313 27.3975 78.39V66.6412C27.3975 65.325 28.47 64.2525 29.7862 64.2525H29.8025Z" fill="#F89B20"/>
<path d="M72.0363 64.3175H77.545C79.0075 64.3175 80.21 65.5038 80.21 66.9825V78.4875C80.21 80.1125 78.8938 81.4288 77.2688 81.4288H72.0363V64.3338V64.3175Z" fill="#F89B20"/>
<path d="M66.885 69.6963H42.38V76.05H66.885V69.6963Z" fill="#F89B20"/>
<path d="M12.2037 60.4825C16.5295 60.4825 20.0362 56.9758 20.0362 52.65C20.0362 48.3242 16.5295 44.8175 12.2037 44.8175C7.87798 44.8175 4.37125 48.3242 4.37125 52.65C4.37125 56.9758 7.87798 60.4825 12.2037 60.4825Z" fill="#F89B20"/>
<path d="M64.7075 46.3125C64.7075 46.3125 70.525 50.6025 77.805 48.6363C77.805 48.6363 84.3538 50.6025 90.2363 46.8C90.2363 46.8 93.2263 47.1575 93.1775 49.1237C93.1288 51.09 88.8388 53.8363 78.4875 53.7225C68.1363 53.6088 62.9363 51.9513 62.3188 49.6275C61.7013 47.3038 64.7075 46.3288 64.7075 46.3288V46.3125Z" fill="#F89B20"/>
<path d="M8.32001 42.7537L20.7838 18.3462C20.7838 18.3462 24.0013 13.6987 30.3713 16.6725C36.7413 19.6462 32.8088 26.9425 32.8088 26.9425L18.2325 59.54L27.2838 59.865" stroke="#2B2A28" stroke-width="2" stroke-miterlimit="10" stroke-linecap="round" stroke-linejoin="round"/>
<path d="M29.705 24.0988L20.3287 42.77" stroke="#2B2A28" stroke-width="2" stroke-miterlimit="10" stroke-linecap="round"/>
<path d="M36.465 27.0887L53.04 26.9587C54.0312 26.9587 54.73 27.9337 54.3887 28.8762L44.525 55.835" stroke="#2B2A28" stroke-width="2" stroke-miterlimit="10" stroke-linecap="round"/>
<path d="M33.6537 64.3987V81.315" stroke="#2B2A28" stroke-width="2" stroke-miterlimit="10" stroke-linecap="round"/>
<path d="M44.2325 69.68V76.115" stroke="#2B2A28" stroke-width="2" stroke-miterlimit="10" stroke-linecap="round"/>
<path d="M74.1 64.3987V81.315" stroke="#2B2A28" stroke-width="2" stroke-miterlimit="10" stroke-linecap="round"/>
<path d="M63.3588 69.6313V76.0663" stroke="#2B2A28" stroke-width="2" stroke-miterlimit="10" stroke-linecap="round"/>
<path d="M58.5325 37.7C58.5325 37.7 59.4425 41.9738 63.31 45.2563C66.5762 48.035 72.215 50.1475 77.805 48.6363C77.805 48.6363 82.42 49.9688 86.9213 48.3763C90.7725 47.0113 94.25 44.5575 96.1675 37.5375L92.1862 37.0663" stroke="#2B2A28" stroke-width="2" stroke-miterlimit="10" stroke-linecap="round"/>
<path d="M79.7225 45.5C89.635 32.6138 77.7725 21.2225 77.7725 21.2225C77.7725 21.2225 66.8525 33.5725 75.6112 45.0288" stroke="#2B2A28" stroke-width="2" stroke-miterlimit="10" stroke-linecap="round"/>
<path d="M70.6063 28.7787L65.2763 26.2112C65.2763 26.2112 63.4725 32.24 65.6825 38.415C67.4375 43.3387 71.3538 45.0287 71.3538 45.0287" stroke="#2B2A28" stroke-width="2" stroke-miterlimit="10" stroke-linecap="round"/>
<path d="M84.4675 28.8275L89.7975 26.26C89.7975 26.26 91.6012 32.2888 89.3912 38.4638C87.6362 43.3875 83.72 45.0775 83.72 45.0775" stroke="#2B2A28" stroke-width="2" stroke-miterlimit="10" stroke-linecap="round"/>
<path d="M12.155 57.3138C14.641 57.3138 16.6562 55.2985 16.6562 52.8125C16.6562 50.3265 14.641 48.3112 12.155 48.3112C9.66903 48.3112 7.65375 50.3265 7.65375 52.8125C7.65375 55.2985 9.66903 57.3138 12.155 57.3138Z" fill="#2B2A28"/>
</svg>
