<svg width="104" height="104" viewBox="0 0 104 104" fill="none" xmlns="http://www.w3.org/2000/svg">
<path d="M66.2187 25.2525H34.9862C34.008 25.2525 33.215 26.0455 33.215 27.0238V92.8363C33.215 93.8145 34.008 94.6075 34.9862 94.6075H66.2187C67.197 94.6075 67.99 93.8145 67.99 92.8363V27.0238C67.99 26.0455 67.197 25.2525 66.2187 25.2525Z" fill="#FA9F1B"/>
<path d="M49.92 54.5513C55.8612 54.5513 60.6775 49.735 60.6775 43.7938C60.6775 37.8526 55.8612 33.0363 49.92 33.0363C43.9788 33.0363 39.1625 37.8526 39.1625 43.7938C39.1625 49.735 43.9788 54.5513 49.92 54.5513Z" fill="white"/>
<path d="M14.3162 63.3912H11.0175C10.0393 63.3912 9.24625 64.1843 9.24625 65.1625V92.7712C9.24625 93.7495 10.0393 94.5425 11.0175 94.5425H14.3162C15.2945 94.5425 16.0875 93.7495 16.0875 92.7712V65.1625C16.0875 64.1843 15.2945 63.3912 14.3162 63.3912Z" fill="#FA9F1B"/>
<path d="M90.3175 63.4562H87.0187C86.0405 63.4562 85.2475 64.2493 85.2475 65.2275V92.7712C85.2475 93.7495 86.0405 94.5425 87.0187 94.5425H90.3175C91.2957 94.5425 92.0887 93.7495 92.0887 92.7712V65.2275C92.0887 64.2493 91.2957 63.4562 90.3175 63.4562Z" fill="#FA9F1B"/>
<path d="M52.1577 48.2276L52.3523 39.6498C52.379 38.4745 51.4478 37.5 50.2724 37.4733L50.2562 37.473C49.0808 37.4463 48.1064 38.3775 48.0797 39.5529L47.885 48.1307C47.8584 49.306 48.7896 50.2805 49.9649 50.3072L49.9812 50.3075C51.1566 50.3342 52.131 49.403 52.1577 48.2276Z" fill="#FA9F1B"/>
<path d="M45.7078 46.1389L54.643 46.3416C55.953 46.3713 57.039 45.3335 57.0687 44.0236C57.0984 42.7136 56.0606 41.6276 54.7507 41.5978L45.8155 41.3951C44.5055 41.3653 43.4195 42.4032 43.3897 43.7131C43.36 45.0231 44.3978 46.1091 45.7078 46.1389Z" fill="#FA9F1B"/>
<path d="M43.2737 20.5563H57.5412L60.2387 9.44126L54.34 12.155L51.025 6.64626L47.2062 12.1875L41.0475 9.71751L42.77 16.6075" stroke="#1D1C1B" stroke-width="2" stroke-miterlimit="10" stroke-linecap="round"/>
<path d="M50.5862 17.8425V13.91" stroke="#1D1C1B" stroke-width="2" stroke-miterlimit="10" stroke-linecap="round"/>
<path d="M63.0338 20.3125H70.8663C72.1338 20.3125 73.1412 21.3362 73.1412 22.5875V69.225" stroke="#1D1C1B" stroke-width="2" stroke-miterlimit="10" stroke-linecap="round"/>
<path d="M36.8875 20.3125H30.5013C29.185 20.3125 28.1125 21.385 28.1125 22.7013V68.3963" stroke="#1D1C1B" stroke-width="2" stroke-miterlimit="10" stroke-linecap="round"/>
<path d="M27.95 80.0312V94.5425" stroke="#1D1C1B" stroke-width="2" stroke-miterlimit="10" stroke-linecap="round"/>
<path d="M72.995 80.6975V94.5425" stroke="#1D1C1B" stroke-width="2" stroke-miterlimit="10" stroke-linecap="round"/>
<path d="M9.3925 69.9075H16.0713C16.0713 69.9075 28.4538 79.3813 52.4063 79.1863C72.8163 79.0238 85.2313 69.5988 85.2313 69.5988H92.235" stroke="#1D1C1B" stroke-width="2" stroke-miterlimit="10" stroke-linecap="round"/>
<path d="M4.875 94.575H97.7762" stroke="#1D1C1B" stroke-width="2" stroke-miterlimit="10" stroke-linecap="round"/>
<path d="M37.7162 63.2856C37.7162 64.5556 38.7457 65.585 40.0156 65.585C41.2855 65.585 42.315 64.5556 42.315 63.2856C42.315 62.0157 41.2855 60.9863 40.0156 60.9863C38.7457 60.9863 37.7162 62.0157 37.7162 63.2856Z" fill="#1D1C1B"/>
</svg>
