<svg width="104" height="104" viewBox="0 0 104 104" fill="none" xmlns="http://www.w3.org/2000/svg">
<path d="M73.775 55.575L51.35 26.325L6.98751 57.2C6.66251 57.525 6.50001 58.0125 6.66251 58.3375C6.98751 58.9875 7.47501 59.9625 7.47501 61.2625C7.47501 62.5625 6.50001 63.7 6.01251 64.35C5.52501 65 5.68751 65.1625 6.01251 65.4875L19.9875 85.9625C20.3125 86.45 20.8 86.45 21.2875 86.125C22.1 85.6375 23.5625 84.9875 25.025 85.15C26.4875 85.3125 27.7875 86.2875 28.275 86.9375C28.7625 87.5875 29.0875 87.2625 29.4125 86.9375L73.9375 55.4125L73.775 55.575Z" fill="#F89B20"/>
<path d="M11.05 54.275L61.425 19.175C61.9125 18.85 62.4 18.85 62.8875 19.175C63.375 19.5 64.025 19.9875 64.8375 20.15C65.65 20.3125 66.625 20.15 67.1125 20.15C67.6 20.15 68.0875 20.15 68.4125 20.6375L84.3375 41.275C84.6625 41.7625 84.825 42.4125 84.3375 43.0625C83.85 43.875 83.525 45.5 84.3375 47.45C85.15 49.4 84.3375 48.2625 84.0125 48.425L29.4125 87.1" stroke="#2B2A28" stroke-width="2" stroke-miterlimit="10" stroke-linecap="round"/>
<path d="M57.6875 28.1125L62.725 24.2125C63.5375 23.725 64.5125 23.725 65.1625 24.5375L79.1375 42.0875C79.7875 42.9 79.625 43.875 78.8125 44.525L74.75 47.6125C73.9375 48.2625 72.9625 48.1 72.3125 47.2875L60.125 31.85" stroke="#2B2A28" stroke-width="2" stroke-miterlimit="10" stroke-linecap="round"/>
<path d="M64.3501 30.3875L73.2876 41.275" stroke="#2B2A28" stroke-width="2" stroke-miterlimit="10" stroke-linecap="round"/>
<path d="M43.6218 49.375C44.8978 48.7164 45.1313 46.6309 44.1434 44.7169C43.1555 42.8029 41.3203 41.7851 40.0443 42.4437C38.7683 43.1023 38.5347 45.1878 39.5226 47.1018C40.5105 49.0158 42.3458 50.0335 43.6218 49.375Z" fill="white"/>
<path d="M58.2636 50.7918C59.5396 50.1332 59.7732 48.0477 58.7853 46.1337C57.7974 44.2197 55.9621 43.202 54.6861 43.8606C53.4101 44.5192 53.1766 46.6047 54.1645 48.5187C55.1524 50.4327 56.9876 51.4504 58.2636 50.7918Z" fill="white"/>
<path d="M48.5375 37.2L50.325 55.725" stroke="white" stroke-width="2" stroke-miterlimit="10" stroke-linecap="round"/>
<path d="M52.6 62.0625L62.35 55.725" stroke="white" stroke-width="2" stroke-miterlimit="10" stroke-linecap="round"/>
<path d="M73.1251 18.525L91.8126 41.925C92.1376 42.4125 92.3001 43.0625 91.9751 43.7125C91.4876 44.6875 91.1626 46.15 91.9751 48.1C92.7876 50.05 91.9751 48.9125 91.6501 49.075L36.8876 88.4" stroke="#2B2A28" stroke-width="2" stroke-miterlimit="10" stroke-linecap="round"/>
<path d="M80.2751 19.6625L98.9626 43.0625C99.2876 43.55 99.4501 44.2 99.1251 44.85C98.6376 45.825 98.3126 47.2875 99.1251 49.2375C99.9376 51.1875 99.1251 50.05 98.8001 50.2125L44.0376 89.5375" stroke="#2B2A28" stroke-width="2" stroke-miterlimit="10" stroke-linecap="round"/>
<path d="M24.7692 77.1484C24.5926 77.2728 24.3919 77.2379 24.2676 77.0613L23.6042 76.1195C23.5075 75.9821 23.4696 75.8033 23.4986 75.6361L24.8752 67.504C25.206 65.5979 25.2455 64.2785 24.4716 63.1796C23.5871 61.9238 22.0074 61.598 20.5161 62.6483C19.3976 63.436 18.8864 64.7941 19.3682 66.1868C19.4671 66.4106 19.4047 66.572 19.2004 66.6572L18.1538 67.1301C17.9496 67.2152 17.7685 67.1666 17.6696 66.9427C16.8495 64.8196 17.5312 62.5782 19.5327 61.1686C21.907 59.4965 24.5685 59.9411 26.0333 62.021C27.056 63.4731 27.1939 64.961 26.6789 67.7309L25.4537 74.4941L31.6738 70.1133C31.8504 69.9889 32.0511 70.0238 32.1755 70.2004L32.7835 71.0637C32.9079 71.2403 32.8731 71.441 32.6965 71.5654L24.7692 77.1484ZM39.4088 67.1315C37.4859 68.4858 35.5653 68.6349 33.6415 67.6121C33.4524 67.5104 33.3949 67.3454 33.5024 67.1229L34.0364 66.1304C34.1439 65.9079 34.303 65.8839 34.5117 65.9718C35.9884 66.6931 37.1696 66.5363 38.3862 65.6795C40.0541 64.5049 40.3862 62.3922 39.1563 60.6459C37.9125 58.8799 35.8472 58.5732 34.2382 59.7064C33.3355 60.3421 32.766 61.2423 32.6289 62.1314C32.5999 62.2986 32.5236 62.4403 32.3863 62.5371L31.5621 63.1175C31.3659 63.2557 31.1791 63.2405 31.0663 62.997L27.6747 56.1389C27.5561 55.9289 27.6186 55.7675 27.7952 55.6431L33.5837 51.5664C33.7603 51.442 33.9609 51.4768 34.0853 51.6534L34.6934 52.5168C34.8177 52.6934 34.7829 52.894 34.6063 53.0184L29.7597 56.4318L31.6483 60.2388C31.994 59.4376 32.568 58.7104 33.3725 58.1438C35.9626 56.3196 38.9906 57.0345 40.7456 59.5265C42.5836 62.1362 41.8812 65.3903 39.4088 67.1315Z" fill="white"/>
</svg>
