<svg width="104" height="104" viewBox="0 0 104 104" fill="none" xmlns="http://www.w3.org/2000/svg">
<path d="M73.06 47.8887L58.9062 46.2637C56.8262 45.8737 52.975 46.215 51.2687 48.4737L34.4012 48.6037L26.7475 72.6537L30.1113 73.9375C30.1113 73.9375 29.0225 78.0325 28.4212 80.1937C27.82 82.355 31.1675 86.8887 35.1163 84.3862C35.1163 84.3862 36.3187 88.9362 40.9825 87.1325C40.9825 87.1325 43.0138 91.7962 47.32 89.765C47.32 89.765 51.025 95.5012 55.9325 90.1225C55.9325 90.1225 58.2075 91.0812 59.8812 91.7962C61.555 92.5112 66.2188 90.48 65.5037 85.6862C65.5037 85.6862 69.4525 84.6137 68.6075 79.7062C68.6075 79.7062 71.8412 79.105 71.8412 74.9125L79.3812 71.565L73.0438 47.8725L73.06 47.8887Z" fill="#FA9F1B"/>
<path d="M35.5225 41.08C41.9573 41.08 47.1737 35.8636 47.1737 29.4287C47.1737 22.9939 41.9573 17.7775 35.5225 17.7775C29.0877 17.7775 23.8712 22.9939 23.8712 29.4287C23.8712 35.8636 29.0877 41.08 35.5225 41.08Z" fill="#FA9F1B"/>
<path d="M8.38501 46.1825L35.165 46.3125L25.285 77.155L3.91626 77.2525" stroke="#1D1C1B" stroke-width="2" stroke-miterlimit="10" stroke-linecap="round" stroke-linejoin="round"/>
<path d="M17.8262 53.2188L10.465 76.9275" stroke="#1D1C1B" stroke-width="2" stroke-miterlimit="10" stroke-linecap="round" stroke-linejoin="round"/>
<path d="M94.7375 46.7188L72.67 46.4588L81.1363 78.0813L98.1338 78.2113" stroke="#1D1C1B" stroke-width="2" stroke-miterlimit="10" stroke-linecap="round" stroke-linejoin="round"/>
<path d="M66.105 47.0925L58.435 46.1663C55.6238 45.8738 52.6825 46.6375 51.285 48.4738L40.5438 63.115C40.5438 63.115 43.9075 68.1525 47.8888 65.845C51.87 63.5375 57.4438 57.2325 57.4438 57.2325L66.5763 57.7525" stroke="#1D1C1B" stroke-width="2" stroke-miterlimit="10" stroke-linecap="round" stroke-linejoin="round"/>
<path d="M61.7338 61.1163C61.7338 61.1163 70.6712 65.6013 72.2312 66.6738C74.6525 68.3475 72.0687 73.9375 69.0787 72.345C67.5025 71.5 61.62 68.6725 61.62 68.6725" stroke="#1D1C1B" stroke-width="2" stroke-miterlimit="10" stroke-linecap="round" stroke-linejoin="round"/>
<path d="M58.89 74.8638L66.9663 79.0563" stroke="#1D1C1B" stroke-width="2" stroke-miterlimit="10" stroke-linecap="round" stroke-linejoin="round"/>
<path d="M55.5912 80.4212L63.6675 84.63" stroke="#1D1C1B" stroke-width="2" stroke-miterlimit="10" stroke-linecap="round" stroke-linejoin="round"/>
<path d="M48.3763 87.2137C48.3763 87.2137 50.5863 81.8837 51.35 79.82C52.1138 77.7562 51.35 75.335 48.3763 76.0012" stroke="#1D1C1B" stroke-width="2" stroke-miterlimit="10" stroke-linecap="round" stroke-linejoin="round"/>
<path d="M36.1237 81.6888C36.1237 81.6888 37.7 77.1713 38.8537 74.1325C40.0075 71.0938 44.525 71.6138 44.9475 74.555C44.9475 74.555 45.1262 75.3838 44.525 77.7075L42.4288 83.8013" stroke="#1D1C1B" stroke-width="2" stroke-miterlimit="10" stroke-linecap="round" stroke-linejoin="round"/>
<path d="M28.4213 80.1938C28.4213 80.1938 29.7863 74.9125 30.5175 72.605C31.2488 70.2975 34.8238 69.355 36.2863 71.1425" stroke="#1D1C1B" stroke-width="2" stroke-miterlimit="10" stroke-linecap="round" stroke-linejoin="round"/>
<path d="M52.91 92.2513C52.91 92.2513 56.55 91.3088 58.0125 86.0763" stroke="#1D1C1B" stroke-width="2" stroke-miterlimit="10" stroke-linecap="round" stroke-linejoin="round"/>
<path d="M28.8438 29.5425H42.1037" stroke="white" stroke-width="2" stroke-miterlimit="10" stroke-linecap="round" stroke-linejoin="round"/>
<path d="M35.6363 22.7663V36.01" stroke="white" stroke-width="2" stroke-miterlimit="10" stroke-linecap="round" stroke-linejoin="round"/>
<path d="M56.4362 34.125L92.6575 26.4875" stroke="#1D1C1B" stroke-width="2" stroke-miterlimit="10" stroke-linecap="round" stroke-linejoin="round"/>
<path d="M26.2925 36.4975C26.2925 36.4975 25.1713 35.3113 24.4725 33.1013C23.4813 29.9813 23.3025 24.96 27.4463 21.06C34.2713 14.6088 44.2488 18.4275 46.5725 25.805C48.4088 31.6388 45.89 38.1063 39.065 40.5763" stroke="#1D1C1B" stroke-width="2" stroke-miterlimit="10" stroke-linecap="round" stroke-linejoin="round"/>
<path d="M53.495 27.7062C54.1287 23.7087 53.885 21.0763 56.68 20.2963C59.475 19.5163 61.7987 25.5613 63.7487 24.5375C65.6987 23.5138 66.105 19.2725 68.6075 18.5738C71.11 17.875 72.6212 23.8225 75.075 22.3438C77.5287 20.865 82.1112 16.7213 85.4912 18.0213" stroke="#1D1C1B" stroke-width="2" stroke-miterlimit="10" stroke-linecap="round" stroke-linejoin="round"/>
</svg>
