<svg width="104" height="104" viewBox="0 0 104 104" fill="none" xmlns="http://www.w3.org/2000/svg">
<path d="M49.8875 87.9125L57.2 93.1125C58.6625 94.0875 59.475 95.55 59.8 97.3375L60.2875 101.4L86.45 100.912L82.3875 87.9125C81.7375 85.9625 81.7375 84.0125 81.9 82.0625L84.0125 67.1125C84.6625 62.4 83.6875 57.525 81.0875 53.4625L72.15 39.4875C71.0125 37.5375 70.0375 35.5875 69.3875 33.3125L67.7625 27.1375C67.4375 26.325 66.625 25.675 65.65 26C64.1875 26.325 62.4 27.3 61.5875 29.4125C59.8 34.6125 62.075 39.8125 64.35 44.0375C65.4875 45.9875 66.4625 47.9375 67.275 49.5625C68.0875 51.1875 65.1625 50.5375 63.5375 50.375L69.7125 78C70.2 79.7875 69.0625 83.6875 65.4875 84.6625L49.5625 87.9125H49.8875Z" fill="#F89B20"/>
<path d="M65.4875 84.6625L33.475 91.325C30.225 91.975 27.1375 89.8625 26.65 86.775L13.8125 21.45C13.1625 18.3625 15.275 15.275 18.3625 14.625L48.425 8.45C51.5125 7.8 54.6 9.75 55.25 12.8375L69.875 77.675C70.525 80.925 69 83.5 65.325 84.6625H65.4875Z" stroke="#2B2A28" stroke-width="2" stroke-miterlimit="10"/>
<path d="M64.5125 73.9375L30.0625 81.4125" stroke="#2B2A28" stroke-width="2" stroke-miterlimit="10" stroke-linecap="round" stroke-linejoin="round"/>
<path d="M48.425 84.6625C49.5917 84.6625 50.5375 83.7167 50.5375 82.55C50.5375 81.3833 49.5917 80.4375 48.425 80.4375C47.2583 80.4375 46.3125 81.3833 46.3125 82.55C46.3125 83.7167 47.2583 84.6625 48.425 84.6625Z" fill="#2B2A28"/>
<path d="M53.95 29.25L50.2125 14.1375L20.15 20.6375" stroke="#2B2A28" stroke-width="2" stroke-miterlimit="10" stroke-linecap="round" stroke-linejoin="round"/>
<path d="M80.4375 52.65L71.3375 38.1875" stroke="#2B2A28" stroke-width="2" stroke-miterlimit="10" stroke-linecap="round" stroke-linejoin="round"/>
<path d="M82.0625 82.225L84.0125 67.925C84.825 63.5375 84.0125 58.3375 81.575 54.4375" stroke="#2B2A28" stroke-width="2" stroke-miterlimit="10" stroke-linecap="round" stroke-linejoin="round"/>
<path d="M40.9 60.3625C46.913 60.3625 51.7875 55.488 51.7875 49.475C51.7875 43.462 46.913 38.5875 40.9 38.5875C34.887 38.5875 30.0125 43.462 30.0125 49.475C30.0125 55.488 34.887 60.3625 40.9 60.3625Z" fill="#2B2A28"/>
<path d="M37.65 44.275L39.1125 45.25C39.6 45.575 39.7625 46.3875 39.4375 47.0375L38.7875 48.0125C38.4625 48.5 38.625 49.15 39.1125 49.475L41.3875 51.2625C41.875 51.5875 42.6875 51.5875 43.175 50.9375L43.825 49.9625C44.15 49.475 44.9625 49.3125 45.45 49.6375L46.9125 50.6125C47.5625 51.1 47.725 51.9125 47.2375 52.4L46.2625 53.8625C45.6125 54.8375 44.15 55.1625 43.175 54.35L36.1875 49.3125C35.05 48.5 34.725 46.875 35.5375 45.7375L36.5125 44.275C36.5 44 37.5 44 37.65 44.275Z" fill="white"/>
</svg>
