<svg width="104" height="104" viewBox="0 0 104 104" fill="none" xmlns="http://www.w3.org/2000/svg">
<path d="M39.4875 71.5H52.975" stroke="white" stroke-width="2" stroke-miterlimit="10" stroke-linecap="round"/>
<path d="M39.4875 76.2125H52.8125" stroke="white" stroke-width="2" stroke-miterlimit="10" stroke-linecap="round"/>
<path d="M23.2375 46.15V86.125H34.45" stroke="#2B2A28" stroke-width="2" stroke-miterlimit="10" stroke-linecap="round"/>
<path d="M79.7875 46.6375V86.6125H68.575" stroke="#2B2A28" stroke-width="2" stroke-miterlimit="10" stroke-linecap="round"/>
<path d="M45.825 40.7875V56.3875" stroke="#2B2A28" stroke-width="2" stroke-miterlimit="10" stroke-linecap="round"/>
<path d="M57.525 31.0375V56.55" stroke="#2B2A28" stroke-width="2" stroke-miterlimit="10" stroke-linecap="round"/>
<path d="M45.6625 36.075V31.0375" stroke="#2B2A28" stroke-width="2" stroke-miterlimit="10" stroke-linecap="round"/>
<path d="M45.5 45.825H21.2875C20.6375 45.825 19.9875 45.175 19.9875 44.525V32.9875C19.9875 32.3375 20.6375 31.6875 21.2875 31.6875H81.9C82.55 31.6875 83.2 32.3375 83.2 32.9875V44.85C83.2 45.5 82.55 46.15 81.9 46.15H57.85" stroke="#2B2A28" stroke-width="2" stroke-miterlimit="10" stroke-linecap="round"/>
<path d="M71.175 31.525C71.175 31.525 79.7875 28.925 79.3 21.125C78.8125 13.325 74.2625 11.05 65.1625 12.8375C56.0625 14.625 51.8375 25.675 51.8375 25.675C51.8375 25.675 46.3125 14.3 37.2125 12.675C28.1125 11.05 24.375 15.7625 24.05 20.6375C23.725 25.5125 26.325 29.25 31.6875 31.525" stroke="#2B2A28" stroke-width="2" stroke-miterlimit="10" stroke-linecap="round"/>
<path d="M53.1375 31.3625C53.1375 31.3625 55.9 24.05 61.75 20.475C67.6 16.9 75.4 20.475 72.475 24.7C69.55 28.925 61.1 31.85 61.1 31.85" stroke="#2B2A28" stroke-width="2" stroke-miterlimit="10" stroke-linecap="round"/>
<path d="M50.2125 31.525C50.2125 31.525 48.5875 26.325 44.2 22.75C39.8125 19.175 32.9875 17.225 30.7125 20.8C28.4375 24.375 34.6125 29.9 43.55 31.2" stroke="#2B2A28" stroke-width="2" stroke-miterlimit="10" stroke-linecap="round"/>
<path d="M51.5125 53.95C51.5125 53.95 42.575 68.7375 39.4875 74.9125C36.4 81.0875 39.325 94.7375 52 94.7375C64.675 94.7375 68.4125 83.0375 64.35 75.5625C60.2875 68.0875 51.5125 53.95 51.5125 53.95Z" fill="#F89B20"/>
<path d="M55.25 60.0435C53.1064 56.5179 51.5125 53.95 51.5125 53.95C51.5125 53.95 42.575 68.7375 39.4875 74.9125C36.4 81.0875 39.325 94.7375 52 94.7375C64.675 94.7375 68.4125 83.0375 64.35 75.5625C62.9941 73.0677 61.1133 69.8308 59.209 66.625" stroke="#2B2A28" stroke-width="2" stroke-miterlimit="10" stroke-linecap="round"/>
<path d="M45.5 81.25H58.5" stroke="white" stroke-width="2" stroke-miterlimit="10" stroke-linecap="round"/>
<path d="M52 74.75V87.75" stroke="white" stroke-width="2" stroke-miterlimit="10" stroke-linecap="round"/>
</svg>
