<svg width="104" height="104" viewBox="0 0 104 104" fill="none" xmlns="http://www.w3.org/2000/svg">
<path d="M96.6063 47.3525H6.25626V80.99H96.6063V47.3525Z" fill="#FA9F1B"/>
<path d="M11.6675 47.4013V42.0063H91.7475V47.4825" stroke="#1D1C1B" stroke-width="2" stroke-miterlimit="10" stroke-linejoin="round"/>
<path d="M90.9838 80.9575V85.9137H10.8875V80.8763" stroke="#1D1C1B" stroke-width="2" stroke-miterlimit="10" stroke-linejoin="round"/>
<path d="M18.135 47.3687V80.5675" stroke="#1D1C1B" stroke-width="2" stroke-miterlimit="10"/>
<path d="M27.7713 47.4175V80.6325" stroke="#1D1C1B" stroke-width="2" stroke-miterlimit="10"/>
<path d="M37.05 47.6613V80.86" stroke="#1D1C1B" stroke-width="2" stroke-miterlimit="10"/>
<path d="M46.865 47.7588V80.9575" stroke="#1D1C1B" stroke-width="2" stroke-miterlimit="10"/>
<path d="M56.5175 47.8075V81.0062" stroke="#1D1C1B" stroke-width="2" stroke-miterlimit="10"/>
<path d="M65.91 47.8075V81.0062" stroke="#1D1C1B" stroke-width="2" stroke-miterlimit="10"/>
<path d="M75.5463 47.515V80.7138" stroke="#1D1C1B" stroke-width="2" stroke-miterlimit="10"/>
<path d="M85.1825 47.58V80.7788" stroke="#1D1C1B" stroke-width="2" stroke-miterlimit="10"/>
<path d="M71.4675 75.3513H40.495V85.1175H71.4675V75.3513Z" fill="#1D1C1B"/>
<path d="M50.5538 35.36C50.5538 35.36 48.8313 35.3112 46.6863 34.19C43.6475 32.6137 39.7963 29.0387 39.9588 23.0587C40.235 13.2275 50.4563 8.66125 57.655 12.3987C63.3263 15.3562 66.2675 22.0187 63.0338 28.8925" stroke="#1D1C1B" stroke-width="2" stroke-miterlimit="10" stroke-linecap="round"/>
<path d="M54.5508 28.8937L54.7993 17.944C54.828 16.6789 53.8257 15.63 52.5606 15.6013L51.9757 15.5881C50.7107 15.5594 49.6618 16.5616 49.6331 17.8267L49.3846 28.7764C49.3559 30.0415 50.3582 31.0904 51.6233 31.1191L52.2081 31.1323C53.4732 31.1611 54.5221 30.1588 54.5508 28.8937Z" fill="#FA9F1B"/>
<path d="M46.5644 26.091L57.7415 26.3447C59.231 26.3785 60.4658 25.1985 60.4996 23.7091L60.5077 23.3517C60.5415 21.8623 59.3615 20.6275 57.8721 20.5937L46.6949 20.34C45.2055 20.3062 43.9707 21.4862 43.9369 22.9756L43.9288 23.333C43.895 24.8224 45.075 26.0572 46.5644 26.091Z" fill="#FA9F1B"/>
</svg>
