<svg width="104" height="104" viewBox="0 0 104 104" fill="none" xmlns="http://www.w3.org/2000/svg">
<path d="M57.2 15.4538C57.2 15.4538 53.2838 21.9212 51.7238 25.8375C50.1638 29.7538 51.9025 34.1088 56.1925 34.2225C60.4825 34.3363 62.3513 30.3225 61.8638 27.3975C61.3438 24.2125 57.2 15.47 57.2 15.47V15.4538Z" fill="#FA9F1B"/>
<path d="M41.6219 48.4093L35.4345 55.4325L55.9432 73.5006L62.1307 66.4774L41.6219 48.4093Z" fill="#FA9F1B"/>
<path d="M95.5013 45.4187L70.2163 37.1475L64.7563 51.3175L91.9913 59.7837L95.5013 45.4187Z" fill="#FA9F1B"/>
<path d="M77.8538 32.76L91.0975 37.05L92.9663 29.6237L91 26.8612V21.2225L87.6038 20.0525L83.9475 24.9762L80.7138 25.5125L77.8538 32.76Z" fill="#FA9F1B"/>
<path d="M71.565 43.355L81.2013 46.215" stroke="white" stroke-width="2" stroke-miterlimit="10"/>
<path d="M70.1837 48.2137L77.35 50.4725" stroke="white" stroke-width="2" stroke-miterlimit="10"/>
<path d="M85.1663 33.6537L87.2463 27.9337" stroke="#1D1C1B" stroke-width="2" stroke-miterlimit="10"/>
<path d="M81.4125 32.5163L83.4925 26.7963" stroke="#1D1C1B" stroke-width="2" stroke-miterlimit="10"/>
<path d="M88.8225 35.1163L90.3175 29.2338" stroke="#1D1C1B" stroke-width="2" stroke-miterlimit="10"/>
<path d="M77.9188 32.5325C77.9188 32.5325 71.9225 33.3938 70.1838 37.2613L63.1475 55.4775C62.6763 56.7125 63.3263 58.0938 64.5775 58.5L87.425 65.9588C88.66 66.365 89.9925 65.6662 90.3663 64.415L91.8613 58.9225" stroke="#1D1C1B" stroke-width="2" stroke-miterlimit="10" stroke-linecap="round"/>
<path d="M91.0163 36.8063C91.0163 36.8063 96.0375 39.52 95.4038 45.5813L94.3638 50.0825" stroke="#1D1C1B" stroke-width="2" stroke-miterlimit="10" stroke-linecap="round"/>
<path d="M40.6575 59.6538L46.215 53.365" stroke="#1D1C1B" stroke-width="2" stroke-miterlimit="10"/>
<path d="M45.3538 63.6837L50.9113 57.3788" stroke="#1D1C1B" stroke-width="2" stroke-miterlimit="10"/>
<path d="M50.2288 67.86L55.7863 61.555" stroke="#1D1C1B" stroke-width="2" stroke-miterlimit="10"/>
<path d="M21.3206 36.1792L21.0779 36.4846C20.0113 37.8264 20.2344 39.7789 21.5763 40.8455L25.1763 43.7071C26.5182 44.7737 28.4707 44.5505 29.5373 43.2086L29.78 42.9033C30.8466 41.5615 30.6235 39.609 29.2816 38.5424L25.6816 35.6808C24.3397 34.6142 22.3872 34.8374 21.3206 36.1792Z" stroke="#1D1C1B" stroke-width="2" stroke-miterlimit="10"/>
<path d="M17.3875 40.4138C17.3875 40.4138 16.4288 37.895 17.6475 35.7988C18.8663 33.7025 20.7838 31.525 23.92 31.525C27.0563 31.525 31.7525 35.9613 33.3288 37.9763C34.905 39.9913 34.8075 42.51 34.2063 43.6313C33.605 44.7525 31.07 48.7988 27.235 48.2463C24.18 47.8075 19.6625 44.07 19.6625 44.07" stroke="#1D1C1B" stroke-width="2" stroke-miterlimit="10" stroke-linecap="round"/>
<path d="M5.50876 37.8138L21.06 21.255C22.1813 20.0525 24.05 19.9713 25.2688 21.0763L58.6788 50.9763" stroke="#1D1C1B" stroke-width="2" stroke-miterlimit="10" stroke-linecap="round"/>
<path d="M8.67752 43.94L66.2513 93.8763C67.5188 94.965 69.42 94.8188 70.5088 93.535L83.9475 77.545C84.7113 76.635 84.63 75.27 83.7525 74.4575L74.3275 65.8125" stroke="#1D1C1B" stroke-width="2" stroke-miterlimit="10" stroke-linecap="round"/>
</svg>
