<svg width="104" height="104" viewBox="0 0 104 104" fill="none" xmlns="http://www.w3.org/2000/svg">
<path d="M59.7513 29.0875C59.7513 29.0875 62.4 29.5425 64.2688 28.4537C65.455 27.7712 69.0463 25.3175 69.0463 25.3175C70.7363 38.7075 77.2688 38.935 84.1263 36.3025C84.1263 36.3025 67.8113 50.895 85.3288 56.94C85.3288 56.94 72.3288 63.4887 78.8775 77.2362C78.8775 77.2362 65.8288 66.1375 59.6213 80.08C59.6213 80.08 59.4426 75.27 59.8488 74.3275C60.3851 73.0925 64.545 68.9975 65.3738 65.8612C66.3 62.3837 64.0738 59.8 61.7338 58.7275C59.93 57.8987 57.395 57.7037 55.965 58.1912C54.3075 58.7437 53.4463 60.1087 52.195 59.995C51.1063 59.8975 49.8713 58.4512 48.4413 57.655C46.7513 56.6962 42.4776 56.1437 38.9351 58.565C36.1563 60.4662 36.0426 64.87 37.4401 67.8437C38.4638 69.9887 41.3726 72.1175 41.3726 72.1175C41.3726 72.1175 37.2613 74.4412 34.6288 83.005C34.6288 83.005 38.6588 68.8512 22.0838 71.7112C22.0838 71.7112 33.4426 59.475 16.4613 53.4625C16.4613 53.4625 31.6063 48.7012 22.5876 35.0837C22.5876 35.0837 35.4576 40.6737 35.7338 25.3175C35.7338 25.3175 41.1938 29.4612 44.4438 27.4787C44.4438 27.4787 44.4763 30.68 43.4688 33.0525C42.7863 34.6775 41.0151 36.2375 39.6826 37.3912C35.7338 40.8362 36.5626 45.565 37.6351 47.6937C39.0813 50.5537 42.0063 52.0325 46.2638 50.6187C48.3601 49.92 49.8388 48.3925 51.1225 48.425C52.3413 48.4412 53.17 50.0337 55.0063 50.7487C57.785 51.8212 62.5138 50.8137 65.26 47.6937C68.1688 44.3462 66.2188 40.7875 64.61 38.6587C63.6188 37.3425 62.2213 36.4325 61.23 34.645C59.995 32.4025 59.735 29.12 59.735 29.12L59.7513 29.0875Z" fill="#FA9F1B"/>
<path d="M44.1837 19.7925C44.1837 19.7925 45.0774 27.7875 43.8099 32.1262C42.5424 36.465 37.7812 37.2937 36.9362 41.9087C36.1399 46.1987 38.2524 51.1387 43.1274 51.155C47.4499 51.155 49.1724 48.4575 51.1224 48.425C52.2924 48.4087 52.9262 49.7737 54.8274 50.6512C56.4199 51.3825 60.2712 51.61 63.6837 49.1237C69.9399 44.5575 65.0974 38.8862 63.1149 36.985C61.1324 35.0837 59.7512 32.7275 59.6699 26.8775C59.5887 21.0275 59.3449 8.4987 59.3449 8.4987" stroke="#1D1C1B" stroke-width="2" stroke-miterlimit="10" stroke-linecap="round"/>
<path d="M53.4786 27.5762V8.31998" stroke="#1D1C1B" stroke-width="2" stroke-miterlimit="10" stroke-linecap="round"/>
<path d="M46.6537 37.05C46.6537 37.05 45.4025 38.9187 43.7612 40.8037C42.12 42.6887 43.2087 45.0125 44.7687 45.2562" stroke="#1D1C1B" stroke-width="2" stroke-miterlimit="10" stroke-linecap="round"/>
<path d="M39.6176 58.0937C39.6176 58.0937 43.2088 56.1275 46.8488 57.0375C49.8226 57.785 50.6676 59.8812 52.2113 59.9787C53.7551 60.0762 54.6976 57.9962 57.5413 57.9312C60.3851 57.8662 61.8313 58.5975 63.0338 59.475C64.2363 60.3525 67.2101 63.4887 64.5451 67.8275C61.8801 72.1662 59.9301 73.4337 59.7188 74.9775C59.5076 76.5212 59.7188 95.7775 59.7188 95.7775" stroke="#1D1C1B" stroke-width="2" stroke-miterlimit="10" stroke-linecap="round"/>
<path d="M54.7136 95.3875V82.81" stroke="#1D1C1B" stroke-width="2" stroke-miterlimit="10" stroke-linecap="round"/>
<path d="M45.0774 95.5175V76.245C45.0774 73.45 37.4886 71.1588 36.8224 65.8288" stroke="#1D1C1B" stroke-width="2" stroke-miterlimit="10" stroke-linecap="round"/>
<path d="M42.9161 64.1387C42.9161 64.1387 45.0611 60.7425 48.6849 64.0412C50.9436 66.105 54.0311 64.87 54.0311 64.87" stroke="#1D1C1B" stroke-width="2" stroke-miterlimit="10" stroke-linecap="round"/>
<path d="M37.8949 96.3625C37.8949 96.3625 39.6499 84.7275 42.1524 79.7225C43.2736 77.4962 44.8986 75.2537 44.8986 75.2537" stroke="#1D1C1B" stroke-width="2" stroke-miterlimit="10" stroke-linecap="round"/>
<path d="M38.3012 75.2537C38.3012 75.2537 33.4262 80.9412 32.4187 95.7612" stroke="#1D1C1B" stroke-width="2" stroke-miterlimit="10" stroke-linecap="round"/>
</svg>
