<svg width="104" height="104" viewBox="0 0 104 104" fill="none" xmlns="http://www.w3.org/2000/svg">
<path d="M58.3375 45.6625C58.3375 45.6625 56.875 39.975 50.05 36.725L44.2 42.0875C41.925 44.0375 41.7625 47.2875 43.7125 49.5625L44.525 50.5375C46.475 52.65 49.8875 52.975 52.1625 51.025L58.175 45.6625H58.3375Z" fill="#F89B20"/>
<path d="M41.925 31.85C44.9764 31.85 47.45 29.3764 47.45 26.325C47.45 23.2736 44.9764 20.8 41.925 20.8C38.8736 20.8 36.4 23.2736 36.4 26.325C36.4 29.3764 38.8736 31.85 41.925 31.85Z" fill="#F89B20"/>
<path d="M14.4625 53.4625C18.5908 53.4625 21.9375 50.1158 21.9375 45.9875C21.9375 41.8592 18.5908 38.5125 14.4625 38.5125C10.3342 38.5125 6.98749 41.8592 6.98749 45.9875C6.98749 50.1158 10.3342 53.4625 14.4625 53.4625Z" fill="#F89B20"/>
<path d="M41.925 63.05C44.1686 63.05 45.9875 61.2312 45.9875 58.9875C45.9875 56.7438 44.1686 54.925 41.925 54.925C39.6813 54.925 37.8625 56.7438 37.8625 58.9875C37.8625 61.2312 39.6813 63.05 41.925 63.05Z" fill="#F89B20"/>
<path d="M89.8625 39.1625C93.4523 39.1625 96.3625 36.2523 96.3625 32.6625C96.3625 29.0726 93.4523 26.1625 89.8625 26.1625C86.2726 26.1625 83.3625 29.0726 83.3625 32.6625C83.3625 36.2523 86.2726 39.1625 89.8625 39.1625Z" stroke="#2B2A28" stroke-width="2" stroke-miterlimit="10"/>
<path d="M74.9125 45.3375C77.3356 45.3375 79.3 43.3731 79.3 40.95C79.3 38.5268 77.3356 36.5625 74.9125 36.5625C72.4893 36.5625 70.525 38.5268 70.525 40.95C70.525 43.3731 72.4893 45.3375 74.9125 45.3375Z" fill="#2B2A28"/>
<path d="M43.3875 48.9125C41.925 46.9625 42.25 44.2 44.0375 42.4125C45.825 40.625 58.3375 28.925 58.3375 28.925C63.2125 26 66.625 30.225 66.625 30.225C68.9 32.9875 68.4125 36.5625 65.65 39C62.8875 41.4375 53.625 49.5625 53.625 49.5625" stroke="#2B2A28" stroke-width="2" stroke-miterlimit="10" stroke-linecap="round"/>
<path d="M60.9375 33.15L48.425 44.525" stroke="#2B2A28" stroke-width="2" stroke-miterlimit="10" stroke-linecap="round"/>
<path d="M24.8625 37.375C29.2601 37.375 32.825 33.8101 32.825 29.4125C32.825 25.0149 29.2601 21.45 24.8625 21.45C20.465 21.45 16.9 25.0149 16.9 29.4125C16.9 33.8101 20.465 37.375 24.8625 37.375Z" stroke="#2B2A28" stroke-width="2" stroke-miterlimit="10"/>
<path d="M21.775 31.0375L32.0125 25.675" stroke="#2B2A28" stroke-width="2" stroke-miterlimit="10" stroke-linecap="round"/>
<path d="M11.7 52.975L15.925 42.9" stroke="#2B2A28" stroke-width="2" stroke-miterlimit="10" stroke-linecap="round"/>
<path d="M40.625 24.05L44.85 30.875" stroke="#2B2A28" stroke-width="2" stroke-miterlimit="10" stroke-linecap="round"/>
<path d="M7.3125 43.7125C7.3125 43.7125 5.85 47.775 8.9375 51.025C12.025 54.275 17.0625 54.6 20.475 50.05" stroke="#2B2A28" stroke-width="2" stroke-miterlimit="10" stroke-linecap="round"/>
<path d="M50.375 74.9125C50.375 74.9125 44.6875 76.8625 42.0875 84.0125L48.2625 89.375C50.5375 91.4875 53.625 91.325 55.7375 89.05L56.55 88.075C58.5 85.9625 58.3375 82.55 56.225 80.4375L50.375 74.9125Z" fill="#F89B20"/>
<path d="M55.0875 89.5375C53.1375 91.1625 50.5375 91.1625 48.425 89.5375C46.3125 87.9125 33.6375 76.5375 33.6375 76.5375C30.225 71.9875 34.125 68.0875 34.125 68.0875C36.725 65.65 40.3 65.65 43.0625 68.0875C45.825 70.525 54.7625 78.8125 54.7625 78.8125" stroke="#2B2A28" stroke-width="2" stroke-miterlimit="10" stroke-linecap="round"/>
<path d="M37.5375 73.45L50.2125 84.825" stroke="#2B2A28" stroke-width="2" stroke-miterlimit="10" stroke-linecap="round"/>
<path d="M82.55 51.35C82.55 51.35 84.825 56.875 91.975 59.15L96.85 52.975C98.8 50.5375 98.8 47.2875 96.3625 45.3375L95.3875 44.525C93.1125 42.575 89.7 42.9 87.9125 45.175L82.55 51.1875V51.35Z" fill="#F89B20"/>
<path d="M97.175 46.15C98.6375 47.9375 98.8 50.8625 97.175 52.8125C95.55 54.7625 87.75 64.5125 85.6375 67.275C83.525 70.0375 84.6625 68.4125 84.0125 68.7375C80.1125 71.0125 76.7 67.925 76.7 67.925C74.1 65.4875 74.2625 62.2375 76.375 58.9875C78.4875 55.7375 85.3125 48.425 86.2875 47.125" stroke="#2B2A28" stroke-width="2" stroke-miterlimit="10" stroke-linecap="round"/>
<path d="M81.7375 64.1875L92.625 51.1875" stroke="#2B2A28" stroke-width="2" stroke-miterlimit="10" stroke-linecap="round"/>
<path d="M73.6125 30.0625C76.6639 30.0625 79.1375 27.5889 79.1375 24.5375C79.1375 21.4861 76.6639 19.0125 73.6125 19.0125C70.5611 19.0125 68.0875 21.4861 68.0875 24.5375C68.0875 27.5889 70.5611 30.0625 73.6125 30.0625Z" fill="#F89B20"/>
<path d="M71.5 26.1625L77.5125 20.8" stroke="#2B2A28" stroke-width="2" stroke-miterlimit="10" stroke-linecap="round"/>
<path d="M31.6875 52C34.5594 52 36.8875 49.6719 36.8875 46.8C36.8875 43.9281 34.5594 41.6 31.6875 41.6C28.8156 41.6 26.4875 43.9281 26.4875 46.8C26.4875 49.6719 28.8156 52 31.6875 52Z" fill="#2B2A28"/>
<path d="M62.8875 63.2125C62.8875 63.2125 61.1 58.3375 55.0875 55.9L50.5375 60.775C48.75 62.5625 48.9125 65.65 50.8625 67.4375L51.675 68.25C53.4625 70.0375 56.3875 69.875 58.175 68.0875L63.05 63.05L62.8875 63.2125Z" fill="#F89B20"/>
<path d="M50.2125 67.1125C48.9125 65.65 48.75 63.05 50.2125 61.425C51.675 59.8 61.75 48.9125 61.75 48.9125C65.65 46.15 68.9 49.4 68.9 49.4C71.0125 51.675 71.0125 54.6 68.9 57.0375C66.7875 59.3125 59.475 66.95 59.475 66.95" stroke="#2B2A28" stroke-width="2" stroke-miterlimit="10" stroke-linecap="round"/>
<path d="M24.8625 69.7125C28.7216 69.7125 31.85 66.5841 31.85 62.725C31.85 58.8659 28.7216 55.7375 24.8625 55.7375C21.0034 55.7375 17.875 58.8659 17.875 62.725C17.875 66.5841 21.0034 69.7125 24.8625 69.7125Z" stroke="#2B2A28" stroke-width="2" stroke-miterlimit="10"/>
<path d="M27.1375 60.6125L19.9875 67.7625" stroke="#2B2A28" stroke-width="2" stroke-miterlimit="10" stroke-linecap="round"/>
<path d="M67.275 83.2C71.4033 83.2 74.75 79.8533 74.75 75.725C74.75 71.5967 71.4033 68.25 67.275 68.25C63.1467 68.25 59.8 71.5967 59.8 75.725C59.8 79.8533 63.1467 83.2 67.275 83.2Z" fill="#F89B20"/>
<path d="M70.2 82.55L66.3 72.3125" stroke="#2B2A28" stroke-width="2" stroke-miterlimit="10" stroke-linecap="round"/>
<path d="M60.6125 78.975C60.6125 78.975 62.4 83.0375 67.1125 83.0375C71.825 83.0375 75.2375 79.7875 74.5875 74.425" stroke="#2B2A28" stroke-width="2" stroke-miterlimit="10" stroke-linecap="round"/>
</svg>
