<svg width="104" height="104" viewBox="0 0 104 104" fill="none" xmlns="http://www.w3.org/2000/svg">
<path d="M34.6613 54.47C34.6613 54.47 46.995 71.7275 49.1562 75.1563C51.3175 78.585 50.375 82.29 47.775 84.7275C45.5488 86.8075 39.8125 89.375 34.1088 82.4038C28.405 75.4325 20.7838 64.2037 20.7838 64.2037L34.6613 54.47Z" fill="#FA9F1B"/>
<path d="M68.4937 61.3763C68.4937 61.3763 75.4 41.3075 76.9275 37.57C78.455 33.8325 82.03 32.435 85.5237 33.15C88.5137 33.7513 93.925 36.9363 91.5525 45.63C89.18 54.3238 84.5325 67.145 84.5325 67.145L68.4775 61.3925L68.4937 61.3763Z" fill="#FA9F1B"/>
<path d="M52.3575 42.6563C58.7923 42.6563 64.0087 37.4398 64.0087 31.005C64.0087 24.5702 58.7923 19.3538 52.3575 19.3538C45.9227 19.3538 40.7062 24.5702 40.7062 31.005C40.7062 37.4398 45.9227 42.6563 52.3575 42.6563Z" fill="#FA9F1B"/>
<path d="M47.7263 35.7988L57.0863 26.4388" stroke="white" stroke-width="2" stroke-miterlimit="10" stroke-linecap="round"/>
<path d="M47.7263 26.2113L57.0863 35.5875" stroke="white" stroke-width="2" stroke-miterlimit="10" stroke-linecap="round"/>
<path d="M50.83 42.5263C50.83 42.5263 49.1887 42.4775 47.1412 41.4213C44.2325 39.91 40.56 36.4975 40.7225 30.7938C40.9987 21.4013 50.7487 17.0463 57.6062 20.6213C63.0175 23.4488 65.8287 29.8025 62.7412 36.3675" stroke="#1D1C1B" stroke-width="2" stroke-miterlimit="10" stroke-linecap="round"/>
<path d="M31.785 79.365L27.5762 73.84" stroke="#1D1C1B" stroke-width="2" stroke-miterlimit="10" stroke-linecap="round"/>
<path d="M24.5212 69.485C24.5212 69.485 15.7462 57.2488 12.8862 53.1863C7.21498 45.1588 19.3862 34.5638 26.8612 43.9238C32.0612 50.44 46.4425 70.9475 49.0912 75.1075C54.145 83.0538 42.3312 92.9175 34.1412 82.4525" stroke="#1D1C1B" stroke-width="2" stroke-miterlimit="10" stroke-linecap="round"/>
<path d="M24.2775 61.7338L35.1162 54.1775" stroke="#1D1C1B" stroke-width="2" stroke-miterlimit="10" stroke-linecap="round"/>
<path d="M52.195 63.6838L60.4338 56.9725L53.3488 49.8875" stroke="#1D1C1B" stroke-width="2" stroke-miterlimit="10" stroke-linecap="round"/>
<path d="M90.48 49.335L88.5625 55.4288" stroke="#1D1C1B" stroke-width="2" stroke-miterlimit="10" stroke-linecap="round"/>
<path d="M87.0675 59.93C87.0675 59.93 81.8025 75.1888 80.1613 79.8688C76.9438 89.1638 61.23 85.4425 64.4963 73.905C66.7713 65.8775 75.0425 42.2338 76.8788 37.6675C80.3888 28.9413 95.29 32.7925 91.5525 45.5325" stroke="#1D1C1B" stroke-width="2" stroke-miterlimit="10" stroke-linecap="round"/>
<path d="M80.4862 65.65L68.0225 61.2462" stroke="#1D1C1B" stroke-width="2" stroke-miterlimit="10" stroke-linecap="round"/>
<path d="M59.345 56.9238L46.1663 55.8025" stroke="#1D1C1B" stroke-width="2" stroke-miterlimit="10" stroke-linecap="round"/>
<path d="M75.9525 56.7125L81.2175 41.99" stroke="white" stroke-width="2" stroke-miterlimit="10" stroke-linecap="round"/>
<path d="M42.8512 75.27L33.7675 62.5462" stroke="white" stroke-width="2" stroke-miterlimit="10" stroke-linecap="round"/>
</svg>
