<svg width="104" height="104" viewBox="0 0 104 104" fill="none" xmlns="http://www.w3.org/2000/svg">
<path d="M47.4663 45.3375C49.4488 42.7537 54.535 38.2362 63.7325 38.61C65.0325 38.6587 66.04 39.78 65.9425 41.0637C65.6663 44.8662 64.545 52.4387 59.93 56.16C55.0225 60.1087 50.7325 58.9062 48.4088 56.8425C44.6225 53.4787 45.3213 48.1162 47.4663 45.3212V45.3375Z" fill="#FA9F1B"/>
<path d="M28.1613 37.7487C29.7213 35.7175 33.7188 32.1587 40.95 32.4512C41.9738 32.5 42.7538 33.3612 42.6888 34.385C42.4775 37.375 41.5838 43.3225 37.96 46.2475C34.1088 49.3512 30.7288 48.4087 28.8925 46.7837C25.9188 44.135 26.4713 39.9262 28.1613 37.7325V37.7487Z" fill="#FA9F1B"/>
<path d="M52.26 70.6388C53.82 68.6075 57.8175 65.0487 65.0487 65.3412C66.0725 65.39 66.8525 66.2513 66.7875 67.275C66.5762 70.265 65.6825 76.2125 62.0587 79.1375C58.2075 82.2413 54.8275 81.2987 52.9913 79.6737C50.0175 77.025 50.57 72.8162 52.26 70.6225V70.6388Z" fill="#FA9F1B"/>
<path d="M44.3625 53.7225C44.3625 53.7225 42.6075 57.6387 44.005 59.6212C44.8337 60.8075 47.3687 61.0188 51.5775 58.305" stroke="#1D1C1B" stroke-width="2" stroke-miterlimit="10" stroke-linecap="round"/>
<path d="M17.5012 85.7513C17.5012 85.7513 25.6262 83.5088 28.4537 80.6813C31.2812 77.8538 30.81 76.0825 30.81 70.0863C30.81 64.09 34.2225 62.4975 40.04 62.0263C42.7537 61.7988 44.7362 60.0438 44.7362 60.0438" stroke="#1D1C1B" stroke-width="2" stroke-miterlimit="10" stroke-linecap="round"/>
<path d="M47.19 55.6563C47.19 55.6563 50.7 60.4825 56.5012 58.11C61.49 56.0625 64.935 51.4313 65.8125 42.4775" stroke="#1D1C1B" stroke-width="2" stroke-miterlimit="10" stroke-linecap="round"/>
<path d="M59.8487 45.5975C59.8487 45.5975 59.345 49.9525 56.9075 51.87C54.47 53.7875 53.0562 52.9913 53.0562 52.9913" stroke="#1D1C1B" stroke-width="2" stroke-miterlimit="10" stroke-linecap="round"/>
<path d="M35.7337 95.5338C35.7337 95.5338 41.9412 94.7213 43.4687 91.13C44.9962 87.5388 42.575 84.4838 44.72 82.2413C46.865 79.9988 50.2125 83.005 52.9912 79.69" stroke="#1D1C1B" stroke-width="2" stroke-miterlimit="10" stroke-linecap="round"/>
<path d="M51.09 76.8137C51.09 76.8137 52.4875 80.4862 56.3875 81.12C60.2875 81.7537 64.3662 78.26 65.9262 72.3287" stroke="#1D1C1B" stroke-width="2" stroke-miterlimit="10" stroke-linecap="round"/>
<path d="M56.9725 77.1225C56.9725 77.1225 59.215 77.2363 61.7012 72.1663" stroke="#1D1C1B" stroke-width="2" stroke-miterlimit="10" stroke-linecap="round"/>
<path d="M11.18 65.195C11.18 65.195 16.8025 63.3262 18.3137 59.4425C19.825 55.5587 17.3062 52.0487 20.1825 49.4325C22.6687 47.1575 25.3175 50.18 28.9412 46.8" stroke="#1D1C1B" stroke-width="2" stroke-miterlimit="10" stroke-linecap="round"/>
<path d="M27.235 44.395C27.235 44.395 28.6162 48.685 33.4587 48.2625C38.3012 47.84 41.21 42.8675 42.1037 38.3012" stroke="#1D1C1B" stroke-width="2" stroke-miterlimit="10" stroke-linecap="round"/>
<path d="M60.0762 36.1725C60.0762 36.1725 57.7362 22.4087 70.2 20.735C79.1375 19.5325 83.4762 25.6262 84.2237 31.2487C84.8737 36.1887 81.8837 46.1825 69.0462 45.1425" stroke="#1D1C1B" stroke-width="2" stroke-miterlimit="10" stroke-linecap="round"/>
<path d="M67.99 27.9987C67.99 27.9987 72.41 23.1887 76.9437 27.9987" stroke="#1D1C1B" stroke-width="2" stroke-miterlimit="10" stroke-linecap="round"/>
<path d="M48.7825 39.6825C48.7825 39.6825 45.9225 27.7388 52.8125 19.045C59.7025 10.3513 69.355 8.84 77.9837 10.7413C87.4575 12.8213 95.29 21.7588 94.9812 32.9388C94.7212 42.4125 90.4312 51.8863 80.8275 54.8763C72.1987 57.5575 66.4137 55.6563 66.4137 55.6563" stroke="#1D1C1B" stroke-width="2" stroke-miterlimit="10" stroke-linecap="round"/>
</svg>
