<svg width="104" height="104" viewBox="0 0 104 104" fill="none" xmlns="http://www.w3.org/2000/svg">
<path d="M58.0288 32.6138H45.7438V90.22H58.0288V32.6138Z" fill="#F89B20"/>
<path d="M30.9075 32.5813H42.9C42.9 32.5813 38.6588 30.7938 34.9375 29.12C31.785 27.7225 29.9813 26.0325 29.38 24.4725C29.0063 23.5138 29.185 22.49 29.6238 21.645C30.3875 20.1663 32.0288 19.24 34.2713 19.3538C37.7488 19.5488 46.93 22.4738 50.375 32.5975H54.7138C54.7138 32.5975 55.3638 29.6563 57.2325 26.4388C59.1013 23.2213 62.075 19.9713 67.1938 19.2075C71.4188 18.5738 74.2463 20.6538 74.6038 22.6038C74.9938 24.7325 72.8325 26.4713 71.1913 27.82C68.4125 30.1113 62.0425 32.5975 62.0425 32.5975H72.215C72.215 32.5975 77.2525 31.005 79.3813 27.4625C79.8688 26.65 80.3563 25.8375 80.6325 24.7488C81.315 22.1163 81.0388 18.7688 78.6988 16.0388C75.4488 12.2688 70.8825 12.1875 66.7063 12.7563C60.7588 13.5688 54.7625 19.7113 51.9675 26.4225C51.9675 26.4225 48.7013 20.1013 44.2325 16.4938C43.0788 15.5675 40.9013 13.8288 37.8788 12.9838C34.8563 12.1388 30.485 12.025 27.0238 14.3C21.9213 17.6475 22.36 22.8638 23.4488 25.6913C25.285 30.4525 30.9238 32.565 30.9238 32.565L30.9075 32.5813Z" fill="#F89B20"/>
<path d="M22.1487 47.84V90.35H64.6912" stroke="#2B2A28" stroke-width="2" stroke-miterlimit="10" stroke-linecap="round"/>
<path d="M81.4613 48.3275V90.3825H70.6388" stroke="#2B2A28" stroke-width="2" stroke-miterlimit="10" stroke-linecap="round"/>
<path d="M45.7112 42.2825V89.7162" stroke="#2B2A28" stroke-width="2" stroke-miterlimit="10" stroke-linecap="round"/>
<path d="M58.045 32.5163V83.2813" stroke="#2B2A28" stroke-width="2" stroke-miterlimit="10" stroke-linecap="round"/>
<path d="M45.76 37.9113V32.5163" stroke="#2B2A28" stroke-width="2" stroke-miterlimit="10" stroke-linecap="round"/>
<path d="M45.5 47.4663H20.1013C19.3538 47.4663 18.7525 46.865 18.7525 46.1175V33.9463C18.7525 33.1988 19.3538 32.5975 20.1013 32.5975H83.785C84.5325 32.5975 85.1337 33.1988 85.1337 33.9463V46.3288C85.1337 47.0763 84.5325 47.6775 83.785 47.6775H58.5975" stroke="#2B2A28" stroke-width="2" stroke-miterlimit="10" stroke-linecap="round"/>
<path d="M72.3775 32.5325C72.3775 32.5325 81.4288 29.8675 80.8925 21.5638C80.535 16.055 75.6763 10.92 65.9913 12.935C56.5663 14.9013 51.935 26.455 51.935 26.455C51.935 26.455 46.1988 14.495 36.6113 12.7238C28.5188 11.2288 23.205 16.0225 22.7663 21.0275C22.3275 26.0325 25.22 30.0788 30.745 32.5325" stroke="#2B2A28" stroke-width="2" stroke-miterlimit="10" stroke-linecap="round"/>
<path d="M55.965 28.9088C55.965 28.9088 58.3375 23.1888 62.595 20.8163C69.94 16.705 76.96 20.8163 73.8725 25.1875C70.785 29.5588 61.945 32.6463 61.945 32.6463" stroke="#2B2A28" stroke-width="2" stroke-miterlimit="10" stroke-linecap="round"/>
<path d="M50.3425 32.5325C50.3425 32.5325 48.6363 26.9913 43.9563 23.3838C39.2763 19.7763 32.1425 17.5338 29.8025 21.3688C27.4625 25.2038 32.565 28.1775 34.9375 29.1525" stroke="#2B2A28" stroke-width="2" stroke-miterlimit="10" stroke-linecap="round"/>
</svg>
