<svg width="104" height="104" viewBox="0 0 104 104" fill="none" xmlns="http://www.w3.org/2000/svg">
<path d="M56.5374 37.2187H47.2629V80.7079H56.5374V37.2187Z" fill="#F89B20"/>
<path d="M36.0625 37.1941H45.1161C45.1161 37.1941 41.9142 35.8447 39.1049 34.5811C36.7249 33.5261 35.3632 32.2502 34.9093 31.0725C34.6272 30.3487 34.7621 29.5759 35.0933 28.938C35.6699 27.8216 36.909 27.1223 38.6019 27.2082C41.2272 27.3554 48.1585 29.5636 50.7592 37.2064H54.0347C54.0347 37.2064 54.5254 34.986 55.9362 32.5569C57.347 30.1279 59.592 27.6744 63.4564 27.0978C66.646 26.6193 68.7806 28.1896 69.0505 29.6617C69.3449 31.2688 67.7133 32.5815 66.4742 33.5997C64.3764 35.3294 59.5675 37.2064 59.5675 37.2064H67.2471C67.2471 37.2064 71.0501 36.0042 72.6572 33.3298C73.0252 32.7164 73.3932 32.103 73.6018 31.2811C74.117 29.2937 73.9085 26.7666 72.1419 24.7056C69.6884 21.8595 66.2411 21.7981 63.0883 22.2275C58.5983 22.8409 54.0715 27.4781 51.9615 32.5447C51.9615 32.5447 49.4957 27.7725 46.122 25.0491C45.251 24.3498 43.6071 23.0372 41.3253 22.3992C39.0435 21.7613 35.7435 21.6754 33.1305 23.3929C29.2784 25.9201 29.6096 29.858 30.4316 31.9926C31.8178 35.5871 36.0748 37.1819 36.0748 37.1819L36.0625 37.1941Z" fill="#F89B20"/>
<path d="M29.4502 48.7135V80.806H59.5672" stroke="#2B2A28" stroke-width="2" stroke-miterlimit="10" stroke-linecap="round"/>
<path d="M74.2275 49.0816V57.8305" stroke="#2B2A28" stroke-width="2" stroke-miterlimit="10" stroke-linecap="round"/>
<path d="M47.2385 44.518V80.3275" stroke="#2B2A28" stroke-width="2" stroke-miterlimit="10" stroke-linecap="round"/>
<path d="M56.5497 37.1451V75.4695" stroke="#2B2A28" stroke-width="2" stroke-miterlimit="10" stroke-linecap="round"/>
<path d="M47.2753 41.2179V37.1451" stroke="#2B2A28" stroke-width="2" stroke-miterlimit="10" stroke-linecap="round"/>
<path d="M47.0789 48.4314H27.9045C27.3401 48.4314 26.8862 47.9775 26.8862 47.4132V38.2246C26.8862 37.6603 27.3401 37.2064 27.9045 37.2064H75.9818C76.5461 37.2064 77 37.6603 77 38.2246V47.5726C77 48.137 76.5461 48.5909 75.9818 48.5909H56.9667" stroke="#2B2A28" stroke-width="2" stroke-miterlimit="10" stroke-linecap="round"/>
<path d="M67.3699 37.1573C67.3699 37.1573 74.203 35.1454 73.7982 28.8766C73.5283 24.7178 69.8602 20.8412 62.5486 22.3624C55.4333 23.8468 51.937 32.5692 51.937 32.5692C51.937 32.5692 47.6065 23.5401 40.3685 22.2029C34.2592 21.0743 30.2476 24.6933 29.9164 28.4718C29.5852 32.2502 31.7688 35.3049 35.9399 37.1573" stroke="#2B2A28" stroke-width="2" stroke-miterlimit="10" stroke-linecap="round"/>
<path d="M54.9794 34.4216C54.9794 34.4216 56.7705 30.1033 59.9846 28.3123C65.5296 25.2085 70.8293 28.3123 68.4984 31.6123C66.1676 34.9123 59.4939 37.2432 59.4939 37.2432" stroke="#2B2A28" stroke-width="2" stroke-miterlimit="10" stroke-linecap="round"/>
<path d="M50.7348 37.1573C50.7348 37.1573 49.4467 32.974 45.9136 30.2506C42.3805 27.5271 36.9949 25.8342 35.2284 28.7294C33.4618 31.6246 37.3139 33.8696 39.105 34.6056" stroke="#2B2A28" stroke-width="2" stroke-miterlimit="10" stroke-linecap="round"/>
<path d="M74 86.0052C80.6274 86.0052 86 80.6326 86 74.0052C86 67.3777 80.6274 62.0052 74 62.0052C67.3726 62.0052 62 67.3777 62 74.0052C62 80.6326 67.3726 86.0052 74 86.0052Z" fill="#FA9F1B"/>
<path d="M67.1214 74.1228H80.7783" stroke="white" stroke-width="2" stroke-miterlimit="10" stroke-linecap="round" stroke-linejoin="round"/>
<path d="M74.1172 67.1437V80.7839" stroke="white" stroke-width="2" stroke-miterlimit="10" stroke-linecap="round" stroke-linejoin="round"/>
<path d="M64.4938 81.286C64.4938 81.286 63.339 80.0642 62.6193 77.7881C61.5984 74.5747 61.4143 69.4032 65.682 65.3864C72.7113 58.7421 82.9875 62.6751 85.3808 70.2735C87.272 76.2818 84.6779 82.9429 77.6486 85.4868" stroke="#1D1C1B" stroke-width="2" stroke-miterlimit="10" stroke-linecap="round" stroke-linejoin="round"/>
<path d="M91.4982 39C96.1916 39 99.9963 35.1952 99.9963 30.5018C99.9963 25.8084 96.1916 22.0037 91.4982 22.0037C86.8048 22.0037 83 25.8084 83 30.5018C83 35.1952 86.8048 39 91.4982 39Z" fill="#FA9F1B"/>
<path d="M86.6269 30.5852H96.2985" stroke="white" stroke-width="2" stroke-miterlimit="10" stroke-linecap="round" stroke-linejoin="round"/>
<path d="M91.5812 25.6427V35.3024" stroke="white" stroke-width="2" stroke-miterlimit="10" stroke-linecap="round" stroke-linejoin="round"/>
<path d="M84.766 35.658C84.766 35.658 83.9482 34.7928 83.4386 33.1808C82.7156 30.9052 82.5852 27.2428 85.6076 24.3982C90.5856 19.6928 97.8629 22.4781 99.5578 27.8591C100.897 32.1141 99.06 36.8314 94.082 38.6329" stroke="#1D1C1B" stroke-width="2" stroke-miterlimit="10" stroke-linecap="round" stroke-linejoin="round"/>
<path d="M16.6981 69.7104C21.2316 68.4957 23.922 63.8358 22.7072 59.3023C21.4925 54.7688 16.8326 52.0784 12.2991 53.2932C7.76563 54.5079 5.07526 59.1678 6.29 63.7013C7.50475 68.2348 12.1646 70.9251 16.6981 69.7104Z" fill="#FA9F1B"/>
<path d="M9.81488 62.843L19.1569 60.3399" stroke="white" stroke-width="2" stroke-miterlimit="10" stroke-linecap="round" stroke-linejoin="round"/>
<path d="M13.3212 56.7867L15.8213 66.1173" stroke="white" stroke-width="2" stroke-miterlimit="10" stroke-linecap="round" stroke-linejoin="round"/>
<path d="M9.3304 68.2246C9.3304 68.2246 8.31651 67.6006 7.40703 66.1755C6.11968 64.1645 5.04585 60.6606 7.229 57.1307C10.8195 51.2973 18.5698 52.1041 21.5997 56.8631C23.9946 60.6265 23.441 65.6585 19.0989 68.6871" stroke="#1D1C1B" stroke-width="2" stroke-miterlimit="10" stroke-linecap="round" stroke-linejoin="round"/>
<path d="M12.2626 22.525C10.8001 21.7125 4.78755 18.1375 7.55005 13.9125C10.3126 9.68749 13.4001 11.8 14.8626 13.1C15.2984 13.4874 15.5126 13.1 15.5126 12.9375C15.8376 11.15 18.1126 7.73748 21.6876 9.03748C25.2626 10.3375 24.2875 17 23.475 18.4625C22.6625 19.925 20.5501 23.6625 19.7376 24.9625C19.5344 25.2875 19.2501 25.2875 18.9251 25.2875C17.4626 24.8 13.4001 23.175 12.1001 22.525H12.2626Z" fill="#2B2A28"/>
</svg>
