<svg width="104" height="104" viewBox="0 0 104 104" fill="none" xmlns="http://www.w3.org/2000/svg">
<path d="M55.0967 33.8821L55.1942 18.7859C55.1942 13.1796 60.1017 10.9209 64.9767 11.0021C69.8517 11.0834 74.1092 14.6584 74.8892 18.0384" stroke="#1D1C1B" stroke-width="2" stroke-miterlimit="10" stroke-linecap="round"/>
<path d="M55.3403 73.9384C55.3403 73.9384 64.4891 68.2996 66.9266 78.9596" stroke="#1D1C1B" stroke-width="2" stroke-miterlimit="10" stroke-linecap="round"/>
<path d="M67.6416 68.8196C67.6416 68.8196 72.1754 71.0784 75.3441 67.5684C78.5129 64.0584 75.5716 58.3871 75.5716 58.3871" stroke="#1D1C1B" stroke-width="2" stroke-miterlimit="10" stroke-linecap="round"/>
<path d="M80.6741 74.6209C80.6741 74.6209 87.6778 74.3121 91.5128 67.8771C94.1291 63.4734 91.6428 57.5584 89.0591 54.8771" stroke="#1D1C1B" stroke-width="2" stroke-miterlimit="10" stroke-linecap="round"/>
<path d="M79.1143 53.8696C79.1143 53.8696 85.8418 55.0884 87.9055 50.4084C89.9693 45.7284 86.4105 40.7721 80.6093 40.6909" stroke="#1D1C1B" stroke-width="2" stroke-miterlimit="10" stroke-linecap="round"/>
<path d="M74.5317 23.0271C74.5317 23.0271 84.168 22.0034 88.1817 28.1621C92.1955 34.3209 88.9292 40.4959 86.4105 43.2096" stroke="#1D1C1B" stroke-width="2" stroke-miterlimit="10" stroke-linecap="round"/>
<path d="M55.3079 30.0959C55.3079 30.0959 62.0841 31.3959 64.4404 27.5771C66.7966 23.7584 63.9204 19.5821 63.9204 19.5821" stroke="#1D1C1B" stroke-width="2" stroke-miterlimit="10" stroke-linecap="round"/>
<path d="M68.2593 27.3821C68.2593 27.3821 76.173 23.8234 74.6943 32.6796" stroke="#1D1C1B" stroke-width="2" stroke-miterlimit="10" stroke-linecap="round"/>
<path d="M49.4254 74.6371C49.4254 74.6371 40.2766 68.9984 37.8391 79.6584" stroke="#1D1C1B" stroke-width="2" stroke-miterlimit="10" stroke-linecap="round"/>
<path d="M37.1242 69.5184C37.1242 69.5184 32.5904 71.7771 29.4217 68.2671C26.2529 64.7571 29.1942 59.0859 29.1942 59.0859" stroke="#1D1C1B" stroke-width="2" stroke-miterlimit="10" stroke-linecap="round"/>
<path d="M25.2292 74.6046C25.2292 74.6046 18.2417 75.1246 13.6754 69.1609C10.5554 65.0821 12.3429 58.9234 14.5854 55.9659" stroke="#1D1C1B" stroke-width="2" stroke-miterlimit="10" stroke-linecap="round"/>
<path d="M25.6517 54.5684C25.6517 54.5684 18.9242 55.7871 16.8604 51.1071C14.7967 46.4271 18.3554 41.4709 24.1567 41.3896" stroke="#1D1C1B" stroke-width="2" stroke-miterlimit="10" stroke-linecap="round"/>
<path d="M30.2342 23.7259C30.2342 23.7259 20.5979 22.7021 16.5842 28.8609C12.5704 35.0196 15.8367 41.1946 18.3554 43.9084" stroke="#1D1C1B" stroke-width="2" stroke-miterlimit="10" stroke-linecap="round"/>
<path d="M49.1655 30.0796C49.1655 30.0796 42.3893 31.3796 40.033 27.5609C37.6768 23.7421 40.553 19.5659 40.553 19.5659" stroke="#1D1C1B" stroke-width="2" stroke-miterlimit="10" stroke-linecap="round"/>
<path d="M36.0192 28.5684C36.0192 28.5684 28.1054 25.0096 29.5842 33.8659" stroke="#1D1C1B" stroke-width="2" stroke-miterlimit="10" stroke-linecap="round"/>
<path d="M39.1554 59.1184C36.5879 56.4534 26.4642 44.4771 35.5479 37.3759C42.3567 32.0459 49.0517 37.9446 51.3917 40.0409C51.8304 40.4309 52.4967 40.4309 52.9192 40.0409C55.1779 37.9934 62.1979 31.9809 68.9742 37.2784C78.0579 44.3796 68.4054 56.0796 65.8379 58.7446C63.7254 60.9384 55.8929 67.5521 53.2442 69.7784C52.7242 70.2171 51.9767 70.2171 51.4567 69.7784C48.6942 67.5196 41.2842 61.3284 39.1554 59.1184Z" fill="#FA9F1B"/>
<path d="M36.6854 46.7684C36.6854 46.7684 36.1816 39.6509 42.9904 40.4634" stroke="white" stroke-width="2" stroke-miterlimit="10" stroke-linecap="round"/>
<path d="M72.7443 45.9721C71.7205 52.3259 67.8693 57.4121 61.1093 63.0184C57.9405 65.6509 55.2593 68.0559 55.2593 68.0559V88.8559C55.2593 88.8559 65.4155 95.1609 75.0518 89.0346C84.688 82.9084 79.423 69.0634 79.423 69.0634" stroke="#1D1C1B" stroke-width="2" stroke-miterlimit="10" stroke-linecap="round"/>
<path d="M49.9617 34.4346L49.8642 19.3384C49.8642 13.7321 44.9567 11.4734 40.0817 11.5546C35.2067 11.6359 30.9492 15.2109 30.1692 18.5909" stroke="#1D1C1B" stroke-width="2" stroke-miterlimit="10" stroke-linecap="round"/>
<path d="M32.1029 47.0771C33.3379 52.5371 37.2054 57.8834 43.9492 63.4896C47.1179 66.1221 49.7017 68.2996 49.7017 68.2996L49.7829 89.4084C49.7829 89.4084 39.6267 95.7134 29.9904 89.5871C20.3542 83.4609 25.6192 69.6159 25.6192 69.6159" stroke="#1D1C1B" stroke-width="2" stroke-miterlimit="10" stroke-linecap="round"/>
</svg>
