<svg width="104" height="104" viewBox="0 0 104 104" fill="none" xmlns="http://www.w3.org/2000/svg">
<path d="M73.775 55.575L51.35 26.325L6.98751 57.2C6.66251 57.525 6.50001 58.0125 6.66251 58.3375C6.98751 58.9875 7.47501 59.9625 7.47501 61.2625C7.47501 62.5625 6.50001 63.7 6.01251 64.35C5.52501 65 5.68751 65.1625 6.01251 65.4875L19.9875 85.9625C20.3125 86.45 20.8 86.45 21.2875 86.125C22.1 85.6375 23.5625 84.9875 25.025 85.15C26.4875 85.3125 27.7875 86.2875 28.275 86.9375C28.7625 87.5875 29.0875 87.2625 29.4125 86.9375L73.9375 55.4125L73.775 55.575Z" fill="#F89B20"/>
<path d="M11.05 54.275L61.425 19.175C61.9125 18.85 62.4 18.85 62.8875 19.175C63.375 19.5 64.025 19.9875 64.8375 20.15C65.65 20.3125 66.625 20.15 67.1125 20.15C67.6 20.15 68.0875 20.15 68.4125 20.6375L84.3375 41.275C84.6625 41.7625 84.825 42.4125 84.3375 43.0625C83.85 43.875 83.525 45.5 84.3375 47.45C85.15 49.4 84.3375 48.2625 84.0125 48.425L29.4125 87.1" stroke="#2B2A28" stroke-width="2" stroke-miterlimit="10" stroke-linecap="round"/>
<path d="M57.6875 28.1125L62.725 24.2125C63.5375 23.725 64.5125 23.725 65.1625 24.5375L79.1375 42.0875C79.7875 42.9 79.625 43.875 78.8125 44.525L74.75 47.6125C73.9375 48.2625 72.9625 48.1 72.3125 47.2875L60.125 31.85" stroke="#2B2A28" stroke-width="2" stroke-miterlimit="10" stroke-linecap="round"/>
<path d="M64.3501 30.3875L73.2876 41.275" stroke="#2B2A28" stroke-width="2" stroke-miterlimit="10" stroke-linecap="round"/>
<path d="M43.6218 49.375C44.8978 48.7164 45.1313 46.6309 44.1434 44.7169C43.1555 42.8029 41.3203 41.7851 40.0443 42.4437C38.7683 43.1023 38.5347 45.1878 39.5226 47.1018C40.5105 49.0158 42.3458 50.0335 43.6218 49.375Z" fill="white"/>
<path d="M58.2636 50.7918C59.5396 50.1332 59.7732 48.0477 58.7853 46.1337C57.7974 44.2197 55.9621 43.202 54.6861 43.8606C53.4101 44.5192 53.1766 46.6047 54.1645 48.5187C55.1524 50.4327 56.9876 51.4504 58.2636 50.7918Z" fill="white"/>
<path d="M48.5375 37.2L50.325 55.725" stroke="white" stroke-width="2" stroke-miterlimit="10" stroke-linecap="round"/>
<path d="M52.6 62.0625L62.35 55.725" stroke="white" stroke-width="2" stroke-miterlimit="10" stroke-linecap="round"/>
<path d="M73.1251 18.525L91.8126 41.925C92.1376 42.4125 92.3001 43.0625 91.9751 43.7125C91.4876 44.6875 91.1626 46.15 91.9751 48.1C92.7876 50.05 91.9751 48.9125 91.6501 49.075L36.8876 88.4" stroke="#2B2A28" stroke-width="2" stroke-miterlimit="10" stroke-linecap="round"/>
<path d="M80.2751 19.6625L98.9626 43.0625C99.2876 43.55 99.4501 44.2 99.1251 44.85C98.6376 45.825 98.3126 47.2875 99.1251 49.2375C99.9376 51.1875 99.1251 50.05 98.8001 50.2125L44.0376 89.5375" stroke="#2B2A28" stroke-width="2" stroke-miterlimit="10" stroke-linecap="round"/>
<path d="M27.9927 75.1716C25.7362 76.7609 23.4848 76.7319 21.6792 75.1268C21.5018 74.9582 21.517 74.7714 21.6659 74.6078L22.4558 73.7286C22.6047 73.565 22.7974 73.5467 22.9748 73.7153C24.1514 74.6773 25.5769 74.7008 26.9701 73.7196C28.5398 72.6141 28.8786 70.761 27.9113 69.3874C26.9024 67.955 25.0814 67.8285 23.492 68.9479L22.9034 69.3624C22.7268 69.4868 22.5261 69.452 22.4017 69.2754L21.849 68.4905C21.7246 68.3139 21.7594 68.1133 21.936 67.9889L22.5247 67.5743C24.0356 66.5102 24.1883 64.9349 23.373 63.7772C22.4747 62.5018 21.0113 62.2995 19.6182 63.2807C18.4212 64.1237 18.0139 65.3792 18.4404 66.6934C18.5197 66.9311 18.4573 67.0925 18.2392 67.158L17.1904 67.5444C16.9723 67.6099 16.7913 67.5613 16.712 67.3236C16.0867 65.2688 16.7511 63.1277 18.674 61.7734C20.9894 60.1427 23.4757 60.5052 24.8991 62.5263C25.6177 63.5466 25.8916 65.1443 25.1115 66.6625C26.9723 66.2619 28.5886 66.973 29.5006 68.268C31.1175 70.5638 30.4847 73.4166 27.9927 75.1716ZM39.1388 67.3217C36.274 69.3393 32.4243 67.9996 29.6328 64.0359C26.8413 60.0723 26.8768 55.9963 29.7416 53.9787C32.5868 51.9749 36.4365 53.3146 39.228 57.2783C42.0195 61.2419 41.984 65.3179 39.1388 67.3217ZM38.1162 65.8696C39.9999 64.543 39.8024 61.5117 37.619 58.4114C35.4355 55.3112 32.648 54.1041 30.7642 55.4307C28.8609 56.7712 29.0583 59.8025 31.2418 62.9027C33.4253 66.003 36.2128 67.2101 38.1162 65.8696Z" fill="white"/>
</svg>
