<svg width="104" height="104" viewBox="0 0 104 104" fill="none" xmlns="http://www.w3.org/2000/svg">
<path d="M41.6713 87.9793H64.8925V62.4993C64.8925 56.3568 59.7413 51.3843 53.4038 51.3843H52.2175C46.3838 51.3843 41.6713 55.9505 41.6713 61.5893V87.963V87.9793Z" fill="#F89B20"/>
<path d="M22.7563 14.2205C22.7563 14.2205 24.1375 8.38676 30.5238 9.05301C36.91 9.71926 36.39 15.553 35.8538 17.763C35.0088 21.2893 28.07 32.2255 28.07 32.2255C28.07 32.2255 17.9625 28.033 15.3788 26.603C12.6488 25.108 9.43125 20.3143 11.3975 16.5443C13.3638 12.7743 17.0688 10.7918 22.74 14.2205H22.7563Z" fill="#F89B20"/>
<path d="M83.0438 36.3205C82.3938 36.8893 81.5 34.533 79.68 34.143C76.6575 33.493 74.285 34.5168 72.9363 37.1818C71.3925 40.2043 71.88 44.0718 74.1875 47.5655C76.2838 50.7343 79.7125 53.9518 83.58 50.6693C83.58 50.6693 86.5538 53.643 89.8525 50.7343C93.1513 47.8255 95.41 42.7393 94.2075 38.6443C93.005 34.5493 89.7875 34.013 88.9913 33.883C86.8788 33.558 83.4988 35.9305 83.0438 36.3205Z" fill="#F89B20"/>
<path d="M47.57 76.8643V64.108C47.57 61.5893 50.3975 60.1755 50.3975 60.1755" stroke="white" stroke-width="2" stroke-miterlimit="10" stroke-linecap="round"/>
<path d="M53.29 58.3311C53.29 59.1523 53.9557 59.818 54.7769 59.818C55.598 59.818 56.2637 59.1523 56.2637 58.3311C56.2637 57.51 55.598 56.8443 54.7769 56.8443C53.9557 56.8443 53.29 57.51 53.29 58.3311Z" fill="white"/>
<path d="M38.0637 87.1668H17.1338C17.1338 87.1668 17.1338 64.9855 17.1338 58.2905C17.1338 51.5955 27.6313 27.9193 53.2738 26.6193C64.2913 26.0668 72.8062 32.8918 72.8062 32.8918" stroke="#2B2A28" stroke-width="2" stroke-miterlimit="10" stroke-linecap="round" stroke-linejoin="round"/>
<path d="M87.87 54.7968C87.87 54.7968 89.1213 56.3243 89.3975 59.818C89.6738 63.3118 89.3975 87.7193 89.3975 87.7193L69.02 87.573" stroke="#2B2A28" stroke-width="2" stroke-miterlimit="10" stroke-linecap="round" stroke-linejoin="round"/>
<path d="M30.5238 47.8093C30.5238 47.8093 28.7037 50.7343 28.5737 54.7805C28.4437 58.8268 28.5737 87.0043 28.5737 87.0043" stroke="#2B2A28" stroke-width="2" stroke-miterlimit="10" stroke-linecap="round"/>
<path d="M32.49 42.5686C32.49 43.3898 33.1557 44.0555 33.9769 44.0555C34.7981 44.0555 35.4637 43.3898 35.4637 42.5686C35.4637 41.7475 34.7981 41.0818 33.9769 41.0818C33.1557 41.0818 32.49 41.7475 32.49 42.5686Z" fill="#2B2A28"/>
<path d="M37.5763 36.9705C37.5763 36.9705 43.8813 28.943 52.4288 27.5943C52.4288 27.5943 47.7325 31.7705 45.9125 47.143" stroke="#2B2A28" stroke-width="2" stroke-miterlimit="10" stroke-linecap="round"/>
<path d="M68.8412 36.613C68.8412 36.613 63.2675 29.2518 54.72 27.8868C54.72 27.8868 59.4162 32.063 61.2362 47.4355" stroke="#2B2A28" stroke-width="2" stroke-miterlimit="10" stroke-linecap="round"/>
<path d="M77.8438 87.4105V55.2193" stroke="#2B2A28" stroke-width="2" stroke-miterlimit="10" stroke-linecap="round"/>
<path d="M32.9287 95.4868H49.2763" stroke="#2B2A28" stroke-width="2" stroke-miterlimit="10" stroke-linecap="round"/>
<path d="M57.4825 93.5043H73.83" stroke="#2B2A28" stroke-width="2" stroke-miterlimit="10" stroke-linecap="round"/>
<path d="M79.5825 26.9605C79.5825 26.9605 83.775 29.6905 82.93 36.288C82.93 36.3855 83.0275 36.4668 83.0925 36.3855C84.2462 35.313 90.73 30.243 94.2237 38.693" stroke="#2B2A28" stroke-width="2" stroke-miterlimit="10" stroke-linecap="round"/>
<path d="M86.0175 31.0393C86.0175 31.0393 84.295 25.563 90.4862 23.938C90.4862 23.938 91.8025 30.0318 86.0175 31.0393Z" stroke="#2B2A28" stroke-width="2" stroke-miterlimit="10"/>
<path d="M10 26.2455L18.4988 23.5968L19.36 17.6168L25.8438 26.4568L26.7538 20.8993L38.925 17.3568" stroke="#2B2A28" stroke-width="2" stroke-miterlimit="10" stroke-linecap="round"/>
<path d="M76.235 39.6518C76.235 39.6518 75.7313 44.413 79.1275 46.9805" stroke="white" stroke-width="2" stroke-miterlimit="10" stroke-linecap="round"/>
</svg>
