<svg width="104" height="104" viewBox="0 0 104 104" fill="none" xmlns="http://www.w3.org/2000/svg">
<path d="M36.4723 60.2066C33.1476 56.6526 19.925 41.2517 31.9629 32.0036C41.02 25.0866 50.3828 32.2329 52.905 37.048C53.2489 37.7359 54.5483 37.7359 54.9304 37.048C57.7584 32.2711 67.1212 25.2394 75.9872 32.3475C87.834 41.8249 74.9553 56.3086 71.5542 59.748C68.7262 62.6142 58.3316 72.0152 54.8158 74.9196C54.1279 75.4928 53.1343 75.4928 52.4464 74.9196C48.8542 71.9005 39.2239 63.111 36.4723 60.1684V60.2066Z" fill="#F89B20"/>
<path d="M34.6801 44.3595C34.6801 44.3595 34.1047 35.9211 42.1596 36.88" stroke="white" stroke-width="2" stroke-miterlimit="10" stroke-linecap="round"/>
<path d="M40.2326 24.1465L41.1915 13.7903" stroke="#2B2A28" stroke-width="2" stroke-miterlimit="10" stroke-linecap="round"/>
<path d="M22.5888 33.5439L13.5751 28.3658" stroke="#2B2A28" stroke-width="2" stroke-miterlimit="10" stroke-linecap="round"/>
<path d="M31.1012 27.0285L25.082 18.454" stroke="#2B2A28" stroke-width="2" stroke-miterlimit="10" stroke-linecap="round"/>
<path d="M59.0273 78.2291L60.178 88.5853" stroke="#2B2A28" stroke-width="2" stroke-miterlimit="10" stroke-linecap="round"/>
<path d="M73.0274 68.0646L83.0001 71.3249" stroke="#2B2A28" stroke-width="2" stroke-miterlimit="10" stroke-linecap="round"/>
<path d="M67.4658 74.7769L73.2193 83.4071" stroke="#2B2A28" stroke-width="2" stroke-miterlimit="10" stroke-linecap="round"/>
<path d="M56.726 73.2426C66.315 65.5714 73.9863 56.9412 78.7809 48.311" stroke="#2B2A28" stroke-width="2" stroke-miterlimit="10" stroke-linecap="round"/>
</svg>
