<svg width="104" height="104" viewBox="0 0 104 104" fill="none" xmlns="http://www.w3.org/2000/svg">
<path d="M73.775 55.575L51.35 26.325L6.98751 57.2C6.66251 57.525 6.50001 58.0125 6.66251 58.3375C6.98751 58.9875 7.47501 59.9625 7.47501 61.2625C7.47501 62.5625 6.50001 63.7 6.01251 64.35C5.52501 65 5.68751 65.1625 6.01251 65.4875L19.9875 85.9625C20.3125 86.45 20.8 86.45 21.2875 86.125C22.1 85.6375 23.5625 84.9875 25.025 85.15C26.4875 85.3125 27.7875 86.2875 28.275 86.9375C28.7625 87.5875 29.0875 87.2625 29.4125 86.9375L73.9375 55.4125L73.775 55.575Z" fill="#F89B20"/>
<path d="M11.05 54.275L61.425 19.175C61.9125 18.85 62.4 18.85 62.8875 19.175C63.375 19.5 64.025 19.9875 64.8375 20.15C65.65 20.3125 66.625 20.15 67.1125 20.15C67.6 20.15 68.0875 20.15 68.4125 20.6375L84.3375 41.275C84.6625 41.7625 84.825 42.4125 84.3375 43.0625C83.85 43.875 83.525 45.5 84.3375 47.45C85.15 49.4 84.3375 48.2625 84.0125 48.425L29.4125 87.1" stroke="#2B2A28" stroke-width="2" stroke-miterlimit="10" stroke-linecap="round"/>
<path d="M57.6875 28.1125L62.725 24.2125C63.5375 23.725 64.5125 23.725 65.1625 24.5375L79.1375 42.0875C79.7875 42.9 79.625 43.875 78.8125 44.525L74.75 47.6125C73.9375 48.2625 72.9625 48.1 72.3125 47.2875L60.125 31.85" stroke="#2B2A28" stroke-width="2" stroke-miterlimit="10" stroke-linecap="round"/>
<path d="M64.3501 30.3875L73.2876 41.275" stroke="#2B2A28" stroke-width="2" stroke-miterlimit="10" stroke-linecap="round"/>
<path d="M43.6218 49.375C44.8978 48.7164 45.1313 46.6309 44.1434 44.7169C43.1555 42.8029 41.3203 41.7851 40.0443 42.4437C38.7683 43.1023 38.5347 45.1878 39.5226 47.1018C40.5105 49.0158 42.3458 50.0335 43.6218 49.375Z" fill="white"/>
<path d="M58.2636 50.7918C59.5396 50.1332 59.7732 48.0477 58.7853 46.1337C57.7974 44.2197 55.9621 43.202 54.6861 43.8606C53.4101 44.5192 53.1766 46.6047 54.1645 48.5187C55.1524 50.4327 56.9876 51.4504 58.2636 50.7918Z" fill="white"/>
<path d="M48.5375 37.2L50.325 55.725" stroke="white" stroke-width="2" stroke-miterlimit="10" stroke-linecap="round"/>
<path d="M52.6 62.0625L62.35 55.725" stroke="white" stroke-width="2" stroke-miterlimit="10" stroke-linecap="round"/>
<path d="M73.1251 18.525L91.8126 41.925C92.1376 42.4125 92.3001 43.0625 91.9751 43.7125C91.4876 44.6875 91.1626 46.15 91.9751 48.1C92.7876 50.05 91.9751 48.9125 91.6501 49.075L36.8876 88.4" stroke="#2B2A28" stroke-width="2" stroke-miterlimit="10" stroke-linecap="round"/>
<path d="M80.2751 19.6625L98.9626 43.0625C99.2876 43.55 99.4501 44.2 99.1251 44.85C98.6376 45.825 98.3126 47.2875 99.1251 49.2375C99.9376 51.1875 99.1251 50.05 98.8001 50.2125L44.0376 89.5375" stroke="#2B2A28" stroke-width="2" stroke-miterlimit="10" stroke-linecap="round"/>
<path d="M27.8668 75.2603C25.9438 76.6146 24.0233 76.7637 22.0994 75.7409C21.9104 75.6392 21.8529 75.4742 21.9604 75.2517L22.4943 74.2592C22.6018 74.0367 22.761 74.0127 22.9697 74.1006C24.4464 74.8218 25.6276 74.6651 26.8441 73.8083C28.512 72.6336 28.8441 70.521 27.6142 68.7747C26.3705 67.0087 24.3051 66.702 22.6961 67.8352C21.7935 68.4709 21.2239 69.371 21.0869 70.2601C21.0579 70.4274 20.9816 70.5691 20.8442 70.6659L20.0201 71.2463C19.8239 71.3845 19.6371 71.3693 19.5243 71.1258L16.1327 64.2677C16.0141 64.0577 16.0765 63.8963 16.2531 63.7719L22.0416 59.6952C22.2182 59.5708 22.4189 59.6056 22.5433 59.7822L23.1513 60.6456C23.2757 60.8222 23.2409 61.0228 23.0643 61.1472L18.2176 64.5606L20.1062 68.3676C20.4519 67.5664 21.0259 66.8392 21.8305 66.2726C24.4206 64.4484 27.4485 65.1633 29.2036 67.6553C31.0416 70.265 30.3392 73.5191 27.8668 75.2603ZM39.2059 67.2744C36.341 69.2921 32.4914 67.9524 29.6999 63.9887C26.9084 60.0251 26.9439 55.9491 29.8087 53.9315C32.6539 51.9276 36.5035 53.2674 39.295 57.231C42.0866 61.1947 42.0511 65.2706 39.2059 67.2744ZM38.1832 65.8224C40.0669 64.4958 39.8695 61.4645 37.686 58.3642C35.5026 55.2639 32.715 54.0568 30.8313 55.3835C28.928 56.724 29.1254 59.7552 31.3089 62.8555C33.4923 65.9558 36.2799 67.1629 38.1832 65.8224Z" fill="white"/>
</svg>
