<svg width="104" height="104" viewBox="0 0 104 104" fill="none" xmlns="http://www.w3.org/2000/svg">
<path d="M73.775 55.575L51.35 26.325L6.98751 57.2C6.66251 57.525 6.50001 58.0125 6.66251 58.3375C6.98751 58.9875 7.47501 59.9625 7.47501 61.2625C7.47501 62.5625 6.50001 63.7 6.01251 64.35C5.52501 65 5.68751 65.1625 6.01251 65.4875L19.9875 85.9625C20.3125 86.45 20.8 86.45 21.2875 86.125C22.1 85.6375 23.5625 84.9875 25.025 85.15C26.4875 85.3125 27.7875 86.2875 28.275 86.9375C28.7625 87.5875 29.0875 87.2625 29.4125 86.9375L73.9375 55.4125L73.775 55.575Z" fill="#F89B20"/>
<path d="M11.05 54.275L61.425 19.175C61.9125 18.85 62.4 18.85 62.8875 19.175C63.375 19.5 64.025 19.9875 64.8375 20.15C65.65 20.3125 66.625 20.15 67.1125 20.15C67.6 20.15 68.0875 20.15 68.4125 20.6375L84.3375 41.275C84.6625 41.7625 84.825 42.4125 84.3375 43.0625C83.85 43.875 83.525 45.5 84.3375 47.45C85.15 49.4 84.3375 48.2625 84.0125 48.425L29.4125 87.1" stroke="#2B2A28" stroke-width="2" stroke-miterlimit="10" stroke-linecap="round"/>
<path d="M57.6875 28.1125L62.725 24.2125C63.5375 23.725 64.5125 23.725 65.1625 24.5375L79.1375 42.0875C79.7875 42.9 79.625 43.875 78.8125 44.525L74.75 47.6125C73.9375 48.2625 72.9625 48.1 72.3125 47.2875L60.125 31.85" stroke="#2B2A28" stroke-width="2" stroke-miterlimit="10" stroke-linecap="round"/>
<path d="M64.35 30.3875L73.2875 41.275" stroke="#2B2A28" stroke-width="2" stroke-miterlimit="10" stroke-linecap="round"/>
<path d="M42.6218 49.375C43.8978 48.7164 44.1313 46.6309 43.1434 44.7169C42.1555 42.8029 40.3203 41.7851 39.0443 42.4437C37.7683 43.1023 37.5347 45.1878 38.5226 47.1018C39.5105 49.0158 41.3458 50.0335 42.6218 49.375Z" fill="white"/>
<path d="M57.2635 50.7918C58.5395 50.1332 58.7731 48.0477 57.7852 46.1337C56.7973 44.2197 54.9621 43.202 53.6861 43.8606C52.4101 44.5192 52.1765 46.6047 53.1644 48.5187C54.1523 50.4327 55.9875 51.4504 57.2635 50.7918Z" fill="white"/>
<path d="M47.5375 37.2L49.325 55.725" stroke="white" stroke-width="2" stroke-miterlimit="10" stroke-linecap="round"/>
<path d="M51.6 62.0625L61.35 55.725" stroke="white" stroke-width="2" stroke-miterlimit="10" stroke-linecap="round"/>
<path d="M73.125 18.525L91.8125 41.925C92.1375 42.4125 92.3 43.0625 91.975 43.7125C91.4875 44.6875 91.1625 46.15 91.975 48.1C92.7875 50.05 91.975 48.9125 91.65 49.075L36.8875 88.4" stroke="#2B2A28" stroke-width="2" stroke-miterlimit="10" stroke-linecap="round"/>
<path d="M80.275 19.6625L98.9625 43.0625C99.2875 43.55 99.45 44.2 99.125 44.85C98.6375 45.825 98.3125 47.2875 99.125 49.2375C99.9375 51.1875 99.125 50.05 98.8 50.2125L44.0375 89.5375" stroke="#2B2A28" stroke-width="2" stroke-miterlimit="10" stroke-linecap="round"/>
<path d="M28.9559 73.9041C28.7793 74.0284 28.5786 73.9936 28.4542 73.817L20.5634 62.6128L18.6404 63.9671C18.4442 64.1053 18.2435 64.0705 18.1504 63.8132L17.7778 62.784C17.6927 62.5798 17.7551 62.4184 17.9317 62.294L20.7769 60.2902C20.9535 60.1658 21.1542 60.2006 21.2785 60.3772L29.9848 72.7391C30.1091 72.9157 30.0743 73.1163 29.8977 73.2407L28.9559 73.9041ZM38.1508 67.7218C36.2279 69.0761 34.3074 69.2251 32.3835 68.2023C32.1945 68.1006 32.137 67.9356 32.2445 67.7131L32.7784 66.7206C32.8859 66.4982 33.0451 66.4741 33.2537 66.562C34.7304 67.2833 35.9116 67.1265 37.1282 66.2697C38.7961 65.0951 39.1282 62.9825 37.8983 61.2361C36.6545 59.4701 34.5892 59.1634 32.9802 60.2966C32.0776 60.9323 31.508 61.8325 31.3709 62.7216C31.3419 62.8888 31.2657 63.0306 31.1283 63.1273L30.3042 63.7077C30.108 63.8459 29.9211 63.8307 29.8084 63.5872L26.4167 56.7291C26.2981 56.5191 26.3606 56.3577 26.5372 56.2333L32.3257 52.1566C32.5023 52.0322 32.7029 52.067 32.8273 52.2436L33.4354 53.107C33.5598 53.2836 33.5249 53.4843 33.3483 53.6086L28.5017 57.022L30.3903 60.829C30.736 60.0278 31.31 59.3006 32.1145 58.734C34.7046 56.9099 37.7326 57.6247 39.4877 60.1167C41.3256 62.7265 40.6232 65.9805 38.1508 67.7218Z" fill="white"/>
</svg>
