<svg width="104" height="104" viewBox="0 0 104 104" fill="none" xmlns="http://www.w3.org/2000/svg">
<path d="M42.9 70.3625C48.913 70.3625 53.7875 65.488 53.7875 59.475C53.7875 53.462 48.913 48.5875 42.9 48.5875C36.887 48.5875 32.0125 53.462 32.0125 59.475C32.0125 65.488 36.887 70.3625 42.9 70.3625Z" fill="#2B2A28"/>
<path d="M49.8875 87.9125L57.2 93.1125C58.6625 94.0875 59.475 95.55 59.8 97.3375L60.2875 101.4L86.45 100.912L82.3875 87.9125C81.7375 85.9625 81.7375 84.0125 81.9 82.0625L84.0125 67.1125C84.6625 62.4 83.6875 57.525 81.0875 53.4625L72.15 39.4875C71.0125 37.5375 70.0375 35.5875 69.3875 33.3125L67.7625 27.1375C67.4375 26.325 66.625 25.675 65.65 26C64.1875 26.325 62.4 27.3 61.5875 29.4125C59.8 34.6125 62.075 39.8125 64.35 44.0375C65.4875 45.9875 66.4625 47.9375 67.275 49.5625C68.0875 51.1875 65.1625 50.5375 63.5375 50.375L69.7125 78C70.2 79.7875 69.0625 83.6875 65.4875 84.6625L49.5625 87.9125H49.8875Z" fill="#F89B20"/>
<path d="M65.4875 84.6625L33.475 91.325C30.225 91.975 27.1375 89.8625 26.65 86.775L13.8125 21.45C13.1625 18.3625 15.275 15.275 18.3625 14.625L48.425 8.45C51.5125 7.8 54.6 9.75 55.25 12.8375L69.875 77.675C70.525 80.925 68.575 84.0125 65.325 84.6625H65.4875Z" stroke="#2B2A28" stroke-width="2" stroke-miterlimit="10"/>
<path d="M64.5125 73.9375L30.0625 81.4125" stroke="#2B2A28" stroke-width="2" stroke-miterlimit="10" stroke-linecap="round"/>
<path d="M48.425 84.6625C49.5917 84.6625 50.5375 83.7167 50.5375 82.55C50.5375 81.3833 49.5917 80.4375 48.425 80.4375C47.2583 80.4375 46.3125 81.3833 46.3125 82.55C46.3125 83.7167 47.2583 84.6625 48.425 84.6625Z" fill="#2B2A28"/>
<path d="M53.95 29.25L50.2125 14.1375L20.15 20.6375" stroke="#2B2A28" stroke-width="2" stroke-miterlimit="10" stroke-linecap="round" stroke-linejoin="round"/>
<path d="M80.4375 52.65L71.3375 38.1875" stroke="#2B2A28" stroke-width="2" stroke-miterlimit="10" stroke-linecap="round"/>
<path d="M82.0625 82.225L84.0125 67.925C84.825 63.5375 84.0125 58.3375 81.575 54.4375" stroke="#2B2A28" stroke-width="2" stroke-miterlimit="10" stroke-linecap="round"/>
<path d="M39.65 54.275L41.1125 55.25C41.6 55.575 41.7625 56.3875 41.4375 57.0375L40.7875 58.0125C40.4625 58.5 40.625 59.15 41.1125 59.475L43.3875 61.2625C43.875 61.5875 44.6875 61.5875 45.175 60.9375L45.825 59.9625C46.15 59.475 46.9625 59.3125 47.45 59.6375L48.9125 60.6125C49.5625 61.1 49.725 61.9125 49.2375 62.4L48.2625 63.8625C47.6125 64.8375 46.15 65.1625 45.175 64.35L38.1875 59.3125C37.05 58.5 36.725 56.875 37.5375 55.7375L38.5125 54.275C38.7875 54 39.5 54.125 39.65 54.275Z" fill="white"/>
<path d="M31.6875 40.1375C31.6875 40.1375 24.2125 33.8 28.1125 29.575C31.0375 26.325 35.1 28.4375 36.4 30.0625C36.9597 30.7621 37.05 30.0625 37.2125 30.0625C38.025 28.1125 41.1125 24.8625 44.85 26.975C48.5875 29.0875 46.15 36.4 45.0125 37.8625C44.2 39.1625 39.65 44.3625 39.65 44.3625C39.65 44.3625 39.2219 44.5931 38.8375 44.3625C37.9527 43.8316 31.6875 40.1375 31.6875 40.1375Z" fill="#F89B20"/>
<path d="M43.55 32.175C43.55 32.175 42.25 36.2375 38.8375 39.4875" stroke="white" stroke-width="2" stroke-miterlimit="10"/>
</svg>
