<svg width="104" height="104" viewBox="0 0 104 104" fill="none" xmlns="http://www.w3.org/2000/svg">
<path d="M73.775 55.575L51.35 26.325L6.98751 57.2C6.66251 57.525 6.50001 58.0125 6.66251 58.3375C6.98751 58.9875 7.47501 59.9625 7.47501 61.2625C7.47501 62.5625 6.50001 63.7 6.01251 64.35C5.52501 65 5.68751 65.1625 6.01251 65.4875L19.9875 85.9625C20.3125 86.45 20.8 86.45 21.2875 86.125C22.1 85.6375 23.5625 84.9875 25.025 85.15C26.4875 85.3125 27.7875 86.2875 28.275 86.9375C28.7625 87.5875 29.0875 87.2625 29.4125 86.9375L73.9375 55.4125L73.775 55.575Z" fill="#F89B20"/>
<path d="M11.05 54.275L61.425 19.175C61.9125 18.85 62.4 18.85 62.8875 19.175C63.375 19.5 64.025 19.9875 64.8375 20.15C65.65 20.3125 66.625 20.15 67.1125 20.15C67.6 20.15 68.0875 20.15 68.4125 20.6375L84.3375 41.275C84.6625 41.7625 84.825 42.4125 84.3375 43.0625C83.85 43.875 83.525 45.5 84.3375 47.45C85.15 49.4 84.3375 48.2625 84.0125 48.425L29.4125 87.1" stroke="#2B2A28" stroke-width="2" stroke-miterlimit="10" stroke-linecap="round"/>
<path d="M57.6875 28.1125L62.725 24.2125C63.5375 23.725 64.5125 23.725 65.1625 24.5375L79.1375 42.0875C79.7875 42.9 79.625 43.875 78.8125 44.525L74.75 47.6125C73.9375 48.2625 72.9625 48.1 72.3125 47.2875L60.125 31.85" stroke="#2B2A28" stroke-width="2" stroke-miterlimit="10" stroke-linecap="round"/>
<path d="M64.35 30.3875L73.2875 41.275" stroke="#2B2A28" stroke-width="2" stroke-miterlimit="10" stroke-linecap="round"/>
<path d="M40.6218 51.375C41.8978 50.7164 42.1313 48.6309 41.1434 46.7169C40.1555 44.8029 38.3203 43.7851 37.0443 44.4437C35.7683 45.1023 35.5347 47.1878 36.5226 49.1018C37.5105 51.0158 39.3458 52.0335 40.6218 51.375Z" fill="white"/>
<path d="M55.2635 52.7918C56.5395 52.1332 56.7731 50.0477 55.7852 48.1337C54.7973 46.2197 52.9621 45.202 51.6861 45.8606C50.4101 46.5192 50.1765 48.6047 51.1644 50.5187C52.1523 52.4327 53.9875 53.4504 55.2635 52.7918Z" fill="white"/>
<path d="M45.5375 39.2L47.325 57.725" stroke="white" stroke-width="2" stroke-miterlimit="10" stroke-linecap="round"/>
<path d="M49.6 64.0625L59.35 57.725" stroke="white" stroke-width="2" stroke-miterlimit="10" stroke-linecap="round"/>
<path d="M73.125 18.525L91.8125 41.925C92.1375 42.4125 92.3 43.0625 91.975 43.7125C91.4875 44.6875 91.1625 46.15 91.975 48.1C92.7875 50.05 91.975 48.9125 91.65 49.075L36.8875 88.4" stroke="#2B2A28" stroke-width="2" stroke-miterlimit="10" stroke-linecap="round"/>
<path d="M80.275 19.6625L98.9625 43.0625C99.2875 43.55 99.45 44.2 99.125 44.85C98.6375 45.825 98.3125 47.2875 99.125 49.2375C99.9375 51.1875 99.125 50.05 98.8 50.2125L44.0375 89.5375" stroke="#2B2A28" stroke-width="2" stroke-miterlimit="10" stroke-linecap="round"/>
<path d="M35.7016 69.1509C33.7787 70.5052 31.8582 70.6543 29.9343 69.6315C29.7453 69.5298 29.6878 69.3648 29.7953 69.1423L30.3292 68.1498C30.4367 67.9274 30.5959 67.9033 30.8045 67.9912C32.2812 68.7125 33.4624 68.5557 34.679 67.6989C36.3469 66.5243 36.679 64.4117 35.4491 62.6653C34.2053 60.8993 32.14 60.5926 30.531 61.7258C29.6284 62.3615 29.0588 63.2617 28.9217 64.1508C28.8927 64.318 28.8165 64.4598 28.6791 64.5565L27.855 65.1369C27.6588 65.2751 27.4719 65.2599 27.3592 65.0164L23.9675 58.1583C23.8489 57.9483 23.9114 57.7869 24.088 57.6625L29.8765 53.5858C30.0531 53.4614 30.2537 53.4962 30.3781 53.6728L30.9862 54.5362C31.1106 54.7128 31.0757 54.9134 30.8991 55.0378L26.0525 58.4512L27.9411 62.2582C28.2868 61.457 28.8608 60.7298 29.6653 60.1632C32.2554 58.3391 35.2834 59.0539 37.0385 61.5459C38.8764 64.1557 38.174 67.4097 35.7016 69.1509Z" fill="white"/>
</svg>
