<svg width="104" height="104" viewBox="0 0 104 104" fill="none" xmlns="http://www.w3.org/2000/svg">
<path d="M96.7224 69.9002H8.23214C5.9237 69.9002 4 68.1688 4 65.8604V25.8474C4 23.7313 5.73133 22 7.8474 22H75.9464C78.0625 22 79.7938 23.1542 80.7557 24.8856L88.2581 40.0828C89.22 42.1989 90.7589 44.1226 92.4903 45.8539L98.8385 51.8174C99.8003 52.5868 100.185 53.9334 100.185 55.0877V66.0528C100.185 68.1688 98.4537 69.7078 96.3377 69.7078L96.7224 69.9002Z" fill="#F89B20"/>
<path d="M22.2752 52.9716C29.3934 52.9716 35.1639 47.2011 35.1639 40.0828C35.1639 32.9645 29.3934 27.194 22.2752 27.194C15.1569 27.194 9.38635 32.9645 9.38635 40.0828C9.38635 47.2011 15.1569 52.9716 22.2752 52.9716Z" fill="white"/>
<path d="M85.3725 44.5073H41.3198V27.5787H75.5617C76.9083 27.5787 78.0625 28.3482 78.6396 29.5024L85.3725 44.5073Z" fill="white"/>
<path d="M94.2216 51.2402C94.2216 51.2402 93.6445 56.6266 100.57 56.2419" stroke="#2B2A28" stroke-width="2" stroke-miterlimit="10" stroke-linecap="round"/>
<path d="M20.5438 81.25C25.5373 81.25 29.5852 77.202 29.5852 72.2086C29.5852 67.2152 25.5373 63.1672 20.5438 63.1672C15.5504 63.1672 11.5024 67.2152 11.5024 72.2086C11.5024 77.202 15.5504 81.25 20.5438 81.25Z" fill="#2B2A28"/>
<path d="M20.5438 76.2484C22.7749 76.2484 24.5836 74.4397 24.5836 72.2086C24.5836 69.9775 22.7749 68.1688 20.5438 68.1688C18.3127 68.1688 16.5041 69.9775 16.5041 72.2086C16.5041 74.4397 18.3127 76.2484 20.5438 76.2484Z" stroke="white" stroke-width="2" stroke-miterlimit="10"/>
<path d="M81.9099 81.0576C86.9033 81.0576 90.9513 77.0096 90.9513 72.0162C90.9513 67.0228 86.9033 62.9748 81.9099 62.9748C76.9165 62.9748 72.8685 67.0228 72.8685 72.0162C72.8685 77.0096 76.9165 81.0576 81.9099 81.0576Z" fill="#2B2A28"/>
<path d="M81.9099 76.056C84.141 76.056 85.9497 74.2473 85.9497 72.0162C85.9497 69.7851 84.141 67.9765 81.9099 67.9765C79.6788 67.9765 77.8701 69.7851 77.8701 72.0162C77.8701 74.2473 79.6788 76.056 81.9099 76.056Z" stroke="white" stroke-width="2" stroke-miterlimit="10"/>
<path d="M4 51.625V62.3977" stroke="#2B2A28" stroke-width="2" stroke-miterlimit="10" stroke-linecap="round"/>
<path d="M7.27032 58.9351H37.2801" stroke="#2B2A28" stroke-width="2" stroke-miterlimit="10" stroke-linecap="round"/>
<path d="M44.013 59.1274H57.0942" stroke="#2B2A28" stroke-width="2" stroke-miterlimit="10" stroke-linecap="round"/>
<path d="M63.8271 59.1274H90.7589" stroke="#2B2A28" stroke-width="2" stroke-miterlimit="10" stroke-linecap="round"/>
<path d="M63.8271 49.1242H69.2135" stroke="#2B2A28" stroke-width="2" stroke-miterlimit="10" stroke-linecap="round"/>
<path d="M41.3198 27.3864V70.0925" stroke="#2B2A28" stroke-width="2" stroke-miterlimit="10" stroke-linecap="round"/>
<path d="M60.1721 27.3864V70.0925" stroke="#2B2A28" stroke-width="2" stroke-miterlimit="10" stroke-linecap="round"/>
<path d="M19.7743 36.6201V32.0032C19.7743 31.6185 19.9667 31.4261 20.3515 31.4261H24.3912C24.776 31.4261 24.9683 31.6185 24.9683 32.0032V37.1972C24.9683 37.582 25.1607 37.7743 25.5455 37.7743H30.1623C30.5471 37.7743 30.7394 37.9667 30.7394 38.3515V42.5836C30.7394 42.9683 30.5471 43.1607 30.1623 43.1607H25.5455C25.1607 43.1607 24.9683 43.3531 24.9683 43.7378V48.3547C24.9683 48.7394 24.776 48.9318 24.3912 48.9318H19.582C19.1972 48.9318 19.0049 48.7394 19.0049 48.3547V43.7378C19.0049 43.3531 18.8125 43.1607 18.4278 43.1607H13.8109C13.4261 43.1607 13.2338 42.9683 13.2338 42.5836V37.582" stroke="#2B2A28" stroke-width="2" stroke-miterlimit="10" stroke-linecap="round"/>
</svg>
