<svg width="104" height="104" viewBox="0 0 104 104" fill="none" xmlns="http://www.w3.org/2000/svg">
<path d="M39.39 49.9038C39.39 49.9038 35.9125 54.6975 39.39 58.1913C39.39 58.1913 42.185 56.4688 46.2313 57.005C50.2775 57.5413 50.57 60.0275 52.4063 60.0275C54.2425 60.0275 54.7788 57.9313 58.0613 57.9313C61.3438 57.9313 63.05 59.5075 63.05 59.5075C63.05 59.5075 67.1288 55.2988 63.7 49.1238C63.7 49.1238 61.3925 51.1388 57.4763 51.1388C53.56 51.1388 52.9263 48.555 51.2038 48.425C49.8713 48.3113 48.4413 49.8875 46.2475 50.6188C44.0538 51.35 41.47 51.5613 39.39 49.9038Z" fill="#FA9F1B"/>
<path d="M44.1837 19.7925C44.1837 19.7925 45.0774 27.7875 43.8099 32.1262C42.5424 36.465 37.7812 37.2937 36.9362 41.9087C36.1399 46.1987 38.2524 51.1387 43.1274 51.155C47.4499 51.155 49.1724 48.4575 51.1224 48.425C52.2924 48.4087 52.9262 49.7737 54.8274 50.6512C56.4199 51.3825 60.2712 51.61 63.6837 49.1237C69.9399 44.5575 65.0974 38.8862 63.1149 36.985C61.1324 35.0837 59.7512 32.7275 59.6699 26.8775C59.5887 21.0275 59.3449 8.4987 59.3449 8.4987" stroke="#1D1C1B" stroke-width="2" stroke-miterlimit="10" stroke-linecap="round"/>
<path d="M53.4786 27.5762V8.31998" stroke="#1D1C1B" stroke-width="2" stroke-miterlimit="10" stroke-linecap="round"/>
<path d="M46.6537 37.05C46.6537 37.05 45.4025 38.9187 43.7612 40.8037C42.12 42.6887 43.2087 45.0125 44.7687 45.2562" stroke="#1D1C1B" stroke-width="2" stroke-miterlimit="10" stroke-linecap="round"/>
<path d="M30.9887 38.7562L21.2062 32.5325" stroke="#1D1C1B" stroke-width="2" stroke-miterlimit="10" stroke-linecap="round"/>
<path d="M29.4287 52.6012L17.8262 52.5687" stroke="#1D1C1B" stroke-width="2" stroke-miterlimit="10" stroke-linecap="round"/>
<path d="M31.98 66.04L21.97 71.8737" stroke="#1D1C1B" stroke-width="2" stroke-miterlimit="10" stroke-linecap="round"/>
<path d="M72.9137 38.6425L82.6962 32.4187" stroke="#1D1C1B" stroke-width="2" stroke-miterlimit="10" stroke-linecap="round"/>
<path d="M74.4736 52.4875L86.0761 52.4387" stroke="#1D1C1B" stroke-width="2" stroke-miterlimit="10" stroke-linecap="round"/>
<path d="M71.9225 65.91L81.9325 71.76" stroke="#1D1C1B" stroke-width="2" stroke-miterlimit="10" stroke-linecap="round"/>
<path d="M39.4225 58.1425C39.4225 58.1425 42.6725 56.3387 46.3612 57.005C50.05 57.6712 50.6512 59.8812 52.195 59.995C53.7387 60.1087 54.6812 58.0125 57.525 57.9475C60.3687 57.8825 61.815 58.6137 63.0175 59.4912C64.22 60.3687 67.1937 63.505 64.5287 67.8437C61.8637 72.1825 59.9137 73.45 59.7025 74.9937C59.4912 76.5375 59.7025 95.7937 59.7025 95.7937" stroke="#1D1C1B" stroke-width="2" stroke-miterlimit="10" stroke-linecap="round"/>
<path d="M54.7136 95.3875V82.81" stroke="#1D1C1B" stroke-width="2" stroke-miterlimit="10" stroke-linecap="round"/>
<path d="M45.0775 95.5175V76.245C45.0775 73.45 36.9363 70.7687 36.9363 65.585" stroke="#1D1C1B" stroke-width="2" stroke-miterlimit="10" stroke-linecap="round"/>
<path d="M42.9161 64.1387C42.9161 64.1387 45.0611 60.7425 48.6849 64.0412C50.9436 66.105 54.0311 64.87 54.0311 64.87" stroke="#1D1C1B" stroke-width="2" stroke-miterlimit="10" stroke-linecap="round"/>
<path d="M37.8949 96.3625C37.8949 96.3625 39.6499 84.7275 42.1524 79.7225C43.2736 77.4962 44.8986 75.2537 44.8986 75.2537" stroke="#1D1C1B" stroke-width="2" stroke-miterlimit="10" stroke-linecap="round"/>
<path d="M38.3012 75.2537C38.3012 75.2537 33.4262 80.9412 32.4187 95.7612" stroke="#1D1C1B" stroke-width="2" stroke-miterlimit="10" stroke-linecap="round"/>
</svg>
