<svg width="104" height="104" viewBox="0 0 104 104" fill="none" xmlns="http://www.w3.org/2000/svg">
<path d="M50.3263 64.9025H53.9988V54.8762L54.3888 54.2587C56.4688 50.9112 56.2413 46.6212 53.8363 43.5012V37.31C53.8363 36.205 54.4538 35.2137 55.445 34.7262C57.7038 33.5887 61.165 31.07 62.2213 28.2425C62.2213 28.2425 53.1213 19.3212 41.795 28.4537C41.795 28.4537 43.4525 31.915 47.7913 34.3362C49.01 35.0187 49.8225 36.27 49.8225 37.6675V43.6637C47.8563 46.7512 47.7588 50.6675 49.53 53.8687L49.985 54.6975L50.3263 64.9025Z" fill="#FA9F1B"/>
<path d="M22.5388 56.225C27.071 56.225 30.745 53.1693 30.745 49.4C30.745 45.6307 27.071 42.575 22.5388 42.575C18.0066 42.575 14.3325 45.6307 14.3325 49.4C14.3325 53.1693 18.0066 56.225 22.5388 56.225Z" fill="#FA9F1B"/>
<path d="M80.8763 56.4037C85.4085 56.4037 89.0825 53.3481 89.0825 49.5787C89.0825 45.8094 85.4085 42.7537 80.8763 42.7537C76.3441 42.7537 72.67 45.8094 72.67 49.5787C72.67 53.3481 76.3441 56.4037 80.8763 56.4037Z" fill="#FA9F1B"/>
<path d="M21.0925 46.475C21.0925 46.475 15.73 49.3512 21.0925 52.7312" stroke="white" stroke-width="2" stroke-miterlimit="10" stroke-linecap="round"/>
<path d="M82.2087 52.5687C82.2087 52.5687 87.5712 49.6925 82.2087 46.3125" stroke="white" stroke-width="2" stroke-miterlimit="10" stroke-linecap="round"/>
<path d="M11.7 46.345C11.7 46.345 5.60625 38.8538 8.6125 31.8825C11.6187 24.9113 19.2887 23.9038 23.5787 23.6925C27.8687 23.4813 38.155 24.7975 38.155 24.7975C38.155 24.7975 43.4362 17.5175 51.4312 17.5175C59.4262 17.5175 67.8925 26 67.8925 30.5988C67.8925 35.1975 64.4962 37.18 64.9025 43.68C65.3087 50.18 66.7063 51.9675 64.3988 57.1512C62.0913 62.335 57.0212 64.0412 56.7125 66.04C56.4037 68.0387 56.7125 88.595 56.7125 88.595" stroke="#1D1C1B" stroke-width="2" stroke-miterlimit="10" stroke-linecap="round"/>
<path d="M70.1675 23.9525C70.1675 23.9525 80.0475 21.9375 88.1075 25.3663C96.1675 28.795 97.7925 39.0813 91.7312 46.2313" stroke="#1D1C1B" stroke-width="2" stroke-miterlimit="10" stroke-linecap="round"/>
<path d="M35.6038 30.4525C35.6038 37.765 40.6088 37.895 39.9263 43.5338C39.1788 49.5788 38.3175 51.9188 40.3813 57.0863" stroke="#1D1C1B" stroke-width="2" stroke-miterlimit="10" stroke-linecap="round"/>
<path d="M42.25 61.0513C42.25 61.0513 44.2162 63.2775 45.8737 64.6425C46.7837 65.39 47.3038 66.5113 47.3038 67.6813V88.5463" stroke="#1D1C1B" stroke-width="2" stroke-miterlimit="10" stroke-linecap="round"/>
<path d="M41.8112 28.4538C41.8112 28.4538 51.5937 19.305 62.2375 28.2425" stroke="#1D1C1B" stroke-width="2" stroke-miterlimit="10" stroke-linecap="round"/>
<path d="M16.3963 45.175C16.3963 45.175 10.9363 39.1138 14.0075 33.5725C17.0788 28.0313 28.2263 29.4288 28.2263 29.4288" stroke="#1D1C1B" stroke-width="2" stroke-miterlimit="10" stroke-linecap="round"/>
<path d="M86.84 44.8663C86.84 44.8663 92.3 38.805 89.2288 33.2638C86.1575 27.7225 75.01 29.12 75.01 29.12" stroke="#1D1C1B" stroke-width="2" stroke-miterlimit="10" stroke-linecap="round"/>
</svg>
