<svg width="104" height="104" viewBox="0 0 104 104" fill="none" xmlns="http://www.w3.org/2000/svg">
<path d="M73.775 55.575L51.35 26.325L6.98751 57.2C6.66251 57.525 6.50001 58.0125 6.66251 58.3375C6.98751 58.9875 7.47501 59.9625 7.47501 61.2625C7.47501 62.5625 6.50001 63.7 6.01251 64.35C5.52501 65 5.68751 65.1625 6.01251 65.4875L19.9875 85.9625C20.3125 86.45 20.8 86.45 21.2875 86.125C22.1 85.6375 23.5625 84.9875 25.025 85.15C26.4875 85.3125 27.7875 86.2875 28.275 86.9375C28.7625 87.5875 29.0875 87.2625 29.4125 86.9375L73.9375 55.4125L73.775 55.575Z" fill="#F89B20"/>
<path d="M11.05 54.275L61.425 19.175C61.9125 18.85 62.4 18.85 62.8875 19.175C63.375 19.5 64.025 19.9875 64.8375 20.15C65.65 20.3125 66.625 20.15 67.1125 20.15C67.6 20.15 68.0875 20.15 68.4125 20.6375L84.3375 41.275C84.6625 41.7625 84.825 42.4125 84.3375 43.0625C83.85 43.875 83.525 45.5 84.3375 47.45C85.15 49.4 84.3375 48.2625 84.0125 48.425L29.4125 87.1" stroke="#2B2A28" stroke-width="2" stroke-miterlimit="10" stroke-linecap="round"/>
<path d="M57.6875 28.1125L62.725 24.2125C63.5375 23.725 64.5125 23.725 65.1625 24.5375L79.1375 42.0875C79.7875 42.9 79.625 43.875 78.8125 44.525L74.75 47.6125C73.9375 48.2625 72.9625 48.1 72.3125 47.2875L60.125 31.85" stroke="#2B2A28" stroke-width="2" stroke-miterlimit="10" stroke-linecap="round"/>
<path d="M64.3501 30.3875L73.2876 41.275" stroke="#2B2A28" stroke-width="2" stroke-miterlimit="10" stroke-linecap="round"/>
<path d="M43.6218 49.375C44.8978 48.7164 45.1313 46.6309 44.1434 44.7169C43.1555 42.8029 41.3203 41.7851 40.0443 42.4437C38.7683 43.1023 38.5347 45.1878 39.5226 47.1018C40.5105 49.0158 42.3458 50.0335 43.6218 49.375Z" fill="white"/>
<path d="M58.2636 50.7918C59.5396 50.1332 59.7732 48.0477 58.7853 46.1337C57.7974 44.2197 55.9621 43.202 54.6861 43.8606C53.4101 44.5192 53.1766 46.6047 54.1645 48.5187C55.1524 50.4327 56.9876 51.4504 58.2636 50.7918Z" fill="white"/>
<path d="M48.5375 37.2L50.325 55.725" stroke="white" stroke-width="2" stroke-miterlimit="10" stroke-linecap="round"/>
<path d="M52.6 62.0625L62.35 55.725" stroke="white" stroke-width="2" stroke-miterlimit="10" stroke-linecap="round"/>
<path d="M73.1251 18.525L91.8126 41.925C92.1376 42.4125 92.3001 43.0625 91.9751 43.7125C91.4876 44.6875 91.1626 46.15 91.9751 48.1C92.7876 50.05 91.9751 48.9125 91.6501 49.075L36.8876 88.4" stroke="#2B2A28" stroke-width="2" stroke-miterlimit="10" stroke-linecap="round"/>
<path d="M80.2751 19.6625L98.9626 43.0625C99.2876 43.55 99.4501 44.2 99.1251 44.85C98.6376 45.825 98.3126 47.2875 99.1251 49.2375C99.9376 51.1875 99.1251 50.05 98.8001 50.2125L44.0376 89.5375" stroke="#2B2A28" stroke-width="2" stroke-miterlimit="10" stroke-linecap="round"/>
<path d="M21.018 74.4477C20.7825 74.6135 20.6073 74.5315 20.573 74.2327L19.7111 61.6301C19.6928 61.4374 19.7691 61.2957 19.9261 61.1851L21.4762 60.0934C21.6528 59.969 21.8535 60.0038 21.9779 60.1804L27.4089 67.8919L29.6262 66.3303C29.8028 66.2059 30.0034 66.2407 30.1278 66.4173L30.6806 67.2022C30.8049 67.3788 30.7701 67.5795 30.5935 67.7038L28.3762 69.2654L30.6841 72.5423C30.8084 72.7189 30.7736 72.9195 30.597 73.0439L29.7337 73.652C29.5571 73.7763 29.3564 73.7415 29.232 73.5649L26.9242 70.2881L21.018 74.4477ZM21.8951 71.7751L25.9568 68.9145L21.2582 62.243L21.8951 71.7751ZM39.9021 66.7841C37.0373 68.8017 33.1876 67.462 30.3961 63.4984C27.6046 59.5347 27.6401 55.4588 30.5049 53.4411C33.3501 51.4373 37.1998 52.777 39.9913 56.7407C42.7828 60.7043 42.7473 64.7803 39.9021 66.7841ZM38.8795 65.3321C40.7632 64.0054 40.5657 60.9742 38.3823 57.8739C36.1988 54.7736 33.4112 53.5665 31.5275 54.8932C29.6242 56.2336 29.8216 59.2649 32.0051 62.3652C34.1886 65.4655 36.9761 66.6726 38.8795 65.3321Z" fill="white"/>
</svg>
