<svg width="104" height="104" viewBox="0 0 104 104" fill="none" xmlns="http://www.w3.org/2000/svg">
<path d="M9.2625 77.8375C7.475 76.2125 7.6375 73.45 9.2625 71.825C21.775 60.6125 33.15 62.2375 41.7625 63.375C44.6875 63.7 47.45 64.1875 49.8875 64.025C56.7125 63.5375 61.1 58.9875 62.2375 51.1875C62.725 47.9375 62.4 44.85 62.2375 41.1125C61.9125 36.5625 61.425 31.3625 62.5625 25.35C63.7 18.525 67.1125 13.325 69.875 10.2375C72.6375 7.15 74.5875 8.2875 76.2125 10.2375C77.35 11.7 77.35 13.975 76.2125 15.4375C74.2625 17.7125 71.6625 21.6125 70.6875 26.65C69.875 31.6875 70.2 36.075 70.525 40.4625C70.85 44.3625 71.175 48.2625 70.525 52.4875C68.7375 64.1875 61.425 71.5 50.7 72.3125C47.45 72.475 44.2 72.15 40.95 71.6625C32.9875 70.525 24.7 69.3875 14.95 78.1625C13.4875 79.625 11.05 79.4625 9.425 78.1625L9.2625 77.8375Z" fill="#F89B20"/>
<path d="M71.6625 35.2625C71.6625 35.2625 78.325 35.2625 82.225 33.15C86.125 31.0375 87.5875 28.275 90.35 27.1375C93.1125 26 97.825 28.6 95.875 32.825C93.925 37.05 84.6625 44.525 72.475 44.3625" stroke="#2B2A28" stroke-width="2" stroke-miterlimit="10"/>
<path d="M82.875 38.35C82.875 38.35 88.2375 36.725 92.3 32.0125" stroke="#2B2A28" stroke-width="2" stroke-miterlimit="10"/>
<path d="M73.45 17.3875L83.3625 26.975" stroke="#2B2A28" stroke-width="2" stroke-miterlimit="10"/>
<path d="M70.6875 23.8875L80.7625 33.6375" stroke="#2B2A28" stroke-width="2" stroke-miterlimit="10"/>
<path d="M50.5375 42.9L59.15 51.35" stroke="#2B2A28" stroke-width="2" stroke-miterlimit="10"/>
<path d="M59.3125 34.125C59.3125 34.125 45.175 32.5 37.8625 41.7625C30.55 51.025 32.6625 60.9375 32.6625 60.9375" stroke="#2B2A28" stroke-width="2" stroke-miterlimit="10"/>
<path d="M41.4375 61.5875C41.4375 61.5875 40.7875 51.8375 45.0125 46.6375C49.2375 41.4375 55.25 41.7625 58.9875 42.0875" stroke="#2B2A28" stroke-width="2" stroke-miterlimit="10"/>
<path d="M45.0125 46.475L58.9875 59.8" stroke="#2B2A28" stroke-width="2" stroke-miterlimit="10"/>
<path d="M45.6625 55.575L54.275 64.025" stroke="#2B2A28" stroke-width="2" stroke-miterlimit="10"/>
<path d="M42.4125 41.925C42.4125 41.925 35.75 46.6375 36.2375 60.6125" stroke="#2B2A28" stroke-width="2" stroke-miterlimit="10"/>
<path d="M34.45 72.6375C34.45 72.6375 34.45 79.3 32.3375 83.3625C30.225 87.425 27.4625 88.725 26.325 91.4875C25.1875 94.25 27.7875 98.9625 32.0125 97.0125C36.2375 95.0625 43.7125 85.8 43.55 73.6125" stroke="#2B2A28" stroke-width="2" stroke-miterlimit="10"/>
<path d="M37.5375 83.85C37.5375 83.85 35.9125 89.2125 31.2 93.275" stroke="#2B2A28" stroke-width="2" stroke-miterlimit="10"/>
<path d="M15.4375 76.375L26.1625 85.3125" stroke="#2B2A28" stroke-width="2" stroke-miterlimit="10"/>
<path d="M21.6125 72.9625L32.3375 81.9" stroke="#2B2A28" stroke-width="2" stroke-miterlimit="10"/>
</svg>
