<svg width="104" height="104" viewBox="0 0 104 104" fill="none" xmlns="http://www.w3.org/2000/svg">
<path d="M59.9861 82.7348L66.8527 87.6178C68.2261 88.5333 68.989 89.9067 69.2942 91.5852L69.752 95.4L94.3193 94.9422L90.5045 82.7348C89.8942 80.9037 89.8942 79.0726 90.0468 77.2415L92.0304 63.203C92.6408 58.7779 91.7253 54.2001 89.2838 50.3853L80.8912 37.2624C79.8231 35.4313 78.9075 33.6002 78.2972 31.4639L76.7712 25.6654C76.466 24.9024 75.7031 24.292 74.7875 24.5972C73.4142 24.9024 71.7357 25.818 70.9727 27.8017C69.2942 32.6846 71.4305 37.5676 73.5668 41.535C74.6349 43.3661 75.5505 45.1972 76.3135 46.7231C77.0764 48.249 74.3298 47.6386 72.8038 47.486L78.6023 73.4267C79.0601 75.1052 77.992 78.7674 74.6349 79.683L59.6809 82.7348H59.9861Z" fill="#F89B20"/>
<path d="M29.1243 35.6602L26.1106 20.3247C25.5002 17.4254 27.4839 14.5261 30.3832 13.9158L58.6127 8.11728C61.512 7.50691 64.4112 9.33802 65.0216 12.2373L78.7549 73.1215C79.3653 76.1734 77.5342 79.0726 74.4823 79.683H74.6349L44.5743 85.9393C41.5224 86.5496 38.6232 84.566 38.1654 81.6667L36.5 73.1215" stroke="#2B2A28" stroke-width="2" stroke-miterlimit="10"/>
<path d="M73.7194 69.6119L41.3698 76.6312" stroke="#2B2A28" stroke-width="2" stroke-miterlimit="10" stroke-linecap="round"/>
<path d="M58.6127 79.683C59.7083 79.683 60.5964 78.7949 60.5964 77.6993C60.5964 76.6037 59.7083 75.7156 58.6127 75.7156C57.5172 75.7156 56.629 76.6037 56.629 77.6993C56.629 78.7949 57.5172 79.683 58.6127 79.683Z" fill="#2B2A28"/>
<path d="M63.8009 27.6491L60.2913 13.458L32.0618 19.5617" stroke="#2B2A28" stroke-width="2" stroke-miterlimit="10" stroke-linecap="round" stroke-linejoin="round"/>
<path d="M88.6734 49.6224L80.1282 36.0417" stroke="#2B2A28" stroke-width="2" stroke-miterlimit="10" stroke-linecap="round"/>
<path d="M90.1994 77.3941L92.0305 63.966C92.7934 59.846 92.0305 54.9631 89.7416 51.3009" stroke="#2B2A28" stroke-width="2" stroke-miterlimit="10" stroke-linecap="round"/>
<path d="M53.5172 55.1179L37.5337 34.2699L5.91423 56.2762C5.68259 56.5078 5.56676 56.8553 5.68259 57.0869C5.91423 57.5502 6.2617 58.2451 6.2617 59.1717C6.2617 60.0983 5.56676 60.909 5.2193 61.3723C4.87183 61.8356 4.98765 61.9514 5.2193 62.1831L15.18 76.7767C15.4117 77.1242 15.7591 77.1242 16.1066 76.8925C16.6857 76.545 17.7281 76.0818 18.7705 76.1976C19.8129 76.3134 20.7395 77.0083 21.0869 77.4716C21.4344 77.9349 21.6661 77.7033 21.8977 77.4716L53.633 55.0021L53.5172 55.1179Z" fill="#F89B20"/>
<path d="M8.80975 54.1913L44.7146 29.1737C45.0621 28.9421 45.4096 28.9421 45.757 29.1737C46.1045 29.4054 46.5678 29.7528 47.1469 29.8687C47.726 29.9845 48.421 29.8687 48.7684 29.8687C49.1159 29.8687 49.4634 29.8687 49.695 30.2161L61.0456 44.9256C61.2772 45.273 61.393 45.7363 61.0456 46.1996C60.6981 46.7787 60.4665 47.9369 61.0456 49.3268C61.6247 50.7167 61.0456 49.9059 60.8139 50.0217L21.8977 77.5874" stroke="#2B2A28" stroke-width="2" stroke-miterlimit="10" stroke-linecap="round"/>
<path d="M42.0508 35.544L45.6413 32.7642C46.2204 32.4168 46.9153 32.4168 47.3786 32.9959L57.3393 45.5047C57.8026 46.0838 57.6868 46.7787 57.1077 47.242L54.2121 49.4426C53.633 49.9059 52.9381 49.7901 52.4748 49.211L43.7881 38.2079" stroke="#2B2A28" stroke-width="2" stroke-miterlimit="10" stroke-linecap="round"/>
<path d="M46.7994 37.1655L53.1697 44.9256" stroke="#2B2A28" stroke-width="2" stroke-miterlimit="10" stroke-linecap="round"/>
<path d="M32.0254 50.6988C32.9349 50.2294 33.1013 48.743 32.3972 47.3787C31.6931 46.0145 30.385 45.2892 29.4755 45.7586C28.5661 46.228 28.3996 47.7144 29.1037 49.0786C29.8078 50.4428 31.1159 51.1682 32.0254 50.6988Z" fill="white"/>
<path d="M42.4614 51.7087C43.3708 51.2393 43.5373 49.7528 42.8332 48.3886C42.1291 47.0244 40.821 46.299 39.9115 46.7685C39.002 47.2379 38.8356 48.7243 39.5397 50.0885C40.2438 51.4527 41.5519 52.1781 42.4614 51.7087Z" fill="white"/>
<path d="M35.5291 42.0211L36.8031 55.2248" stroke="white" stroke-width="2" stroke-miterlimit="10" stroke-linecap="round"/>
<path d="M38.4246 59.7419L45.374 55.2248" stroke="white" stroke-width="2" stroke-miterlimit="10" stroke-linecap="round"/>
<path d="M28.8301 63.4904C26.7882 64.9285 24.0443 63.9736 22.0547 61.1485C20.065 58.3234 20.0903 55.4182 22.1322 53.9801C24.1602 52.5519 26.904 53.5068 28.8937 56.3319C30.8833 59.157 30.858 62.0622 28.8301 63.4904ZM28.1012 62.4554C29.4438 61.5099 29.3031 59.3493 27.7468 57.1396C26.1906 54.9299 24.2037 54.0695 22.8611 55.0151C21.5045 55.9705 21.6452 58.131 23.2015 60.3408C24.7578 62.5505 26.7446 63.4109 28.1012 62.4554Z" fill="white"/>
<path d="M20.8858 69.0854C19.2774 70.2182 17.6728 70.1976 16.3858 69.0535C16.2593 68.9333 16.2702 68.8002 16.3763 68.6836L16.9393 68.0569C17.0455 67.9403 17.1828 67.9273 17.3092 68.0475C18.1478 68.7331 19.1639 68.7498 20.1569 68.0505C21.2757 67.2625 21.5172 65.9417 20.8277 64.9627C20.1087 63.9418 18.8107 63.8516 17.6779 64.6494L17.2583 64.9449C17.1324 65.0336 16.9894 65.0088 16.9008 64.8829L16.5068 64.3235C16.4181 64.1976 16.443 64.0546 16.5688 63.9659L16.9884 63.6704C18.0653 62.912 18.1742 61.7892 17.593 60.964C16.9528 60.055 15.9098 59.9108 14.9168 60.6101C14.0637 61.211 13.7733 62.1059 14.0773 63.0426C14.1339 63.212 14.0893 63.327 13.9339 63.3737L13.1864 63.6491C13.0309 63.6958 12.9019 63.6611 12.8454 63.4917C12.3997 62.0272 12.8732 60.5011 14.2438 59.5358C15.8941 58.3735 17.6662 58.6319 18.6808 60.0724C19.193 60.7997 19.3882 61.9385 18.8322 63.0205C20.1585 62.735 21.3104 63.2418 21.9605 64.1649C23.113 65.8012 22.6619 67.8345 20.8858 69.0854Z" fill="white"/>
</svg>
